<svg xmlns:inkscape="http://www.inkscape.org/namespaces/inkscape" xmlns:sodipodi="http://sodipodi.sourceforge.net/DTD/sodipodi-0.dtd" xmlns="http://www.w3.org/2000/svg" xmlns:svg="http://www.w3.org/2000/svg" version="1.1" id="svg13" sodipodi:docname="coordinate.svg" inkscape:version="1.3.2 (091e20e, 2023-11-25)" viewBox="-0.4 -2.32 238.8 577.62">
  <defs id="defs13"/>
  <sodipodi:namedview id="namedview13" pagecolor="#ffffff" bordercolor="#000000" borderopacity="0.25" inkscape:showpageshadow="2" inkscape:pageopacity="0.0" inkscape:pagecheckerboard="0" inkscape:deskcolor="#d1d1d1" showgrid="false" inkscape:zoom="2.8404303" inkscape:cx="125.86121" inkscape:cy="155.25817" inkscape:window-width="1328" inkscape:window-height="451" inkscape:window-x="0" inkscape:window-y="38" inkscape:window-maximized="0" inkscape:current-layer="svg13"/>
  <path stroke-width="0.19925" stroke-linecap="butt" stroke-miterlimit="10" stroke-linejoin="miter" fill="none" stroke="#929292" d="m 8.505,260.88883 h 212.6 m -212.6,-42.52 h 212.6 m -212.6,-42.52 h 212.6 m -212.6,-42.52 h 212.6 M 8.505,90.808826 h 212.6 M 29.764,282.14983 V 69.547826 M 72.285,282.14983 V 69.547826 m 42.52,212.602004 V 69.547826 m 42.52,212.602004 V 69.547826 m 42.52,212.602004 V 69.547826 m 21.26,0" id="path1"/>
  <path stroke-width="0.79701" stroke-linecap="butt" stroke-miterlimit="10" stroke-linejoin="miter" fill="none" stroke="#000000" d="M 0,175.84883 H 228.902" id="path2"/>
  <path stroke-width="0.6376" stroke-linecap="round" stroke-linejoin="round" fill="none" stroke="#000000" d="m 227.348,173.77683 c 0.129,0.777 1.554,1.943 1.943,2.072 -0.389,0.13 -1.814,1.295 -1.943,2.072" id="path3"/>
  <text xml:space="preserve" font-size="9.96264px" font-family="CMMI10" id="text3" x="-149.075" y="664.60883"><tspan y="177.99384" x="233.32899" id="tspan3">x</tspan></text>
  <path stroke-width="0.79701" stroke-linecap="butt" stroke-miterlimit="10" stroke-linejoin="miter" fill="none" stroke="#000000" d="M 114.805,290.65383 V 61.751826" id="path4"/>
  <path stroke-width="0.6376" stroke-linecap="round" stroke-linejoin="round" fill="none" stroke="#000000" d="m 112.733,63.305826 c 0.777,-0.129 1.942,-1.554 2.072,-1.943 0.129,0.389 1.295,1.814 2.072,1.943" id="path5"/>
  <text xml:space="preserve" font-size="9.96264px" font-family="CMMI10" id="text5" x="-149.075" y="664.60883"><tspan y="55.387817" x="112.18401" id="tspan5">y</tspan></text>
  <path stroke-width="0.79701" stroke-linecap="butt" stroke-miterlimit="10" stroke-linejoin="miter" fill="none" stroke="#0000ff" d="m 29.764,260.88883 7.087,-7.086 7.086,-7.086 7.086,-7.087 7.087,-7.086 7.086,-7.086 7.086,-7.086 7.086,-7.086 7.087,-7.087 7.086,-7.086 7.086,-7.086 7.087,-7.087 7.086,-7.086 7.086,-7.086 7.086,-7.086 7.087,-7.087 7.086,-7.086 7.086,-7.086 7.087,-7.086 7.086,-7.087 7.086,-7.086 7.086,-7.086 7.087,-7.087 7.086,-7.086004 7.086,-7.086" id="path6"/>
  <text fill="#0000ff" xml:space="preserve" font-size="9.96264px" font-family="CMMI10" id="text6" x="-149.075" y="664.60883"><tspan y="91.994812" x="203.554" id="tspan6">y</tspan></text>
  <text fill="#0000ff" xml:space="preserve" font-size="9.96264px" font-family="CMR10" id="text7" x="-149.075" y="664.60883"><tspan y="91.994812" x="211.59383" id="tspan7">=</tspan></text>
  <text fill="#0000ff" xml:space="preserve" font-size="9.96264px" font-family="CMMI10" id="text8" x="-149.075" y="664.60883"><tspan y="91.994812" x="222.15404" id="tspan8">x</tspan></text>
  <path stroke-width="0.79701" stroke-linecap="butt" stroke-miterlimit="10" stroke-linejoin="miter" fill="none" stroke="#ff0000" d="m 29.764,5.7678265 7.087,27.1639995 7.086,24.803 7.086,22.44 7.087,20.078004 7.086,17.717 7.086,15.353 7.086,12.993 7.087,10.63 7.086,8.269 7.086,5.907 7.087,3.545 7.086,1.182 7.086,-1.179 7.086,-3.541 7.087,-5.904 7.086,-8.264 7.086,-10.627 7.087,-12.99 7.086,-15.351 7.086,-17.712 7.086,-20.075004 7.087,-22.436 7.086,-24.799 7.086,-27.1609995" id="path8"/>
  <text fill="#ff0000" xml:space="preserve" font-size="9.96264px" font-family="CMMI10" id="text9" x="-149.075" y="664.60883"><tspan y="8.8958139" x="203.554" id="tspan9">y</tspan></text>
  <text fill="#ff0000" xml:space="preserve" font-size="9.96264px" font-family="CMR10" id="text10" x="-149.075" y="664.60883"><tspan y="8.8958139" x="211.59383" id="tspan10">=</tspan></text>
  <text fill="#ff0000" xml:space="preserve" font-size="9.96264px" font-family="CMMI10" id="text11" x="-149.075" y="664.60883"><tspan y="8.8958139" x="222.15404" id="tspan11">x</tspan></text>
  <text fill="#ff0000" xml:space="preserve" font-size="6.97385px" font-family="CMR7" id="text12" x="-149.075" y="664.60883"><tspan y="5.1759043" x="227.79387" id="tspan12">2</tspan></text>
  <text xml:space="preserve" transform="scale(1,-1)" font-size="0.12px" font-family="Unnamed" id="text13" x="-149.075" y="-664.60883"><tspan y="-575.2088" x="154.045" id="tspan13">R</tspan></text>
</svg>