<?xml version="1.0" encoding="UTF-8" standalone="no"?>
<!-- Created with Inkscape (http://www.inkscape.org/) -->

<svg
   version="1.1"
   id="svg1"
   width="816"
   height="1056"
   viewBox="0 0 816 1056"
   sodipodi:docname="coordinate.pdf"
   xmlns:inkscape="http://www.inkscape.org/namespaces/inkscape"
   xmlns:sodipodi="http://sodipodi.sourceforge.net/DTD/sodipodi-0.dtd"
   xmlns="http://www.w3.org/2000/svg"
   xmlns:svg="http://www.w3.org/2000/svg">
  <defs
     id="defs1" />
  <sodipodi:namedview
     id="namedview1"
     pagecolor="#ffffff"
     bordercolor="#000000"
     borderopacity="0.25"
     inkscape:showpageshadow="2"
     inkscape:pageopacity="0.0"
     inkscape:pagecheckerboard="0"
     inkscape:deskcolor="#d1d1d1">
    <inkscape:page
       x="0"
       y="0"
       inkscape:label="1"
       id="page1"
       width="816"
       height="1056"
       margin="0"
       bleed="0" />
  </sodipodi:namedview>
  <g
     id="g1"
     inkscape:groupmode="layer"
     inkscape:label="1">
    <path
       id="path1"
       d="M -85.04042,0 H 211.89369"
       style="fill:none;stroke:#000000;stroke-width:0.79701;stroke-linecap:butt;stroke-linejoin:miter;stroke-miterlimit:10;stroke-dasharray:none;stroke-opacity:1"
       transform="matrix(1.3333333,0,0,-1.3333333,312.2,467.55467)" />
    <path
       id="path2"
       d="M -1.55415,2.0722 C -1.42464,1.29512 0,0.1295 0.38852,0 0,-0.1295 -1.42464,-1.29512 -1.55415,-2.0722"
       style="fill:none;stroke:#000000;stroke-width:0.6376;stroke-linecap:round;stroke-linejoin:round;stroke-miterlimit:10;stroke-dasharray:none;stroke-opacity:1"
       transform="matrix(1.3333333,0,0,-1.3333333,594.72492,467.55467)" />
    <path
       id="path3"
       d="m 3.328875,-3.0121719 c 0.058594,-0.2578125 0.2929687,-1.171875 0.984375,-1.171875 0.046875,0 0.2929687,0 0.5039062,0.1289063 -0.28125,0.046875 -0.4804687,0.3046875 -0.4804687,0.5390625 0,0.1640625 0.1054687,0.3515625 0.375,0.3515625 0.2226562,0 0.5390625,-0.1875 0.5390625,-0.5859375 0,-0.515625 -0.5859375,-0.65625 -0.9257813,-0.65625 -0.5742187,0 -0.9257812,0.5273437 -1.0429687,0.7617187 -0.2578125,-0.65625 -0.7851563,-0.7617187 -1.078125,-0.7617187 -1.0429688,0 -1.60546875,1.2890625 -1.60546875,1.5351562 0,0.1054688 0.10546875,0.1054688 0.1171875,0.1054688 0.0820313,0 0.1171875,-0.023437 0.12890625,-0.1171875 0.3398437,-1.0546875 0.9960937,-1.3007813 1.3359375,-1.3007813 0.1875,0 0.5390625,0.09375 0.5390625,0.6679688 0,0.3046875 -0.1640625,0.9726562 -0.5390625,2.3671875 -0.1523438,0.62109372 -0.5039063,1.04296872 -0.9492188,1.04296872 -0.058594,0 -0.28124995,0 -0.49218745,-0.12890625 0.24609375,-0.0585938 0.46874995,-0.26953125 0.46874995,-0.5390625 0,-0.26953127 -0.2226562,-0.35156247 -0.37499995,-0.35156247 -0.29296875,0 -0.5390625,0.25781247 -0.5390625,0.57421872 0,0.45703125 0.4921875,0.65625 0.93749995,0.65625 0.65625,0 1.0078125,-0.69140625 1.0429688,-0.75 0.1171875,0.36328125 0.4804687,0.75 1.078125,0.75 1.0195312,0 1.59375,-1.27734372 1.59375,-1.53515622 0,-0.09375 -0.09375,-0.09375 -0.1289063,-0.09375 -0.082031,0 -0.1054687,0.035156 -0.1289062,0.1054687 -0.328125,1.06640627 -0.9960938,1.31250002 -1.3242188,1.31250002 -0.3867187,0 -0.5390625,-0.328125 -0.5390625,-0.65625 0,-0.22265625 0.058594,-0.44531252 0.1640625,-0.87890622 z m 0,0"
       style="fill:#000000;fill-opacity:1;fill-rule:nonzero;stroke:none"
       aria-label="x"
       transform="matrix(1.3333333,0,0,1.3333333,600.624,470.41467)" />
    <path
       id="path4"
       d="M 0,-85.04042 V 211.89369"
       style="fill:none;stroke:#000000;stroke-width:0.79701;stroke-linecap:butt;stroke-linejoin:miter;stroke-miterlimit:10;stroke-dasharray:none;stroke-opacity:1"
       transform="matrix(1.3333333,0,0,-1.3333333,312.2,467.55467)" />
    <path
       id="path5"
       d="M -1.55415,2.0722 C -1.42464,1.29512 0,0.1295 0.38852,0 0,-0.1295 -1.42464,-1.29512 -1.55415,-2.0722"
       style="fill:none;stroke:#000000;stroke-width:0.6376;stroke-linecap:round;stroke-linejoin:round;stroke-miterlimit:10;stroke-dasharray:none;stroke-opacity:1"
       transform="matrix(0,-1.3333333,-1.3333333,0,312.2,185.02975)" />
    <path
       id="path6"
       d="m 4.8411172,-3.7957891 c 0.046875,-0.140625 0.046875,-0.1523437 0.046875,-0.2226562 0,-0.1875 -0.140625,-0.2695313 -0.2929688,-0.2695313 -0.1054687,0 -0.2578125,0.058594 -0.3515625,0.1992188 -0.023437,0.058594 -0.09375,0.3632812 -0.140625,0.5390625 -0.070312,0.2578125 -0.140625,0.5273437 -0.1992187,0.796875 l -0.4453125,1.79296874 c -0.035156,0.15234375 -0.46875,0.85546875 -1.125,0.85546875 -0.5039063,0 -0.6210938,-0.4453125 -0.6210938,-0.80859375 0,-0.45703124 0.1757813,-1.07812504 0.515625,-1.95703124 0.1523438,-0.4101563 0.1992188,-0.515625 0.1992188,-0.7148438 0,-0.4453125 -0.328125,-0.8203125 -0.8203125,-0.8203125 -0.94921876,0 -1.31250001,1.453125 -1.31250001,1.5351563 0,0.1054687 0.09375,0.1054687 0.1171875,0.1054687 0.09375,0 0.10546875,-0.023437 0.15234375,-0.1875 0.26953125,-0.9375 0.66796876,-1.2304687 1.00781246,-1.2304687 0.082031,0 0.2578125,0 0.2578125,0.3164062 0,0.2460938 -0.1054687,0.515625 -0.1757812,0.703125 -0.3984375,1.0546875 -0.5742188,1.6171875 -0.5742188,2.0859375 0,0.89062504 0.6210938,1.18359379 1.21875,1.18359379 0.3867188,0 0.7265625,-0.1640625 0.9960938,-0.4453125 -0.1289063,0.515625 -0.2460938,1.0078125 -0.6445313,1.53515621 -0.2578125,0.3398438 -0.6328125,0.6328125 -1.0898437,0.6328125 -0.140625,0 -0.59765626,-0.035156 -0.76171876,-0.421875 0.1640625,0 0.29296876,0 0.43359376,-0.1171875 0.09375,-0.09375 0.1992187,-0.2226562 0.1992187,-0.41015621 0,-0.31640625 -0.2695312,-0.3515625 -0.375,-0.3515625 -0.22265621,0 -0.55078121,0.1640625 -0.55078121,0.64453121 0,0.5039063 0.43359375,0.8671875 1.05468751,0.8671875 1.0195312,0 2.0507812,-0.9023437 2.3320312,-2.02734371 z m 0,0"
       style="fill:#000000;fill-opacity:1;fill-rule:nonzero;stroke:none"
       aria-label="y"
       transform="matrix(1.3333333,0,0,1.3333333,308.70533,176.54933)" />
    <path
       id="path7"
       d="M -42.5202,-42.5202 H 42.5202 L 0,42.5202 Z"
       style="fill:#0000ff;fill-opacity:0.3;fill-rule:nonzero;stroke:none"
       transform="matrix(1.3333333,0,0,-1.3333333,312.2,467.55467)" />
    <path
       id="path8"
       d="m 85.04042,42.5202 h 85.04044 l -42.52024,85.04042 z"
       style="fill:#0000ff;fill-opacity:0.3;fill-rule:nonzero;stroke:none"
       transform="matrix(1.3333333,0,0,-1.3333333,312.2,467.55467)" />
    <path
       id="path9"
       d="m 45.50903,-42.5202 c 0,1.65071 -1.33812,2.98883 -2.98883,2.98883 -1.65071,0 -2.98883,-1.33812 -2.98883,-2.98883 0,-1.65071 1.33812,-2.98883 2.98883,-2.98883 1.65071,0 2.98883,1.33812 2.98883,2.98883 z"
       style="fill:#000000;fill-opacity:1;fill-rule:nonzero;stroke:none"
       transform="matrix(1.3333333,0,0,-1.3333333,312.2,467.55467)" />
    <path
       id="path10"
       d="m 0.44476563,1.2175078 c -0.0820313,0.3398438 -0.09375,0.4101563 -0.5390625,0.4101563 -0.1171875,0 -0.22265625,0 -0.22265625,0.1875 0,0.082031 0.046875,0.1171875 0.12890625,0.1171875 0.26953125,0 0.55078125,-0.035156 0.83203125,-0.035156 0.328125,0 0.66796872,0.035156 0.98437502,0.035156 0.058594,0 0.1875,0 0.1875,-0.1992188 0,-0.1054687 -0.1054688,-0.1054687 -0.2460938,-0.1054687 -0.4921875,0 -0.4921875,-0.070312 -0.4921875,-0.1640625 0,-0.1171875 0.421875,-1.74609379 0.4804688,-1.99218754 0.140625,0.29296875 0.4101562,0.6328125 0.9257812,0.6328125 1.1484375,0 2.4023438,-1.45312496 2.4023438,-2.91796876 0,-0.9375 -0.5742188,-1.59375 -1.3359375,-1.59375 -0.4921875,0 -0.9726563,0.3632813 -1.3007813,0.75 -0.09375,-0.5390625 -0.5273437,-0.75 -0.890625,-0.75 -0.45703122,0 -0.65624997,0.3867188 -0.73828122,0.5742188 -0.1875,0.3398437 -0.31640625,0.9375 -0.31640625,0.9609375 0,0.1054687 0.10546875,0.1054687 0.12890625,0.1054687 0.09375,0 0.10546875,-0.011719 0.1640625,-0.234375 0.1640625,-0.703125 0.36328125,-1.1835937 0.72656252,-1.1835937 0.1757812,0 0.3046875,0.082031 0.3046875,0.4570312 0,0.234375 -0.023437,0.3398438 -0.070312,0.5039063 z M 2.2025781,-3.1067109 c 0.070312,-0.2695313 0.3398438,-0.5507813 0.515625,-0.703125 0.3515625,-0.3046875 0.6328125,-0.375 0.8085938,-0.375 0.3984375,0 0.6328125,0.3515625 0.6328125,0.9375 0,0.5859375 -0.328125,1.734375 -0.5039063,2.109375 -0.3398437,0.70312496 -0.8203125,1.03124996 -1.1835937,1.03124996 -0.65625,0 -0.7851563,-0.83203125 -0.7851563,-0.890625 0,-0.0234375 0,-0.0351563 0.023437,-0.16406246 z m 0,0"
       style="fill:#000000;fill-opacity:1;fill-rule:nonzero;stroke:none"
       aria-label="p"
       transform="matrix(1.3333333,0,0,1.3333333,373.58667,538.904)" />
    <path
       id="path11"
       d="m 3.2931172,2.3893828 c 0,-0.035156 0,-0.046875 -0.1640625,-0.2226562 -1.2421875,-1.25390629 -1.5703125,-3.12890629 -1.5703125,-4.6640625 0,-1.7226563 0.3867187,-3.4570313 1.6054687,-4.7109375 0.1289063,-0.1171875 0.1289063,-0.1289063 0.1289063,-0.1640625 0,-0.070312 -0.035156,-0.1054688 -0.09375,-0.1054688 -0.1054688,0 -0.9960938,0.6796875 -1.5820313,1.9453125 -0.515625,1.1015625 -0.63281246,2.203125 -0.63281246,3.0351563 0,0.7851562 0.11718746,1.99218746 0.65624996,3.11718746 0.5976563,1.21875004 1.453125,1.87500004 1.5585938,1.87500004 0.058594,0 0.09375,-0.035156 0.09375,-0.1054688 z m 0,0"
       style="fill:#000000;fill-opacity:1;fill-rule:nonzero;stroke:none"
       aria-label="("
       transform="matrix(1.3333333,0,0,1.3333333,380.26933,538.904)" />
    <path
       id="path12"
       d="m 3.3273203,-3.0129609 c 0.058594,-0.2578125 0.2929688,-1.171875 0.984375,-1.171875 0.046875,0 0.2929688,0 0.5039063,0.1289062 -0.28125,0.046875 -0.4804688,0.3046875 -0.4804688,0.5390625 0,0.1640625 0.1054688,0.3515625 0.375,0.3515625 0.2226563,0 0.5390625,-0.1875 0.5390625,-0.5859375 0,-0.515625 -0.5859375,-0.65625 -0.9257812,-0.65625 -0.5742188,0 -0.9257813,0.5273438 -1.0429688,0.7617188 -0.2578125,-0.65625 -0.7851562,-0.7617188 -1.078125,-0.7617188 -1.0429687,0 -1.60546874,1.2890625 -1.60546874,1.5351563 0,0.1054687 0.10546875,0.1054687 0.1171875,0.1054687 0.0820313,0 0.1171875,-0.023437 0.12890625,-0.1171875 0.33984379,-1.0546875 0.99609379,-1.3007812 1.33593749,-1.3007812 0.1875,0 0.5390625,0.09375 0.5390625,0.6679687 0,0.3046875 -0.1640625,0.9726563 -0.5390625,2.3671875 -0.1523437,0.62109376 -0.5039062,1.04296876 -0.9492187,1.04296876 -0.058594,0 -0.28125004,0 -0.49218754,-0.12890625 0.24609375,-0.0585937 0.46875004,-0.26953125 0.46875004,-0.5390625 0,-0.26953121 -0.22265629,-0.35156251 -0.37500004,-0.35156251 -0.29296875,0 -0.5390625,0.25781251 -0.5390625,0.57421876 0,0.45703125 0.4921875,0.65625 0.93750004,0.65625 0.65625,0 1.0078125,-0.69140625 1.0429687,-0.75 0.1171875,0.36328125 0.4804688,0.75 1.078125,0.75 1.0195313,0 1.59375,-1.27734376 1.59375,-1.53515626 0,-0.09375 -0.09375,-0.09375 -0.1289062,-0.09375 -0.082031,0 -0.1054688,0.035156 -0.1289063,0.1054688 -0.328125,1.06640621 -0.9960937,1.31249996 -1.3242187,1.31249996 -0.3867188,0 -0.5390625,-0.328125 -0.5390625,-0.65625 0,-0.22265625 0.058594,-0.44531246 0.1640625,-0.87890626 z m 4.3945313,2.99999996 c 0,-0.65625 -0.2578125,-1.04296876 -0.6445313,-1.04296876 -0.328125,0 -0.5273437,0.24609376 -0.5273437,0.52734376 0,0.26953125 0.1992187,0.52734375 0.5273437,0.52734375 0.1171875,0 0.2460938,-0.03515625 0.3515625,-0.12890625 0.023437,-0.0234375 0.035156,-0.0351563 0.046875,-0.0351563 0.011719,0 0.023437,0.0117188 0.023437,0.15234375 0,0.73828125 -0.3515625,1.33593749 -0.6796875,1.66406249 -0.1054687,0.1054687 -0.1054687,0.1289062 -0.1054687,0.1640625 0,0.070312 0.046875,0.1054687 0.09375,0.1054687 0.1171875,0 0.9140625,-0.7617187 0.914063,-1.93359364 z M 14.95525,-3.7981172 c 0.04687,-0.140625 0.04687,-0.1523437 0.04687,-0.2226562 0,-0.1875 -0.140625,-0.2695313 -0.292969,-0.2695313 -0.105468,0 -0.257812,0.058594 -0.351562,0.1992188 -0.02344,0.058594 -0.09375,0.3632812 -0.140625,0.5390625 -0.07031,0.2578125 -0.140625,0.5273437 -0.199219,0.796875 l -0.445312,1.79296871 c -0.03516,0.15234375 -0.46875,0.85546875 -1.125,0.85546875 -0.503907,0 -0.621094,-0.4453125 -0.621094,-0.80859375 0,-0.45703121 0.175781,-1.07812501 0.515625,-1.95703121 0.152344,-0.4101563 0.199219,-0.515625 0.199219,-0.7148438 0,-0.4453125 -0.328125,-0.8203125 -0.820313,-0.8203125 -0.949219,0 -1.3125,1.453125 -1.3125,1.5351563 0,0.1054687 0.09375,0.1054687 0.117188,0.1054687 0.09375,0 0.105468,-0.023437 0.152343,-0.1875 0.269532,-0.9375 0.667969,-1.2304687 1.007813,-1.2304687 0.08203,0 0.257812,0 0.257812,0.3164062 0,0.2460938 -0.105468,0.515625 -0.175781,0.703125 -0.398437,1.0546875 -0.574219,1.6171875 -0.574219,2.0859375 0,0.89062501 0.621094,1.18359376 1.21875,1.18359376 0.386719,0 0.726563,-0.1640625 0.996094,-0.4453125 -0.128906,0.515625 -0.246094,1.0078125 -0.644531,1.53515624 -0.257813,0.3398438 -0.632813,0.6328125 -1.089844,0.6328125 -0.140625,0 -0.597656,-0.035156 -0.761719,-0.421875 0.164063,0 0.292969,0 0.433594,-0.1171875 0.09375,-0.09375 0.199219,-0.2226562 0.199219,-0.41015624 0,-0.31640625 -0.269531,-0.3515625 -0.375,-0.3515625 -0.222656,0 -0.550781,0.1640625 -0.550781,0.64453124 0,0.5039063 0.433593,0.8671875 1.054687,0.8671875 1.019531,0 2.050781,-0.9023437 2.332031,-2.02734374 z m 2.431641,3.78515626 c 0,-0.65625 -0.257813,-1.04296876 -0.644532,-1.04296876 -0.328125,0 -0.527343,0.24609376 -0.527343,0.52734376 0,0.26953125 0.199218,0.52734375 0.527343,0.52734375 0.117188,0 0.246094,-0.03515625 0.351563,-0.12890625 0.02344,-0.0234375 0.03516,-0.0351563 0.04687,-0.0351563 0.01172,0 0.02344,0.0117188 0.02344,0.15234375 0,0.73828125 -0.351562,1.33593749 -0.679687,1.66406249 -0.105469,0.1054687 -0.105469,0.1289062 -0.105469,0.1640625 0,0.070312 0.04687,0.1054687 0.09375,0.1054687 0.117188,0 0.914063,-0.7617187 0.914063,-1.93359369 z m 3.726562,-0.8203125 c 0.539063,-0.57421876 0.832031,-0.82031246 1.183594,-1.12499996 0,-0.011719 0.621094,-0.5390625 0.984375,-0.9023438 0.9375,-0.9257812 1.160156,-1.40625 1.160156,-1.4414062 0,-0.1054688 -0.09375,-0.1054688 -0.105469,-0.1054688 -0.07031,0 -0.105468,0.023437 -0.152343,0.1171875 -0.304688,0.46875 -0.503907,0.6328125 -0.75,0.6328125 -0.234375,0 -0.351563,-0.1523437 -0.503907,-0.3164062 -0.1875,-0.234375 -0.363281,-0.4335938 -0.691406,-0.4335938 -0.75,0 -1.207031,0.9257813 -1.207031,1.1367188 0,0.046875 0.03516,0.1171875 0.117187,0.1171875 0.09375,0 0.117188,-0.058594 0.140625,-0.1171875 0.1875,-0.4570313 0.761719,-0.46875 0.84375,-0.46875 0.210938,0 0.398438,0.070312 0.621094,0.1523437 0.398438,0.1523438 0.515625,0.1523438 0.773438,0.1523438 -0.363282,0.421875 -1.195313,1.1367187 -1.382813,1.3007812 l -0.902344,0.8320313 c -0.679687,0.66796871 -1.019531,1.24218746 -1.019531,1.31249996 0,0.09375 0.09375,0.09375 0.117188,0.09375 0.08203,0 0.09375,-0.01171875 0.152343,-0.12890625 0.234375,-0.33984375 0.527344,-0.609375 0.855469,-0.609375 0.222656,0 0.328125,0.0820313 0.574219,0.375 0.164062,0.2109375 0.351562,0.36328125 0.632812,0.36328125 0.984375,0 1.570313,-1.26562496 1.570313,-1.53515626 0,-0.046875 -0.04687,-0.09375 -0.117188,-0.09375 -0.09375,0 -0.117187,0.058594 -0.140625,0.1289063 -0.234375,0.64453121 -0.867187,0.83203121 -1.195312,0.83203121 -0.199219,0 -0.386719,-0.0585938 -0.585938,-0.12890625 -0.339843,-0.12890625 -0.492187,-0.1640625 -0.703125,-0.1640625 -0.02344,0 -0.175781,0 -0.269531,0.0234375 z m 0,0"
       style="fill:#000000;fill-opacity:1;fill-rule:nonzero;stroke:none"
       aria-label="x,y,z"
       transform="matrix(1.3333333,0,0,1.3333333,385.43467,538.904)" />
    <path
       id="path13"
       d="m 2.8832656,-2.4973359 c 0,-0.7734375 -0.1171875,-1.9804688 -0.65625,-3.1054688 -0.5976562,-1.21875 -1.46484372,-1.875 -1.55859372,-1.875 -0.0585938,0 -0.10546875,0.046875 -0.10546875,0.1054688 0,0.035156 0,0.046875 0.19921875,0.234375 0.97265622,0.984375 1.53515622,2.5664062 1.53515622,4.640625 0,1.71093746 -0.3632812,3.45703121 -1.59374997,4.7226562 -0.140625,0.1171875 -0.140625,0.1289063 -0.140625,0.1640625 0,0.058594 0.046875,0.1054688 0.10546875,0.1054688 0.09375,0 0.99609372,-0.6796875 1.58203122,-1.94531254 0.5039063,-1.1015625 0.6328125,-2.20312496 0.6328125,-3.04687496 z m 0,0"
       style="fill:#000000;fill-opacity:1;fill-rule:nonzero;stroke:none"
       aria-label=")"
       transform="matrix(1.3333333,0,0,1.3333333,418.58533,538.904)" />
    <path
       id="path14"
       d="m 173.06969,42.5202 c 0,1.65071 -1.33814,2.98883 -2.98883,2.98883 -1.65071,0 -2.98883,-1.33812 -2.98883,-2.98883 0,-1.65071 1.33812,-2.98883 2.98883,-2.98883 1.65069,0 2.98883,1.33812 2.98883,2.98883 z"
       style="fill:#000000;fill-opacity:1;fill-rule:nonzero;stroke:none"
       transform="matrix(1.3333333,0,0,-1.3333333,312.2,467.55467)" />
    <path
       id="path15"
       d="m 0.44435937,1.2199766 c -0.0820313,0.3398437 -0.09375,0.4101562 -0.5390625,0.4101562 -0.1171875,0 -0.22265625,0 -0.22265625,0.1875 0,0.082031 0.046875,0.1171875 0.12890625,0.1171875 0.26953125,0 0.55078125,-0.035156 0.83203125,-0.035156 0.328125,0 0.66796878,0.035156 0.98437498,0.035156 0.058594,0 0.1875,0 0.1875,-0.1992187 0,-0.1054688 -0.1054687,-0.1054688 -0.2460937,-0.1054688 -0.4921875,0 -0.4921875,-0.070312 -0.4921875,-0.1640625 0,-0.1171875 0.421875,-1.74609374 0.4804687,-1.99218749 0.140625,0.29296875 0.4101563,0.6328125 0.9257813,0.6328125 1.1484375,0 2.4023437,-1.45312501 2.4023437,-2.91796871 0,-0.9375 -0.5742187,-1.59375 -1.3359375,-1.59375 -0.4921875,0 -0.9726562,0.3632812 -1.3007812,0.75 -0.09375,-0.5390625 -0.5273438,-0.75 -0.890625,-0.75 -0.45703128,0 -0.65625003,0.3867187 -0.73828128,0.5742187 -0.1875,0.3398438 -0.31640625,0.9375 -0.31640625,0.9609375 0,0.1054688 0.10546875,0.1054688 0.12890625,0.1054688 0.09375,0 0.10546875,-0.011719 0.1640625,-0.234375 0.1640625,-0.703125 0.36328125,-1.1835938 0.72656248,-1.1835938 0.1757813,0 0.3046875,0.082031 0.3046875,0.4570313 0,0.234375 -0.023437,0.3398437 -0.070312,0.5039062 z M 2.2021719,-3.1042422 c 0.070312,-0.2695312 0.3398437,-0.5507812 0.515625,-0.703125 0.3515625,-0.3046875 0.6328125,-0.375 0.8085937,-0.375 0.3984375,0 0.6328125,0.3515625 0.6328125,0.9375 0,0.5859375 -0.328125,1.734375 -0.5039062,2.109375 -0.3398438,0.70312501 -0.8203125,1.03125001 -1.1835938,1.03125001 -0.65625,0 -0.7851562,-0.83203125 -0.7851562,-0.890625 0,-0.0234375 0,-0.0351562 0.023437,-0.16406251 z m 0,0"
       style="fill:#000000;fill-opacity:1;fill-rule:nonzero;stroke:none"
       aria-label="p"
       transform="matrix(1.3333333,0,0,1.3333333,543.66533,425.54133)" />
    <path
       id="path16"
       d="m 2.0270859,-3.2919766 c 0.046875,-0.1171875 0.058594,-0.1757812 0.058594,-0.2226562 0,-0.2109375 -0.1992188,-0.3867188 -0.4101563,-0.3867188 -0.2695312,0 -0.3515625,0.2226563 -0.3867187,0.328125 l -0.91406251,3.02343754 c -0.0117188,0.0117188 -0.0351563,0.10546875 -0.0351563,0.1171875 0,0.0820313 0.2109375,0.15234375 0.26953125,0.15234375 0.046875,0 0.0585938,-0.0234375 0.10546875,-0.12890625 z m 0,0"
       style="fill:#000000;fill-opacity:1;fill-rule:nonzero;stroke:none"
       aria-label="0"
       transform="matrix(1.3333333,0,0,1.3333333,550.348,420.72133)" />
    <path
       id="path17"
       d="m 3.2926328,2.3918516 c 0,-0.035156 0,-0.046875 -0.1640625,-0.2226563 -1.2421875,-1.25390624 -1.5703125,-3.12890624 -1.5703125,-4.6640625 0,-1.7226562 0.3867188,-3.4570312 1.6054688,-4.7109375 0.1289062,-0.1171875 0.1289062,-0.1289062 0.1289062,-0.1640625 0,-0.070312 -0.035156,-0.1054687 -0.09375,-0.1054687 -0.1054687,0 -0.9960937,0.6796875 -1.5820312,1.9453125 -0.515625,1.1015625 -0.63281254,2.203125 -0.63281254,3.0351562 0,0.7851563 0.11718754,1.99218751 0.65625004,3.11718751 0.5976562,1.21874999 1.453125,1.87499999 1.5585937,1.87499999 0.058594,0 0.09375,-0.035156 0.09375,-0.1054687 z m 0,0"
       style="fill:#000000;fill-opacity:1;fill-rule:nonzero;stroke:none"
       aria-label="("
       transform="matrix(1.3333333,0,0,1.3333333,554.07467,425.54133)" />
    <path
       id="path18"
       d="m 3.3268359,-3.0104922 c 0.058594,-0.2578125 0.2929688,-1.171875 0.984375,-1.171875 0.046875,0 0.2929688,0 0.5039063,0.1289063 -0.28125,0.046875 -0.4804688,0.3046875 -0.4804688,0.5390625 0,0.1640625 0.1054688,0.3515625 0.375,0.3515625 0.2226563,0 0.5390625,-0.1875 0.5390625,-0.5859375 0,-0.515625 -0.5859375,-0.65625 -0.9257812,-0.65625 -0.5742188,0 -0.9257813,0.5273437 -1.0429688,0.7617187 -0.2578125,-0.65625 -0.7851562,-0.7617187 -1.078125,-0.7617187 -1.0429687,0 -1.60546871,1.2890625 -1.60546871,1.5351562 0,0.1054688 0.10546875,0.1054688 0.1171875,0.1054688 0.0820313,0 0.1171875,-0.023437 0.12890625,-0.1171875 0.33984376,-1.0546875 0.99609376,-1.3007813 1.33593746,-1.3007813 0.1875,0 0.5390625,0.09375 0.5390625,0.6679688 0,0.3046875 -0.1640625,0.9726562 -0.5390625,2.3671875 -0.1523437,0.62109371 -0.5039062,1.04296871 -0.9492187,1.04296871 -0.058594,0 -0.28125001,0 -0.49218751,-0.12890625 0.24609375,-0.0585938 0.46875001,-0.26953125 0.46875001,-0.5390625 0,-0.26953126 -0.22265626,-0.35156246 -0.37500001,-0.35156246 -0.29296875,0 -0.5390625,0.25781246 -0.5390625,0.57421871 0,0.45703125 0.4921875,0.65625 0.93750001,0.65625 0.65625,0 1.0078125,-0.69140625 1.0429687,-0.75 0.1171875,0.36328125 0.4804688,0.75 1.078125,0.75 1.0195313,0 1.59375,-1.27734371 1.59375,-1.53515621 0,-0.09375 -0.09375,-0.09375 -0.1289062,-0.09375 -0.082031,0 -0.1054688,0.035156 -0.1289063,0.1054687 -0.328125,1.06640626 -0.9960937,1.31250001 -1.3242187,1.31250001 -0.3867188,0 -0.5390625,-0.328125 -0.5390625,-0.65625 0,-0.22265625 0.058594,-0.44531251 0.1640625,-0.87890621 z m 0,0"
       style="fill:#000000;fill-opacity:1;fill-rule:nonzero;stroke:none"
       aria-label="x"
       transform="matrix(1.3333333,0,0,1.3333333,559.24,425.54133)" />
    <path
       id="path19"
       d="m 2.0273672,-3.2919766 c 0.046875,-0.1171875 0.058594,-0.1757812 0.058594,-0.2226562 0,-0.2109375 -0.1992187,-0.3867188 -0.4101562,-0.3867188 -0.2695313,0 -0.3515625,0.2226563 -0.3867188,0.328125 l -0.91406246,3.02343754 c -0.0117188,0.0117188 -0.0351563,0.10546875 -0.0351563,0.1171875 0,0.0820313 0.2109375,0.15234375 0.26953125,0.15234375 0.046875,0 0.0585938,-0.0234375 0.10546875,-0.12890625 z m 0,0"
       style="fill:#000000;fill-opacity:1;fill-rule:nonzero;stroke:none"
       aria-label="0"
       transform="matrix(1.3333333,0,0,1.3333333,566.832,420.72133)" />
    <path
       id="path20"
       d="m 2.0272891,-0.01049219 c 0,-0.65625 -0.2578125,-1.04296871 -0.6445313,-1.04296871 -0.328125,0 -0.52734374,0.24609371 -0.52734374,0.52734371 0,0.26953125 0.19921874,0.52734375 0.52734374,0.52734375 0.1171875,0 0.2460938,-0.03515625 0.3515625,-0.12890625 0.023437,-0.0234375 0.035156,-0.0351563 0.046875,-0.0351563 0.011719,0 0.023437,0.0117188 0.023437,0.15234375 0,0.73828125 -0.3515625,1.33593754 -0.6796875,1.66406254 -0.1054687,0.1054688 -0.1054687,0.1289063 -0.1054687,0.1640625 0,0.070312 0.046875,0.1054688 0.09375,0.1054688 0.1171875,0 0.9140625,-0.7617189 0.914063,-1.93359379 z M 9.2606875,-3.7956484 c 0.046875,-0.140625 0.046875,-0.1523438 0.046875,-0.2226563 0,-0.1875 -0.140625,-0.2695312 -0.2929687,-0.2695312 -0.1054688,0 -0.2578125,0.058594 -0.3515625,0.1992187 -0.023437,0.058594 -0.09375,0.3632813 -0.140625,0.5390625 -0.070312,0.2578125 -0.140625,0.5273438 -0.1992188,0.796875 L 7.877875,-0.95971094 c -0.035156,0.15234375 -0.46875,0.85546875 -1.125,0.85546875 -0.5039062,0 -0.6210937,-0.4453125 -0.6210937,-0.80859375 0,-0.45703126 0.1757812,-1.07812496 0.515625,-1.95703126 0.1523437,-0.4101562 0.1992187,-0.515625 0.1992187,-0.7148437 0,-0.4453125 -0.328125,-0.8203125 -0.8203125,-0.8203125 -0.9492187,0 -1.3125,1.453125 -1.3125,1.5351562 0,0.1054688 0.09375,0.1054688 0.1171875,0.1054688 0.09375,0 0.1054688,-0.023437 0.1523438,-0.1875 0.2695312,-0.9375 0.6679687,-1.2304688 1.0078125,-1.2304688 0.082031,0 0.2578125,0 0.2578125,0.3164063 0,0.2460937 -0.1054688,0.515625 -0.1757813,0.703125 -0.3984375,1.0546875 -0.5742187,1.6171875 -0.5742187,2.0859375 0,0.89062496 0.6210937,1.18359371 1.21875,1.18359371 0.3867187,0 0.7265625,-0.1640625 0.9960937,-0.4453125 -0.1289062,0.515625 -0.2460937,1.0078125 -0.6445312,1.53515629 -0.2578125,0.3398437 -0.6328125,0.6328125 -1.0898438,0.6328125 -0.140625,0 -0.5976562,-0.035156 -0.7617187,-0.421875 0.1640625,0 0.2929687,0 0.4335937,-0.1171875 0.09375,-0.09375 0.1992188,-0.2226563 0.1992188,-0.41015629 0,-0.31640625 -0.2695313,-0.3515625 -0.375,-0.3515625 -0.2226563,0 -0.5507813,0.1640625 -0.5507813,0.64453129 0,0.5039062 0.4335938,0.8671875 1.0546875,0.8671875 1.0195313,0 2.0507813,-0.9023438 2.3320313,-2.02734379 z m 0,0"
       style="fill:#000000;fill-opacity:1;fill-rule:nonzero;stroke:none"
       aria-label=",y"
       transform="matrix(1.3333333,0,0,1.3333333,570.55867,425.54133)" />
    <path
       id="path21"
       d="m 2.0281875,-3.2919766 c 0.046875,-0.1171875 0.058594,-0.1757812 0.058594,-0.2226562 0,-0.2109375 -0.1992188,-0.3867188 -0.4101563,-0.3867188 -0.2695312,0 -0.3515625,0.2226563 -0.3867187,0.328125 l -0.91406255,3.02343754 c -0.0117188,0.0117188 -0.0351563,0.10546875 -0.0351563,0.1171875 0,0.0820313 0.2109375,0.15234375 0.26953125,0.15234375 0.046875,0 0.0585938,-0.0234375 0.10546875,-0.12890625 z m 0,0"
       style="fill:#000000;fill-opacity:1;fill-rule:nonzero;stroke:none"
       aria-label="0"
       transform="matrix(1.3333333,0,0,1.3333333,583.452,420.72133)" />
    <path
       id="path22"
       d="m 2.0281094,-0.01049219 c 0,-0.65625 -0.2578125,-1.04296871 -0.6445313,-1.04296871 -0.328125,0 -0.52734373,0.24609371 -0.52734373,0.52734371 0,0.26953125 0.19921873,0.52734375 0.52734373,0.52734375 0.1171875,0 0.2460938,-0.03515625 0.3515625,-0.12890625 0.023437,-0.0234375 0.035156,-0.0351563 0.046875,-0.0351563 0.011719,0 0.023437,0.0117188 0.023437,0.15234375 0,0.73828125 -0.3515625,1.33593754 -0.6796875,1.66406254 -0.1054687,0.1054688 -0.1054687,0.1289063 -0.1054687,0.1640625 0,0.070312 0.046875,0.1054688 0.09375,0.1054688 0.1171875,0 0.9140625,-0.7617189 0.914063,-1.93359379 z m 3.7177734,-0.8203125 C 6.2849453,-1.4050234 6.5779141,-1.6511172 6.9294766,-1.9558047 c 0,-0.011719 0.6210937,-0.5390625 0.984375,-0.9023437 0.9375,-0.9257813 1.1601562,-1.40625 1.1601562,-1.4414063 0,-0.1054687 -0.09375,-0.1054687 -0.1054687,-0.1054687 -0.070312,0 -0.1054688,0.023437 -0.1523438,0.1171875 -0.3046875,0.46875 -0.5039062,0.6328125 -0.75,0.6328125 -0.234375,0 -0.3515625,-0.1523438 -0.5039062,-0.3164063 -0.1875,-0.234375 -0.3632813,-0.4335937 -0.6914063,-0.4335937 -0.75,0 -1.2070312,0.9257812 -1.2070312,1.1367187 0,0.046875 0.035156,0.1171875 0.1171875,0.1171875 0.09375,0 0.1171875,-0.058594 0.140625,-0.1171875 0.1875,-0.4570312 0.7617187,-0.46875 0.84375,-0.46875 0.2109375,0 0.3984375,0.070312 0.6210937,0.1523438 0.3984375,0.1523437 0.515625,0.1523437 0.7734375,0.1523437 -0.3632812,0.421875 -1.1953125,1.1367188 -1.3828125,1.3007813 l -0.9023437,0.8320312 c -0.6796875,0.66796876 -1.0195313,1.24218751 -1.0195313,1.31250001 0,0.09375 0.09375,0.09375 0.1171875,0.09375 0.082031,0 0.09375,-0.01171875 0.1523438,-0.12890625 0.234375,-0.33984375 0.5273437,-0.609375 0.8554687,-0.609375 0.2226563,0 0.328125,0.0820313 0.5742188,0.375 0.1640625,0.2109375 0.3515625,0.36328125 0.6328125,0.36328125 0.984375,0 1.5703125,-1.26562501 1.5703125,-1.53515621 0,-0.046875 -0.046875,-0.09375 -0.1171875,-0.09375 -0.09375,0 -0.1171875,0.058594 -0.140625,0.1289062 -0.234375,0.64453126 -0.8671875,0.83203126 -1.1953125,0.83203126 -0.1992188,0 -0.3867188,-0.0585938 -0.5859375,-0.12890625 -0.3398438,-0.12890625 -0.4921875,-0.1640625 -0.703125,-0.1640625 -0.023437,0 -0.1757813,0 -0.2695313,0.0234375 z m 0,0"
       style="fill:#000000;fill-opacity:1;fill-rule:nonzero;stroke:none"
       aria-label=",z"
       transform="matrix(1.3333333,0,0,1.3333333,587.17867,425.54133)" />
    <path
       id="path23"
       d="m 2.0271563,-3.2919766 c 0.046875,-0.1171875 0.058594,-0.1757812 0.058594,-0.2226562 0,-0.2109375 -0.1992187,-0.3867188 -0.4101562,-0.3867188 -0.2695313,0 -0.3515625,0.2226563 -0.3867188,0.328125 l -0.9140625,3.02343754 c -0.0117188,0.0117188 -0.0351563,0.10546875 -0.0351563,0.1171875 0,0.0820313 0.2109375,0.15234375 0.26953125,0.15234375 0.046875,0 0.0585938,-0.0234375 0.10546875,-0.12890625 z m 0,0"
       style="fill:#000000;fill-opacity:1;fill-rule:nonzero;stroke:none"
       aria-label="0"
       transform="matrix(1.3333333,0,0,1.3333333,599.844,420.72133)" />
    <path
       id="path24"
       d="m 2.8825469,-2.4948672 c 0,-0.7734375 -0.1171875,-1.9804687 -0.65625,-3.1054687 -0.5976563,-1.21875 -1.46484377,-1.875 -1.55859377,-1.875 -0.0585938,0 -0.10546875,0.046875 -0.10546875,0.1054687 0,0.035156 0,0.046875 0.19921875,0.234375 0.97265627,0.984375 1.53515627,2.5664063 1.53515627,4.640625 0,1.71093751 -0.3632813,3.45703126 -1.59375002,4.7226563 -0.140625,0.1171875 -0.140625,0.1289062 -0.140625,0.1640625 0,0.058594 0.046875,0.1054687 0.10546875,0.1054687 0.09375,0 0.99609377,-0.6796875 1.58203127,-1.94531249 0.5039062,-1.1015625 0.6328125,-2.20312501 0.6328125,-3.04687501 z m 0,0"
       style="fill:#000000;fill-opacity:1;fill-rule:nonzero;stroke:none"
       aria-label=")"
       transform="matrix(1.3333333,0,0,1.3333333,603.57067,425.54133)" />
    <path
       id="path25"
       d="M 42.5202,-42.5202 H 166.44446"
       style="fill:none;stroke:#ff0000;stroke-width:1.49442;stroke-linecap:butt;stroke-linejoin:miter;stroke-miterlimit:10;stroke-dasharray:2.98883, 2.98883;stroke-dashoffset:0;stroke-opacity:1"
       transform="matrix(1.3333333,0,0,-1.3333333,312.2,467.55467)" />
    <path
       id="path26"
       d="M 3.63638,0 -2.18182,2.9091 0,0 -2.18182,-2.9091"
       style="fill:#ff0000;fill-opacity:1;fill-rule:nonzero;stroke:none"
       transform="matrix(1.3333333,0,0,-1.3333333,534.12595,524.24827)" />
    <path
       id="path27"
       d="m 4.2541797,-6.046375 c 0.070312,-0.28125 0.1054687,-0.3398438 0.234375,-0.3632813 0.082031,-0.023437 0.4101562,-0.023437 0.6210937,-0.023437 1.0078125,0 1.453125,0.035156 1.453125,0.8203125 0,0.140625 -0.035156,0.5273438 -0.082031,0.796875 0,0.035156 -0.023437,0.1523438 -0.023437,0.1875 0,0.058594 0.023437,0.1289063 0.1171875,0.1289063 0.1054687,0 0.1289062,-0.082031 0.1523437,-0.234375 L 6.9963672,-6.46825 c 0.011719,-0.035156 0.011719,-0.140625 0.011719,-0.1640625 0,-0.1054688 -0.09375,-0.1054688 -0.2695312,-0.1054688 H 1.2190234 c -0.24609371,0 -0.25781246,0 -0.31640621,0.1992188 l -0.59765625,1.7460937 c -0.0117188,0.023437 -0.0703125,0.1640625 -0.0703125,0.1757813 0,0.070312 0.0585938,0.1171875 0.12890625,0.1171875 0.09375,0 0.10546875,-0.046875 0.1640625,-0.2109375 0.53906251,-1.546875 0.79687501,-1.7226563 2.27343751,-1.7226563 h 0.3867187 c 0.28125,0 0.28125,0.035156 0.28125,0.1171875 0,0.058594 -0.035156,0.1757813 -0.046875,0.2109375 l -1.3242187,5.32031255 c -0.09375,0.36328125 -0.1289063,0.48046875 -1.19531251,0.48046875 -0.3515625,0 -0.41015625,0 -0.41015625,0.1875 C 0.49246094,5e-4 0.59792969,5e-4 0.65652344,5e-4 c 0.26953125,0 0.55078126,-0.0234375 0.82031246,-0.0234375 0.28125,0 0.5625,-0.01171875 0.84375,-0.01171875 0.28125,0 0.5625,0.01171875 0.8320313,0.01171875 0.28125,0 0.5859375,0.0234375 0.8671875,0.0234375 0.09375,0 0.2109375,0 0.2109375,-0.19921875 0,-0.10546875 -0.082031,-0.10546875 -0.3398438,-0.10546875 -0.2460937,0 -0.375,0 -0.6328125,-0.0234375 -0.2929687,-0.0351563 -0.3632812,-0.0585938 -0.3632812,-0.22265625 0,-0.0117188 0,-0.0585938 0.035156,-0.2109375 z m 0,0"
       style="fill:#ff0000;fill-opacity:1;fill-rule:nonzero;stroke:none"
       aria-label="T"
       transform="matrix(1.3333333,0,0,1.3333333,446.70667,538.74933)" />
    <path
       id="path28"
       d="m 1.7339375,-0.73764063 c -0.070312,0.234375 -0.2929688,0.609375 -0.65625,0.609375 -0.023437,0 -0.22265625,0 -0.375,-0.09375 0.28125,-0.09375 0.3046875,-0.33984375 0.3046875,-0.38671875 0,-0.15234375 -0.1171875,-0.2578125 -0.28125,-0.2578125 -0.1875,0 -0.38671875,0.1640625 -0.38671875,0.43359375 0,0.33984375 0.38671875,0.50390625 0.72656245,0.50390625 0.3164063,0 0.609375,-0.19921875 0.7851563,-0.4921875 0.1640625,0.36328125 0.5507812,0.4921875 0.8203125,0.4921875 0.8085937,0 1.2304687,-0.8671875 1.2304687,-1.06640625 0,-0.09375 -0.09375,-0.09375 -0.1054687,-0.09375 -0.1054688,0 -0.1054688,0.035156 -0.140625,0.11718744 -0.140625,0.48046875 -0.5625,0.84375 -0.9492188,0.84375 -0.28125,0 -0.421875,-0.1875 -0.421875,-0.4453125 0,-0.1875 0.1640625,-0.82031244 0.3632813,-1.59374994 0.1289062,-0.5390625 0.4453125,-0.7148438 0.6796875,-0.7148438 0.011719,0 0.2226562,0 0.375,0.1054688 -0.2226563,0.058594 -0.3046875,0.2578125 -0.3046875,0.375 0,0.1523437 0.1171875,0.2578125 0.28125,0.2578125 0.1523437,0 0.3867187,-0.1289063 0.3867187,-0.421875 0,-0.3867188 -0.4453125,-0.5039063 -0.7265625,-0.5039063 -0.3515625,0 -0.6328125,0.2226563 -0.7851562,0.4921875 -0.1171875,-0.2929687 -0.4453125,-0.4921875 -0.8320313,-0.4921875 -0.7851562,0 -1.2304687,0.8554688 -1.2304687,1.0664063 0,0.082031 0.10546875,0.082031 0.1171875,0.082031 0.09375,0 0.10546875,-0.023437 0.140625,-0.1171875 0.17578125,-0.5390625 0.609375,-0.84375 0.9492187,-0.84375 0.234375,0 0.421875,0.1289063 0.421875,0.46875 0,0.1289063 -0.082031,0.4804688 -0.1523437,0.7148438 z m 0,0"
       style="fill:#ff0000;fill-opacity:1;fill-rule:nonzero;stroke:none"
       aria-label="x"
       transform="matrix(1.3333333,0,0,1.3333333,454.46933,540.74133)" />
    <path
       id="path29"
       d="m 170.08086,-42.5202 v 81.404"
       style="fill:none;stroke:#ff0000;stroke-width:1.49442;stroke-linecap:butt;stroke-linejoin:miter;stroke-miterlimit:10;stroke-dasharray:2.98883, 2.98883;stroke-dashoffset:0;stroke-opacity:1"
       transform="matrix(1.3333333,0,0,-1.3333333,312.2,467.55467)" />
    <path
       id="path30"
       d="M 3.63638,0 -2.18182,2.9091 0,0 -2.18182,-2.9091"
       style="fill:#ff0000;fill-opacity:1;fill-rule:nonzero;stroke:none"
       transform="matrix(0,-1.3333333,-1.3333333,0,538.97448,415.7096)" />
    <path
       id="path31"
       d="m 4.2528047,-6.0483203 c 0.070312,-0.28125 0.1054687,-0.3398438 0.234375,-0.3632813 0.082031,-0.023437 0.4101562,-0.023437 0.6210937,-0.023437 1.0078125,0 1.453125,0.035156 1.453125,0.8203125 0,0.140625 -0.035156,0.5273438 -0.082031,0.796875 0,0.035156 -0.023437,0.1523438 -0.023437,0.1875 0,0.058594 0.023437,0.1289063 0.1171875,0.1289063 0.1054687,0 0.1289062,-0.082031 0.1523437,-0.234375 l 0.2695313,-1.734375 c 0.011719,-0.035156 0.011719,-0.140625 0.011719,-0.1640625 0,-0.1054688 -0.09375,-0.1054688 -0.2695312,-0.1054688 H 1.2176484 c -0.24609371,0 -0.25781246,0 -0.31640621,0.1992188 l -0.59765625,1.7460937 c -0.0117188,0.023437 -0.0703125,0.1640625 -0.0703125,0.1757813 0,0.070312 0.0585938,0.1171875 0.12890625,0.1171875 0.09375,0 0.10546875,-0.046875 0.1640625,-0.2109375 0.53906251,-1.546875 0.79687501,-1.7226563 2.27343751,-1.7226563 h 0.3867187 c 0.28125,0 0.28125,0.035156 0.28125,0.1171875 0,0.058594 -0.035156,0.1757813 -0.046875,0.2109375 l -1.3242187,5.32031254 c -0.09375,0.36328125 -0.1289063,0.48046875 -1.19531251,0.48046875 -0.3515625,0 -0.41015625,0 -0.41015625,0.1875 0,0.1171875 0.10546875,0.1171875 0.1640625,0.1171875 0.26953125,0 0.55078126,-0.0234375 0.82031246,-0.0234375 0.28125,0 0.5625,-0.01171875 0.84375,-0.01171875 0.28125,0 0.5625,0.01171875 0.8320313,0.01171875 0.28125,0 0.5859375,0.0234375 0.8671875,0.0234375 0.09375,0 0.2109375,0 0.2109375,-0.19921875 0,-0.10546875 -0.082031,-0.10546875 -0.3398438,-0.10546875 -0.2460937,0 -0.375,0 -0.6328125,-0.0234375 -0.2929687,-0.0351563 -0.3632812,-0.0585938 -0.3632812,-0.22265625 0,-0.0117188 0,-0.0585938 0.035156,-0.2109375 z m 0,0"
       style="fill:#ff0000;fill-opacity:1;fill-rule:nonzero;stroke:none"
       aria-label="T"
       transform="matrix(1.3333333,0,0,1.3333333,544.396,470.19333)" />
    <path
       id="path32"
       d="m 3.8780938,-2.624375 c 0.023437,-0.1054688 0.023437,-0.1171875 0.023437,-0.1523438 0,-0.140625 -0.1054688,-0.2226562 -0.2226563,-0.2226562 -0.082031,0 -0.2109375,0.035156 -0.2929687,0.1640625 -0.023437,0.035156 -0.070312,0.2578125 -0.1054688,0.3984375 l -0.1523437,0.5859375 c -0.035156,0.1640625 -0.2578125,1.04296875 -0.28125,1.125 0,0 -0.3046875,0.59765625 -0.8554688,0.59765625 -0.46875,0 -0.46875,-0.4453125 -0.46875,-0.57421875 0,-0.375 0.1523438,-0.8203125 0.3632813,-1.359375 0.082031,-0.2226563 0.1171875,-0.3046875 0.1171875,-0.421875 0,-0.328125 -0.28125,-0.5859375 -0.65625,-0.5859375 -0.70312505,0 -1.0195313,0.9492187 -1.0195313,1.0664062 0,0.082031 0.09375,0.082031 0.1171875,0.082031 0.09375,0 0.10546875,-0.035156 0.12890625,-0.1054688 0.17578125,-0.5859375 0.46875005,-0.8554687 0.75000005,-0.8554687 0.1171875,0 0.1757812,0.082031 0.1757812,0.2460937 0,0.1640625 -0.058594,0.3164063 -0.09375,0.4101563 -0.3398437,0.84375 -0.41015625,1.1015625 -0.41015625,1.40625 0,0.1171875 0,0.4453125 0.26953125,0.6796875 0.2226563,0.17578125 0.515625,0.2109375 0.703125,0.2109375 0.28125,0 0.5273438,-0.10546875 0.7617188,-0.31640625 -0.09375,0.38671875 -0.1757813,0.6796875 -0.46875,1.03125 -0.1875,0.2109375 -0.4570313,0.44531245 -0.8320313,0.44531245 -0.046875,0 -0.375,0 -0.52734375,-0.23437495 C 1.2765313,0.9615625 1.2765313,0.62171875 1.2765313,0.61 1.2765313,0.38734375 1.0773125,0.3521875 1.007,0.3521875 c -0.17578125,0 -0.3984375,0.140625 -0.3984375,0.45703125 0,0.35156245 0.328125,0.60937495 0.8320313,0.60937495 0.703125,0 1.5585937,-0.53906245 1.7695312,-1.40624995 z m 0,0"
       style="fill:#ff0000;fill-opacity:1;fill-rule:nonzero;stroke:none"
       aria-label="y"
       transform="matrix(1.3333333,0,0,1.3333333,552.15733,472.18667)" />
    <path
       id="path33"
       d="M -42.5202,-42.5202 H 42.5202 L 0,42.5202 Z"
       style="fill:none;stroke:#808080;stroke-width:0.3985;stroke-linecap:butt;stroke-linejoin:miter;stroke-miterlimit:10;stroke-dasharray:none;stroke-opacity:1"
       transform="matrix(1.3333333,0,0,-1.3333333,312.2,467.55467)" />
    <path
       id="path34"
       d="m 85.04042,42.5202 h 85.04044 l -42.52024,85.04042 z"
       style="fill:none;stroke:#808080;stroke-width:0.3985;stroke-linecap:butt;stroke-linejoin:miter;stroke-miterlimit:10;stroke-dasharray:none;stroke-opacity:1"
       transform="matrix(1.3333333,0,0,-1.3333333,312.2,467.55467)" />
  </g>
</svg>
