<svg xmlns="http://www.w3.org/2000/svg" width="408.812" height="410.266"><path d="M-85.04 0h296.934" style="fill:none;stroke:#000;stroke-width:.79701;stroke-linecap:butt;stroke-linejoin:miter;stroke-miterlimit:10;stroke-dasharray:none;stroke-opacity:1" transform="matrix(1.33333 0 0 -1.33333 113.387 296.879)"/><path d="M-1.554 2.072C-1.424 1.295 0 .13.389 0 0-.13-1.425-1.295-1.554-2.072" style="fill:none;stroke:#000;stroke-width:.6376;stroke-linecap:round;stroke-linejoin:round;stroke-miterlimit:10;stroke-dasharray:none;stroke-opacity:1" transform="matrix(1.33333 0 0 -1.33333 395.912 296.879)"/><path d="M3.329-3.012c.058-.258.293-1.172.984-1.172.047 0 .293 0 .504.129-.281.047-.48.305-.48.539 0 .164.105.351.375.351.222 0 .539-.187.539-.585 0-.516-.586-.657-.926-.657-.574 0-.926.528-1.043.762-.258-.656-.785-.762-1.078-.762-1.043 0-1.606 1.29-1.606 1.535 0 .106.106.106.118.106.082 0 .117-.024.129-.117.34-1.055.996-1.301 1.335-1.301.188 0 .54.094.54.668 0 .305-.165.973-.54 2.367-.152.621-.503 1.043-.949 1.043-.058 0-.281 0-.492-.129.246-.058.469-.27.469-.539 0-.27-.223-.351-.375-.351-.293 0-.54.257-.54.574 0 .457.493.656.938.656.656 0 1.008-.691 1.043-.75.117.363.48.75 1.078.75 1.02 0 1.594-1.277 1.594-1.535 0-.094-.094-.094-.129-.094-.082 0-.105.035-.129.106C4.36-.352 3.692-.106 3.364-.106c-.387 0-.539-.328-.539-.656 0-.223.059-.445.164-.88zm0 0" aria-label="x" style="fill:#000;fill-opacity:1;fill-rule:nonzero;stroke:none" transform="matrix(1.33333 0 0 1.33333 401.811 299.739)"/><path d="M0-85.04v296.934" style="fill:none;stroke:#000;stroke-width:.79701;stroke-linecap:butt;stroke-linejoin:miter;stroke-miterlimit:10;stroke-dasharray:none;stroke-opacity:1" transform="matrix(1.33333 0 0 -1.33333 113.387 296.879)"/><path d="M-1.554 2.072C-1.424 1.295 0 .13.389 0 0-.13-1.425-1.295-1.554-2.072" style="fill:none;stroke:#000;stroke-width:.6376;stroke-linecap:round;stroke-linejoin:round;stroke-miterlimit:10;stroke-dasharray:none;stroke-opacity:1" transform="matrix(0 -1.33333 -1.33333 0 113.387 14.354)"/><path d="M4.841-3.796c.047-.14.047-.152.047-.222 0-.188-.14-.27-.293-.27a.44.44 0 0 0-.352.2c-.023.058-.093.363-.14.538-.07.258-.14.528-.2.797L3.459-.96c-.035.152-.468.856-1.125.856-.504 0-.62-.446-.62-.809 0-.457.175-1.078.515-1.957.152-.41.2-.516.2-.715a.8.8 0 0 0-.821-.82C.657-4.405.294-2.952.294-2.87c0 .105.094.105.117.105.094 0 .106-.023.153-.187.27-.938.668-1.23 1.008-1.23.082 0 .257 0 .257.316 0 .246-.105.516-.175.703-.399 1.055-.575 1.617-.575 2.086C1.08-.187 1.7.107 2.3.107c.386 0 .726-.165.995-.446C3.165.177 3.048.67 2.65 1.196c-.258.34-.633.633-1.09.633-.14 0-.598-.035-.762-.422.164 0 .293 0 .434-.117.093-.094.199-.223.199-.41 0-.316-.27-.352-.375-.352-.223 0-.55.164-.55.645 0 .504.433.867 1.054.867 1.02 0 2.05-.902 2.332-2.027zm0 0" aria-label="y" style="fill:#000;fill-opacity:1;fill-rule:nonzero;stroke:none" transform="matrix(1.33333 0 0 1.33333 109.893 5.874)"/><path d="M-42.52-42.52h85.04L0 42.52Z" style="fill:#00f;fill-opacity:.3;fill-rule:nonzero;stroke:none" transform="matrix(1.33333 0 0 -1.33333 113.387 296.879)"/><path d="M7.595-8.309c0-.105-.082-.105-.106-.105-.058 0-.07.011-.21.187-.07.082-.563.703-.575.715-.386-.773-1.183-.902-1.687-.902-1.512 0-2.883 1.382-2.883 2.73 0 .902.527 1.43 1.113 1.63.14.046.844.245 1.196.327.609.164.773.211 1.02.48.046.06.292.329.292.891 0 1.114-1.031 2.262-2.227 2.262-.984 0-2.074-.422-2.074-1.758 0-.222.059-.515.094-.633 0-.035.012-.093.012-.117 0-.047-.024-.117-.13-.117-.105 0-.116.023-.163.234l-.61 2.45c0 .011-.046.164-.046.175 0 .106.093.106.117.106.047 0 .058-.012.21-.188l.54-.715c.293.434.914.903 2.027.903 1.535 0 2.953-1.488 2.953-2.988 0-.493-.117-.938-.574-1.383-.258-.246-.469-.305-1.57-.598-.797-.21-.903-.246-1.125-.445-.2-.2-.352-.48-.352-.89 0-1.009 1.008-2.04 2.145-2.04 1.171 0 1.722.727 1.722 1.863 0 .305-.058.633-.058.68 0 .106.093.106.129.106.117 0 .128-.036.175-.235zm0 0" aria-label="S" style="fill:#000;fill-opacity:1;fill-rule:nonzero;stroke:none" transform="matrix(1.33333 0 0 1.33333 108.123 330.672)"/><path d="M85.04 42.52h85.04l-42.52 85.04z" style="fill:#00f;fill-opacity:.3;fill-rule:nonzero;stroke:none" transform="matrix(1.33333 0 0 -1.33333 113.387 296.879)"/><path d="M7.594-8.31c0-.105-.082-.105-.105-.105-.06 0-.07.012-.211.188-.07.082-.563.703-.575.715-.386-.774-1.183-.903-1.687-.903-1.512 0-2.883 1.383-2.883 2.73 0 .903.527 1.43 1.113 1.63.141.047.844.246 1.196.328.609.164.773.21 1.02.48.046.059.292.329.292.891 0 1.113-1.031 2.262-2.226 2.262-.985 0-2.075-.422-2.075-1.758 0-.223.059-.516.094-.633 0-.035.012-.094.012-.117 0-.047-.024-.117-.13-.117-.105 0-.116.023-.163.234l-.61 2.45C.657-.025.61.127.61.14c0 .106.093.106.117.106.047 0 .058-.012.21-.188l.54-.715c.293.434.914.903 2.027.903 1.535 0 2.953-1.489 2.953-2.989 0-.492-.117-.937-.574-1.382-.258-.247-.469-.305-1.57-.598-.797-.211-.903-.246-1.125-.445-.2-.2-.352-.48-.352-.891 0-1.008 1.008-2.04 2.145-2.04 1.172 0 1.722.727 1.722 1.864 0 .305-.058.633-.058.68 0 .105.094.105.129.105.117 0 .129-.035.175-.234zm0 0" aria-label="S" style="fill:#000;fill-opacity:1;fill-rule:nonzero;stroke:none" transform="matrix(1.33333 0 0 1.33333 276.34 217.684)"/><path d="M2.11-3.775a.6.6 0 0 0 .07-.246c0-.258-.234-.433-.457-.433-.316 0-.41.28-.445.386L.27-.634C.235-.54.235-.517.235-.505c0 .07.047.094.129.117.152.059.164.059.176.059.023 0 .07 0 .129-.13zm0 0" aria-label="0" style="fill:#000;fill-opacity:1;fill-rule:nonzero;stroke:none" transform="matrix(1.33333 0 0 1.33333 286.866 211.9)"/><path d="M45.509-42.52a2.989 2.989 0 1 1-5.978 0 2.989 2.989 0 0 1 5.978 0" style="fill:#000;fill-opacity:1;fill-rule:nonzero;stroke:none" transform="matrix(1.33333 0 0 -1.33333 113.387 296.879)"/><path d="M.445 1.218c-.082.34-.094.41-.54.41-.116 0-.222 0-.222.187 0 .082.047.117.129.117.27 0 .55-.035.832-.035.328 0 .668.035.984.035.059 0 .188 0 .188-.199 0-.105-.106-.105-.246-.105-.492 0-.492-.07-.492-.164 0-.118.421-1.746.48-1.993.14.293.41.633.926.633 1.148 0 2.402-1.453 2.402-2.918 0-.937-.574-1.593-1.336-1.593-.492 0-.972.363-1.3.75-.094-.54-.528-.75-.891-.75-.457 0-.656.386-.738.574-.188.34-.317.937-.317.96 0 .106.106.106.129.106.094 0 .106-.012.164-.234.164-.703.363-1.184.727-1.184.175 0 .304.082.304.457 0 .235-.023.34-.07.504zm1.758-4.325c.07-.27.34-.55.515-.703.352-.305.633-.375.809-.375.398 0 .633.352.633.938s-.329 1.734-.504 2.109c-.34.703-.82 1.031-1.184 1.031-.656 0-.785-.832-.785-.89 0-.024 0-.035.023-.164zm0 0" aria-label="p" style="fill:#000;fill-opacity:1;fill-rule:nonzero;stroke:none" transform="matrix(1.33333 0 0 1.33333 174.774 368.228)"/><path d="M3.293 2.39c0-.036 0-.047-.164-.223C1.887.913 1.56-.963 1.56-2.497c0-1.723.386-3.457 1.605-4.711.13-.117.13-.13.13-.164 0-.07-.036-.106-.095-.106-.105 0-.996.68-1.582 1.946C1.102-4.431.985-3.33.985-2.497c0 .785.117 1.992.656 3.117.597 1.219 1.453 1.875 1.558 1.875.059 0 .094-.035.094-.106m0 0" aria-label="(" style="fill:#000;fill-opacity:1;fill-rule:nonzero;stroke:none" transform="matrix(1.33333 0 0 1.33333 181.457 368.228)"/><path d="M3.327-3.013c.059-.258.293-1.172.985-1.172.047 0 .293 0 .504.13-.282.046-.48.304-.48.538 0 .164.105.352.374.352.223 0 .54-.188.54-.586 0-.516-.587-.656-.927-.656-.574 0-.925.527-1.043.761-.257-.656-.785-.761-1.078-.761C1.16-4.407.597-3.118.597-2.872c0 .105.105.105.117.105.082 0 .117-.023.129-.117.34-1.055.996-1.3 1.336-1.3.187 0 .539.093.539.667 0 .305-.164.973-.54 2.367-.151.621-.503 1.043-.948 1.043-.059 0-.282 0-.493-.129.247-.058.47-.27.47-.539 0-.27-.223-.351-.376-.351-.293 0-.539.258-.539.574 0 .457.492.656.938.656.656 0 1.007-.691 1.043-.75.117.364.48.75 1.078.75 1.02 0 1.594-1.277 1.594-1.535 0-.094-.094-.094-.13-.094-.081 0-.105.035-.128.106C4.359-.353 3.69-.107 3.362-.107c-.386 0-.539-.328-.539-.656 0-.223.059-.445.164-.879zm4.395 3c0-.656-.258-1.043-.645-1.043a.51.51 0 0 0-.527.527c0 .27.2.528.527.528a.52.52 0 0 0 .352-.13c.023-.023.035-.034.047-.034s.023.011.023.152c0 .738-.351 1.336-.68 1.664-.105.106-.105.129-.105.164 0 .07.047.106.094.106.117 0 .914-.762.914-1.934m7.233-3.785c.047-.14.047-.152.047-.223 0-.187-.14-.27-.293-.27a.44.44 0 0 0-.351.2c-.024.059-.094.363-.141.539-.07.258-.14.527-.2.797l-.445 1.793c-.035.152-.468.855-1.125.855-.503 0-.62-.445-.62-.808 0-.457.175-1.078.515-1.957.152-.41.2-.516.2-.715a.8.8 0 0 0-.821-.82c-.95 0-1.313 1.453-1.313 1.535 0 .105.094.105.118.105.093 0 .105-.023.152-.187.27-.938.668-1.23 1.008-1.23.082 0 .258 0 .258.316 0 .246-.106.515-.176.703-.399 1.054-.574 1.617-.574 2.086 0 .89.62 1.183 1.218 1.183.387 0 .727-.164.996-.445-.129.516-.246 1.008-.644 1.535-.258.34-.633.633-1.09.633-.14 0-.598-.035-.762-.422.164 0 .293 0 .434-.117.094-.094.2-.223.2-.41 0-.317-.27-.352-.376-.352-.223 0-.55.164-.55.645 0 .504.433.867 1.054.867 1.02 0 2.05-.903 2.332-2.028zm2.432 3.785c0-.656-.258-1.043-.645-1.043a.51.51 0 0 0-.527.527c0 .27.2.528.527.528a.52.52 0 0 0 .352-.13c.023-.023.035-.034.047-.034s.023.011.023.152c0 .738-.351 1.336-.68 1.664-.105.106-.105.129-.105.164 0 .07.047.106.094.106.117 0 .914-.762.914-1.934m3.726-.82c.54-.574.832-.82 1.184-1.125 0-.012.621-.54.984-.903.938-.925 1.16-1.406 1.16-1.441 0-.105-.093-.105-.105-.105-.07 0-.105.023-.152.117-.305.468-.504.633-.75.633-.235 0-.352-.153-.504-.317-.188-.234-.363-.433-.692-.433-.75 0-1.207.925-1.207 1.136 0 .047.036.117.118.117.093 0 .117-.058.14-.117.188-.457.762-.469.844-.469.21 0 .398.07.621.153.399.152.516.152.774.152-.364.422-1.196 1.137-1.383 1.3l-.903.833c-.68.668-1.02 1.242-1.02 1.312 0 .094.095.094.118.094.082 0 .094-.011.152-.129.235-.34.528-.61.856-.61.222 0 .328.083.574.376.164.21.352.363.633.363.984 0 1.57-1.265 1.57-1.535 0-.047-.047-.094-.117-.094-.094 0-.117.059-.14.13-.235.644-.868.831-1.196.831-.2 0-.387-.058-.586-.129-.34-.129-.492-.164-.703-.164-.023 0-.176 0-.27.024m0 0" aria-label="x,y,z" style="fill:#000;fill-opacity:1;fill-rule:nonzero;stroke:none" transform="matrix(1.33333 0 0 1.33333 186.622 368.228)"/><path d="M2.883-2.497c0-.774-.117-1.98-.656-3.106C1.629-6.822.762-7.478.668-7.478a.105.105 0 0 0-.105.106c0 .035 0 .047.2.234.972.984 1.534 2.566 1.534 4.64C2.297-.785 1.934.96.704 2.226c-.141.118-.141.13-.141.164 0 .059.047.106.105.106.094 0 .997-.68 1.582-1.945.504-1.102.633-2.204.633-3.047m0 0" aria-label=")" style="fill:#000;fill-opacity:1;fill-rule:nonzero;stroke:none" transform="matrix(1.33333 0 0 1.33333 219.773 368.228)"/><path d="M173.07 42.52a2.989 2.989 0 1 1-5.978 0 2.989 2.989 0 0 1 5.978 0" style="fill:#000;fill-opacity:1;fill-rule:nonzero;stroke:none" transform="matrix(1.33333 0 0 -1.33333 113.387 296.879)"/><path d="M.444 1.22c-.082.34-.093.41-.539.41-.117 0-.222 0-.222.188 0 .082.047.117.129.117.27 0 .55-.035.832-.035.328 0 .668.035.984.035.059 0 .187 0 .187-.2 0-.105-.105-.105-.246-.105-.492 0-.492-.07-.492-.164 0-.117.422-1.746.48-1.992.141.293.41.633.926.633 1.149 0 2.403-1.453 2.403-2.918 0-.938-.574-1.594-1.336-1.594-.492 0-.973.363-1.301.75-.094-.54-.527-.75-.89-.75-.458 0-.657.387-.739.574-.187.34-.316.938-.316.961 0 .106.105.106.129.106.093 0 .105-.012.164-.235.164-.703.363-1.183.726-1.183.176 0 .305.082.305.457 0 .234-.023.34-.07.504zm1.758-4.324c.07-.27.34-.551.516-.703.351-.305.633-.375.808-.375.399 0 .633.351.633.937s-.328 1.735-.504 2.11c-.34.703-.82 1.03-1.183 1.03-.657 0-.785-.831-.785-.89 0-.023 0-.035.023-.164zm0 0" aria-label="p" style="fill:#000;fill-opacity:1;fill-rule:nonzero;stroke:none" transform="matrix(1.33333 0 0 1.33333 344.853 254.866)"/><path d="M2.027-3.292a.6.6 0 0 0 .059-.223c0-.21-.2-.386-.41-.386-.27 0-.352.222-.387.328L.375-.55a.5.5 0 0 0-.035.117c0 .082.21.153.27.153.046 0 .058-.024.105-.13zm0 0" aria-label="0" style="fill:#000;fill-opacity:1;fill-rule:nonzero;stroke:none" transform="matrix(1.33333 0 0 1.33333 351.535 250.046)"/><path d="M3.293 2.392c0-.035 0-.047-.164-.223C1.886.915 1.559-.96 1.559-2.495c0-1.723.386-3.457 1.605-4.71.129-.118.129-.13.129-.165 0-.07-.036-.105-.094-.105-.106 0-.996.68-1.582 1.945C1.1-4.428.984-3.327.984-2.495c0 .785.117 1.992.656 3.117.598 1.22 1.453 1.875 1.559 1.875.058 0 .094-.035.094-.105m0 0" aria-label="(" style="fill:#000;fill-opacity:1;fill-rule:nonzero;stroke:none" transform="matrix(1.33333 0 0 1.33333 355.262 254.866)"/><path d="M3.327-3.01c.058-.258.293-1.172.984-1.172.047 0 .293 0 .504.129-.281.046-.48.304-.48.539 0 .164.105.351.375.351.222 0 .539-.187.539-.586 0-.515-.586-.656-.926-.656-.574 0-.926.527-1.043.762-.258-.657-.785-.762-1.078-.762C1.159-4.405.596-3.116.596-2.87c0 .106.106.106.118.106.082 0 .117-.024.128-.118.34-1.054.997-1.3 1.336-1.3.188 0 .54.093.54.668 0 .304-.165.972-.54 2.367-.152.62-.504 1.043-.949 1.043-.058 0-.281 0-.492-.13.246-.058.469-.269.469-.538 0-.27-.223-.352-.375-.352-.293 0-.54.258-.54.574 0 .457.493.657.938.657.656 0 1.008-.692 1.043-.75.117.363.48.75 1.078.75 1.02 0 1.594-1.278 1.594-1.535 0-.094-.094-.094-.129-.094-.082 0-.105.035-.129.105C4.358-.35 3.69-.104 3.362-.104c-.387 0-.54-.328-.54-.656 0-.223.06-.446.165-.88zm0 0" aria-label="x" style="fill:#000;fill-opacity:1;fill-rule:nonzero;stroke:none" transform="matrix(1.33333 0 0 1.33333 360.427 254.866)"/><path d="M2.027-3.292a.6.6 0 0 0 .059-.223c0-.21-.2-.386-.41-.386-.27 0-.352.222-.387.328L.375-.55a.5.5 0 0 0-.035.117c0 .082.21.153.27.153.046 0 .058-.024.105-.13zm0 0" aria-label="0" style="fill:#000;fill-opacity:1;fill-rule:nonzero;stroke:none" transform="matrix(1.33333 0 0 1.33333 368.02 250.046)"/><path d="M2.027-.01c0-.657-.258-1.043-.644-1.043a.51.51 0 0 0-.528.527c0 .27.2.527.528.527a.52.52 0 0 0 .351-.129c.024-.023.035-.035.047-.035s.024.012.024.153c0 .738-.352 1.335-.68 1.664-.106.105-.106.128-.106.164 0 .07.047.105.094.105.117 0 .914-.762.914-1.933m7.234-3.786c.047-.14.047-.152.047-.222 0-.188-.141-.27-.293-.27a.44.44 0 0 0-.352.2c-.023.058-.094.363-.14.538-.07.258-.141.528-.2.797L7.878-.96c-.035.153-.469.856-1.125.856-.504 0-.621-.446-.621-.809 0-.457.176-1.078.515-1.957.153-.41.2-.515.2-.715a.8.8 0 0 0-.82-.82c-.95 0-1.313 1.453-1.313 1.535 0 .106.094.106.117.106.094 0 .105-.024.152-.188.27-.937.668-1.23 1.008-1.23.082 0 .258 0 .258.316 0 .246-.105.516-.176.703C5.675-2.108 5.5-1.546 5.5-1.077c0 .89.621 1.184 1.219 1.184.386 0 .726-.164.996-.446-.13.516-.246 1.008-.645 1.536-.258.34-.633.632-1.09.632-.14 0-.597-.035-.761-.422.164 0 .293 0 .433-.117.094-.093.2-.222.2-.41 0-.316-.27-.351-.375-.351-.223 0-.551.164-.551.644 0 .504.433.867 1.054.867C7 2.04 8.03 1.138 8.311.013zm0 0" aria-label=",y" style="fill:#000;fill-opacity:1;fill-rule:nonzero;stroke:none" transform="matrix(1.33333 0 0 1.33333 371.746 254.866)"/><path d="M2.028-3.292a.6.6 0 0 0 .059-.223c0-.21-.2-.386-.41-.386-.27 0-.352.222-.387.328L.376-.55a.5.5 0 0 0-.035.117c0 .082.21.153.27.153.046 0 .058-.024.105-.13zm0 0" aria-label="0" style="fill:#000;fill-opacity:1;fill-rule:nonzero;stroke:none" transform="matrix(1.33333 0 0 1.33333 384.64 250.046)"/><path d="M2.028-.01c0-.657-.258-1.043-.644-1.043a.51.51 0 0 0-.528.527c0 .27.2.527.528.527a.52.52 0 0 0 .351-.129c.024-.023.035-.035.047-.035s.023.012.023.153c0 .738-.351 1.335-.68 1.664-.105.105-.105.128-.105.164 0 .07.047.105.094.105.117 0 .914-.762.914-1.933m3.718-.82c.539-.575.832-.821 1.183-1.126 0-.012.622-.539.985-.902.937-.926 1.16-1.406 1.16-1.442 0-.105-.094-.105-.105-.105-.07 0-.106.023-.153.117-.304.469-.504.633-.75.633-.234 0-.351-.152-.504-.316-.187-.235-.363-.434-.691-.434-.75 0-1.207.926-1.207 1.137 0 .047.035.117.117.117.094 0 .117-.059.14-.117.188-.457.762-.47.844-.47.211 0 .399.071.622.153.398.153.515.153.773.153-.363.422-1.195 1.136-1.383 1.3l-.902.832c-.68.668-1.02 1.243-1.02 1.313 0 .094.094.094.117.094.082 0 .094-.012.153-.13.234-.34.527-.609.855-.609.223 0 .328.082.574.375.165.211.352.364.633.364.985 0 1.57-1.266 1.57-1.535 0-.047-.046-.094-.117-.094-.093 0-.117.058-.14.129-.235.644-.867.832-1.196.832-.199 0-.386-.059-.585-.13-.34-.128-.493-.163-.704-.163-.023 0-.175 0-.27.023m0 0" aria-label=",z" style="fill:#000;fill-opacity:1;fill-rule:nonzero;stroke:none" transform="matrix(1.33333 0 0 1.33333 388.366 254.866)"/><path d="M2.027-3.292a.6.6 0 0 0 .059-.223c0-.21-.2-.386-.41-.386-.27 0-.352.222-.387.328L.375-.55a.5.5 0 0 0-.035.117c0 .082.21.153.27.153.046 0 .058-.024.105-.13zm0 0" aria-label="0" style="fill:#000;fill-opacity:1;fill-rule:nonzero;stroke:none" transform="matrix(1.33333 0 0 1.33333 401.031 250.046)"/><path d="M2.883-2.495c0-.773-.118-1.98-.657-3.105C1.63-6.82.761-7.475.668-7.475a.105.105 0 0 0-.106.105c0 .035 0 .047.2.235.972.984 1.535 2.566 1.535 4.64 0 1.711-.364 3.457-1.594 4.723-.14.117-.14.129-.14.164 0 .058.046.105.105.105.093 0 .996-.68 1.582-1.945.504-1.102.633-2.203.633-3.047m0 0" aria-label=")" style="fill:#000;fill-opacity:1;fill-rule:nonzero;stroke:none" transform="matrix(1.33333 0 0 1.33333 404.758 254.866)"/><path d="M42.52-42.52h123.924" style="fill:none;stroke:#000;stroke-width:1.49442;stroke-linecap:butt;stroke-linejoin:miter;stroke-miterlimit:10;stroke-dasharray:2.98883,2.98883;stroke-dashoffset:0;stroke-opacity:1" transform="matrix(1.33333 0 0 -1.33333 113.387 296.879)"/><path d="m3.636 0-5.818 2.91L0 0l-2.182-2.91" style="fill:#000;fill-opacity:1;fill-rule:nonzero;stroke:none" transform="matrix(1.33333 0 0 -1.33333 335.313 353.572)"/><path d="M4.254-6.046c.07-.282.106-.34.235-.364.082-.023.41-.023.62-.023 1.008 0 1.454.035 1.454.82 0 .14-.035.528-.082.797 0 .035-.024.152-.024.188 0 .058.024.129.117.129.106 0 .13-.083.153-.235l.27-1.734c.011-.035.011-.14.011-.164 0-.106-.094-.106-.27-.106H1.22c-.246 0-.258 0-.316.2L.305-4.793c-.012.023-.07.164-.07.175 0 .07.058.117.129.117.093 0 .105-.046.164-.21.539-1.547.796-1.723 2.273-1.723h.387c.281 0 .281.035.281.117a1 1 0 0 1-.047.211L2.098-.785c-.094.364-.129.48-1.195.48-.352 0-.41 0-.41.188 0 .118.105.118.164.118.27 0 .55-.024.82-.024.281 0 .562-.012.844-.012.28 0 .562.012.832.012.28 0 .586.024.867.024.094 0 .21 0 .21-.2 0-.105-.081-.105-.34-.105-.245 0-.374 0-.632-.024-.293-.035-.363-.058-.363-.222 0-.012 0-.059.035-.211zm0 0" aria-label="T" style="fill:#000;fill-opacity:1;fill-rule:nonzero;stroke:none" transform="matrix(1.33333 0 0 1.33333 247.894 368.074)"/><path d="M1.734-.738c-.07.235-.293.61-.656.61-.024 0-.223 0-.375-.094a.42.42 0 0 0 .304-.387c0-.152-.117-.258-.28-.258-.188 0-.388.165-.388.434 0 .34.387.504.727.504.316 0 .61-.2.785-.492.164.363.55.492.82.492.809 0 1.23-.867 1.23-1.066 0-.094-.093-.094-.105-.094-.105 0-.105.035-.14.117-.14.48-.563.844-.95.844-.28 0-.421-.188-.421-.446 0-.187.164-.82.363-1.593.129-.54.445-.715.68-.715.011 0 .222 0 .375.105a.404.404 0 0 0-.305.375c0 .153.117.258.281.258a.405.405 0 0 0 .387-.422c0-.386-.445-.504-.727-.504-.351 0-.632.223-.785.493-.117-.293-.445-.493-.832-.493-.785 0-1.23.856-1.23 1.067 0 .082.105.082.117.082.094 0 .105-.024.14-.117.176-.54.61-.844.95-.844.234 0 .422.129.422.469 0 .128-.082.48-.153.714zm0 0" aria-label="x" style="fill:#000;fill-opacity:1;fill-rule:nonzero;stroke:none" transform="matrix(1.33333 0 0 1.33333 255.657 370.066)"/><path d="M170.08-42.52v81.404" style="fill:none;stroke:#000;stroke-width:1.49442;stroke-linecap:butt;stroke-linejoin:miter;stroke-miterlimit:10;stroke-dasharray:2.98883,2.98883;stroke-dashoffset:0;stroke-opacity:1" transform="matrix(1.33333 0 0 -1.33333 113.387 296.879)"/><path d="m3.636 0-5.818 2.91L0 0l-2.182-2.91" style="fill:#000;fill-opacity:1;fill-rule:nonzero;stroke:none" transform="matrix(0 -1.33333 -1.33333 0 340.162 245.034)"/><path d="M4.253-6.048c.07-.282.105-.34.234-.364.082-.023.41-.023.621-.023 1.008 0 1.453.035 1.453.82 0 .14-.035.528-.082.797 0 .035-.023.152-.023.188 0 .058.023.129.117.129.106 0 .129-.082.152-.235l.27-1.734c.012-.035.012-.14.012-.164 0-.106-.094-.106-.27-.106h-5.52c-.245 0-.257 0-.316.2L.304-4.795c-.012.023-.07.164-.07.175 0 .07.058.118.128.118.094 0 .106-.047.164-.211.54-1.547.797-1.723 2.274-1.723h.386c.282 0 .282.035.282.117a1 1 0 0 1-.047.211L2.097-.787c-.094.364-.13.48-1.196.48-.351 0-.41 0-.41.188C.491 0 .597 0 .655 0c.27 0 .55-.024.82-.024.282 0 .563-.012.844-.012s.563.012.832.012c.281 0 .586.024.867.024.094 0 .211 0 .211-.2 0-.105-.082-.105-.34-.105-.246 0-.374 0-.632-.024-.293-.035-.364-.058-.364-.222 0-.012 0-.059.036-.211zm0 0" aria-label="T" style="fill:#000;fill-opacity:1;fill-rule:nonzero;stroke:none" transform="matrix(1.33333 0 0 1.33333 345.583 299.518)"/><path d="M3.878-2.624c.024-.106.024-.118.024-.153a.215.215 0 0 0-.223-.222.35.35 0 0 0-.293.164c-.024.035-.07.257-.106.398l-.152.586a52 52 0 0 1-.281 1.125s-.305.598-.856.598c-.468 0-.468-.446-.468-.575 0-.375.152-.82.363-1.359.082-.223.117-.305.117-.422 0-.328-.281-.586-.656-.586-.703 0-1.02.95-1.02 1.067 0 .082.094.082.117.082.094 0 .106-.035.13-.106.175-.586.468-.855.75-.855q.175 0 .175.246c0 .164-.058.316-.094.41-.34.844-.41 1.102-.41 1.406 0 .117 0 .446.27.68.222.176.515.21.703.21.281 0 .527-.105.762-.315-.094.386-.176.68-.47 1.03-.187.212-.456.446-.831.446-.047 0-.375 0-.527-.234.375-.035.375-.375.375-.387 0-.223-.2-.258-.27-.258-.176 0-.398.14-.398.457 0 .352.328.61.832.61.703 0 1.558-.54 1.77-1.407zm0 0" aria-label="y" style="fill:#000;fill-opacity:1;fill-rule:nonzero;stroke:none" transform="matrix(1.33333 0 0 1.33333 353.345 301.51)"/><path d="M-42.52-42.52h85.04L0 42.52ZM85.04 42.52h85.04l-42.52 85.04z" style="fill:none;stroke:gray;stroke-width:.3985;stroke-linecap:butt;stroke-linejoin:miter;stroke-miterlimit:10;stroke-dasharray:none;stroke-opacity:1" transform="matrix(1.33333 0 0 -1.33333 113.387 296.879)"/></svg>