<?xml version="1.0" encoding="UTF-8" standalone="no"?>
<!-- Created with Inkscape (http://www.inkscape.org/) -->

<svg
   version="1.1"
   id="svg1"
   width="276.26297"
   height="277.71729"
   viewBox="0 0 276.26297 277.71729"
   xmlns="http://www.w3.org/2000/svg"
   xmlns:svg="http://www.w3.org/2000/svg">
  <defs
     id="defs1" />
  <g
     id="g1"
     transform="translate(-266.99094,-170.67578)">
    <path
       id="path1"
       d="M 0,0 H 170.08086 M 0,28.3468 H 170.08086 M 0,56.69362 H 170.08086 M 0,85.04042 H 170.08086 M 0,113.38724 H 170.08086 M 0,141.73404 H 170.08086 M 0,170.07089 H 170.08086 M 0,0 V 170.08086 M 28.3468,0 V 170.08086 M 56.69362,0 V 170.08086 M 85.04042,0 V 170.08086 M 113.38724,0 V 170.08086 M 141.73404,0 V 170.08086 M 170.07089,0 v 170.08086"
       style="fill:none;stroke:#808080;stroke-width:0.19925;stroke-linecap:butt;stroke-linejoin:miter;stroke-miterlimit:10;stroke-dasharray:none;stroke-opacity:1"
       transform="matrix(1.3333333,0,0,-1.3333333,304.78667,410.59733)" />
    <path
       id="path2"
       d="M -28.3468,0 H 169.62257"
       style="fill:none;stroke:#000000;stroke-width:0.3985;stroke-linecap:butt;stroke-linejoin:miter;stroke-miterlimit:10;stroke-dasharray:none;stroke-opacity:1"
       transform="matrix(1.3333333,0,0,-1.3333333,304.78667,410.59733)" />
    <path
       id="path3"
       d="M -1.19551,1.59401 C -1.09587,0.99626 0,0.09961 0.29886,0 0,-0.09961 -1.09587,-0.99626 -1.19551,-1.59401"
       style="fill:none;stroke:#000000;stroke-width:0.31879;stroke-linecap:round;stroke-linejoin:round;stroke-miterlimit:10;stroke-dasharray:none;stroke-opacity:1"
       transform="matrix(1.3333333,0,0,-1.3333333,530.95009,410.59733)" />
    <path
       id="path4"
       d="m 3.3295547,-3.0109453 c 0.058594,-0.2578125 0.2929687,-1.171875 0.984375,-1.171875 0.046875,0 0.2929687,0 0.5039062,0.1289062 -0.28125,0.046875 -0.4804687,0.3046875 -0.4804687,0.5390625 0,0.1640625 0.1054687,0.3515625 0.375,0.3515625 0.2226562,0 0.5390625,-0.1875 0.5390625,-0.5859375 0,-0.515625 -0.5859375,-0.65625 -0.9257813,-0.65625 -0.5742187,0 -0.9257812,0.5273438 -1.0429687,0.7617188 -0.2578125,-0.65625 -0.7851563,-0.7617188 -1.078125,-0.7617188 -1.0429688,0 -1.60546876,1.2890625 -1.60546876,1.5351563 0,0.1054687 0.10546875,0.1054687 0.1171875,0.1054687 0.0820313,0 0.1171875,-0.023437 0.12890625,-0.1171875 0.33984371,-1.0546875 0.99609371,-1.3007812 1.33593751,-1.3007812 0.1875,0 0.5390625,0.09375 0.5390625,0.6679687 0,0.3046875 -0.1640625,0.9726563 -0.5390625,2.3671875 -0.1523438,0.62109379 -0.5039063,1.04296879 -0.9492188,1.04296879 -0.058594,0 -0.28124996,0 -0.49218746,-0.12890625 0.24609375,-0.0585937 0.46874996,-0.26953125 0.46874996,-0.5390625 0,-0.26953124 -0.22265621,-0.35156254 -0.37499996,-0.35156254 -0.29296875,0 -0.5390625,0.25781254 -0.5390625,0.57421879 0,0.45703125 0.4921875,0.65625 0.93749996,0.65625 0.65625,0 1.0078125,-0.69140625 1.0429688,-0.75 0.1171875,0.36328125 0.4804687,0.75 1.078125,0.75 1.0195312,0 1.59375,-1.27734379 1.59375,-1.53515629 0,-0.09375 -0.09375,-0.09375 -0.1289063,-0.09375 -0.082031,0 -0.1054687,0.035156 -0.1289062,0.1054688 -0.328125,1.06640624 -0.9960938,1.31249999 -1.3242188,1.31249999 -0.3867187,0 -0.5390625,-0.328125 -0.5390625,-0.65625 0,-0.22265625 0.058594,-0.44531249 0.1640625,-0.87890629 z m 0,0"
       style="fill:#000000;fill-opacity:1;fill-rule:nonzero;stroke:none"
       aria-label="x"
       transform="matrix(1.3333333,0,0,1.3333333,536.252,413.456)" />
    <path
       id="path5"
       d="M 0,-28.3468 V 169.62257"
       style="fill:none;stroke:#000000;stroke-width:0.3985;stroke-linecap:butt;stroke-linejoin:miter;stroke-miterlimit:10;stroke-dasharray:none;stroke-opacity:1"
       transform="matrix(1.3333333,0,0,-1.3333333,304.78667,410.59733)" />
    <path
       id="path6"
       d="M -1.19551,1.59401 C -1.09587,0.99626 0,0.09961 0.29886,0 0,-0.09961 -1.09587,-0.99626 -1.19551,-1.59401"
       style="fill:none;stroke:#000000;stroke-width:0.31879;stroke-linecap:round;stroke-linejoin:round;stroke-miterlimit:10;stroke-dasharray:none;stroke-opacity:1"
       transform="matrix(0,-1.3333333,-1.3333333,0,304.78667,184.43391)" />
    <path
       id="path7"
       d="m 4.8405703,-3.7957891 c 0.046875,-0.140625 0.046875,-0.1523437 0.046875,-0.2226562 0,-0.1875 -0.140625,-0.2695313 -0.2929687,-0.2695313 -0.1054688,0 -0.2578125,0.058594 -0.3515625,0.1992188 -0.023437,0.058594 -0.09375,0.3632812 -0.140625,0.5390625 -0.070312,0.2578125 -0.140625,0.5273437 -0.1992188,0.796875 l -0.4453125,1.79296874 c -0.035156,0.15234375 -0.46875,0.85546875 -1.125,0.85546875 -0.5039062,0 -0.6210937,-0.4453125 -0.6210937,-0.80859375 0,-0.45703124 0.1757812,-1.07812504 0.515625,-1.95703124 0.1523437,-0.4101563 0.1992187,-0.515625 0.1992187,-0.7148438 0,-0.4453125 -0.328125,-0.8203125 -0.8203125,-0.8203125 -0.94921874,0 -1.31249999,1.453125 -1.31249999,1.5351563 0,0.1054687 0.09375,0.1054687 0.1171875,0.1054687 0.09375,0 0.10546875,-0.023437 0.15234375,-0.1875 0.26953125,-0.9375 0.66796874,-1.2304687 1.00781254,-1.2304687 0.082031,0 0.2578125,0 0.2578125,0.3164062 0,0.2460938 -0.1054688,0.515625 -0.1757813,0.703125 -0.3984375,1.0546875 -0.5742187,1.6171875 -0.5742187,2.0859375 0,0.89062504 0.6210937,1.18359379 1.21875,1.18359379 0.3867187,0 0.7265625,-0.1640625 0.9960937,-0.4453125 -0.1289062,0.515625 -0.2460937,1.0078125 -0.6445312,1.53515621 -0.2578125,0.3398438 -0.6328125,0.6328125 -1.0898438,0.6328125 -0.140625,0 -0.59765624,-0.035156 -0.76171874,-0.421875 0.1640625,0 0.29296874,0 0.43359374,-0.1171875 0.09375,-0.09375 0.1992188,-0.2226562 0.1992188,-0.41015621 0,-0.31640625 -0.2695313,-0.3515625 -0.375,-0.3515625 -0.22265629,0 -0.55078129,0.1640625 -0.55078129,0.64453121 0,0.5039063 0.43359375,0.8671875 1.05468749,0.8671875 1.0195313,0 2.0507813,-0.9023437 2.3320313,-2.02734371 z m 0,0"
       style="fill:#000000;fill-opacity:1;fill-rule:nonzero;stroke:none"
       aria-label="y"
       transform="matrix(1.3333333,0,0,1.3333333,301.292,176.54933)" />
    <path
       id="path8"
       d="M 0,0 122.74562,70.867"
       style="fill:none;stroke:#000000;stroke-width:0.79701;stroke-linecap:butt;stroke-linejoin:miter;stroke-miterlimit:10;stroke-dasharray:none;stroke-opacity:1"
       transform="matrix(1.3333333,0,0,-1.3333333,304.78667,410.59733)" />
    <path
       id="path9"
       d="M 0,0 70.867,122.74562"
       style="fill:none;stroke:#000000;stroke-width:0.79701;stroke-linecap:butt;stroke-linejoin:miter;stroke-miterlimit:10;stroke-dasharray:none;stroke-opacity:1"
       transform="matrix(1.3333333,0,0,-1.3333333,304.78667,410.59733)" />
    <path
       id="path10"
       d="m 123.7419,70.867 c 0,0.55025 -0.44605,0.99628 -0.99628,0.99628 -0.55025,0 -0.99628,-0.44603 -0.99628,-0.99628 0,-0.55023 0.44603,-0.99627 0.99628,-0.99627 0.55023,0 0.99628,0.44604 0.99628,0.99627 z"
       style="fill:#000000;fill-opacity:1;fill-rule:nonzero;stroke:none"
       transform="matrix(1.3333333,0,0,-1.3333333,304.78667,410.59733)" />
    <path
       id="path11"
       d="m 71.86328,122.74562 c 0,0.55023 -0.44603,0.99628 -0.99628,0.99628 -0.55023,0 -0.99627,-0.44605 -0.99627,-0.99628 0,-0.55025 0.44604,-0.99628 0.99627,-0.99628 0.55025,0 0.99628,0.44603 0.99628,0.99628 z"
       style="fill:#000000;fill-opacity:1;fill-rule:nonzero;stroke:none"
       transform="matrix(1.3333333,0,0,-1.3333333,304.78667,410.59733)" />
    <path
       id="path12"
       d="m 28.3468,0 c 0,4.97461 -1.3104,9.86523 -3.44401,13.5608"
       style="fill:none;stroke:#000000;stroke-width:0.79701;stroke-linecap:butt;stroke-linejoin:miter;stroke-miterlimit:10;stroke-dasharray:none;stroke-opacity:1"
       transform="matrix(1.3333333,0,0,-1.3333333,304.78667,410.59733)" />
    <path
       id="path13"
       d="M -1.55415,2.0722 C -1.42464,1.29512 0,0.1295 0.38852,0 0,-0.1295 -1.42464,-1.29512 -1.55415,-2.0722"
       style="fill:none;stroke:#000000;stroke-width:0.6376;stroke-linecap:round;stroke-linejoin:round;stroke-miterlimit:10;stroke-dasharray:none;stroke-opacity:1"
       transform="matrix(-0.66666667,-1.15468,-1.15468,0.66666667,337.9904,392.51628)" />
    <path
       id="path14"
       d="m 4.7454844,-2.3555781 c 0,-1.5585938 -0.9257813,-2.0507813 -1.6523438,-2.0507813 -1.3710937,0 -2.68359372,1.4296875 -2.68359372,2.8359375 0,0.92578127 0.59765622,1.67578127 1.61718752,1.67578127 0.6210937,0 1.3359375,-0.22265625 2.0976562,-0.83203125 0.1289063,0.52734375 0.4570313,0.83203125 0.9023438,0.83203125 0.5273437,0 0.84375,-0.5390625 0.84375,-0.703125 0,-0.0703125 -0.058594,-0.10546875 -0.1289063,-0.10546875 -0.058594,0 -0.09375,0.0351563 -0.1289062,0.10546875 -0.1757813,0.4921875 -0.5273438,0.4921875 -0.5507813,0.4921875 -0.3164062,0 -0.3164062,-0.78515625 -0.3164062,-1.01953127 0,-0.2109375 0,-0.234375 0.1054687,-0.3515625 0.9375,-1.171875 1.1484375,-2.3320312 1.1484375,-2.34375 0,-0.011719 -0.011719,-0.09375 -0.1171875,-0.09375 -0.1054687,0 -0.1054687,0.023437 -0.1523437,0.2109375 -0.1875,0.6210938 -0.515625,1.3828125 -0.984375,1.96875 z m -0.65625,1.37109372 c -0.8789063,0.76171875 -1.6523438,0.87890625 -2.0507813,0.87890625 -0.5976562,0 -0.890625,-0.45703125 -0.890625,-1.08984377 0,-0.4921875 0.2578125,-1.5585937 0.5742188,-2.0742187 0.46875,-0.7265625 1.0078125,-0.9140625 1.359375,-0.9140625 0.984375,0 0.984375,1.3007812 0.984375,2.0859375 0,0.3632812 0,0.9375 0.023437,1.11328122 z m 0,0"
       style="fill:#000000;fill-opacity:1;fill-rule:nonzero;stroke:none"
       aria-label="α"
       transform="matrix(1.3333333,0,0,1.3333333,345.868,402.11733)" />
    <path
       id="path15"
       d="m 36.82367,21.2601 c -3.73096,6.46222 -9.10137,11.83263 -14.951,15.20993"
       style="fill:none;stroke:#000000;stroke-width:0.79701;stroke-linecap:butt;stroke-linejoin:miter;stroke-miterlimit:10;stroke-dasharray:none;stroke-opacity:1"
       transform="matrix(1.3333333,0,0,-1.3333333,304.78667,410.59733)" />
    <path
       id="path16"
       d="M -1.55415,2.0722 C -1.42464,1.29512 0,0.1295 0.38852,0 0,-0.1295 -1.42464,-1.29512 -1.55415,-2.0722"
       style="fill:none;stroke:#000000;stroke-width:0.6376;stroke-linecap:round;stroke-linejoin:round;stroke-miterlimit:10;stroke-dasharray:none;stroke-opacity:1"
       transform="matrix(-1.15468,-0.66664,-0.66664,1.15468,333.95024,361.97064)" />
    <path
       id="path17"
       d="m 5.7291484,-5.6732422 c 0,-0.7382812 -0.5507812,-1.359375 -1.359375,-1.359375 -0.5742187,0 -0.8554687,0.1523438 -1.2070312,0.421875 -0.5390625,0.3984375 -1.0898438,1.359375 -1.2773438,2.1210938 L 0.30336719,1.8267578 c -0.0117188,0.046875 0.0351563,0.1054688 0.1171875,0.1054688 0.0820313,0 0.10546875,-0.023437 0.1171875,-0.046875 L 1.2291484,-0.86855469 c 0.1992188,0.59765625 0.6328125,0.97265625 1.359375,0.97265625 0.7265625,0 1.4765625,-0.3515625 1.921875,-0.796875 0.4804688,-0.45703126 0.796875,-1.08984376 0.796875,-1.82812496 0,-0.7148438 -0.3632812,-1.2304688 -0.7265625,-1.4882813 0.5742188,-0.328125 1.1484375,-0.9375 1.1484375,-1.6640625 z m -1.7929687,1.6523438 c -0.1289063,0.058594 -0.2460938,0.070312 -0.4804688,0.070312 -0.140625,0 -0.3398437,0.011719 -0.4335937,-0.035156 0.011719,-0.1054687 0.375,-0.082031 0.4804687,-0.082031 0.2109375,0 0.3046875,0 0.4335938,0.046875 z m 1.2304687,-1.875 c 0,0.6914062 -0.375,1.40625 -0.890625,1.7226562 -0.2695312,-0.1054687 -0.46875,-0.1171875 -0.7734375,-0.1171875 -0.2109375,0 -0.7617187,-0.011719 -0.7617187,0.3164063 -0.011719,0.28125 0.5039062,0.2460937 0.6796875,0.2460937 0.375,0 0.5273437,-0.011719 0.8203125,-0.1289062 0.375,0.3632812 0.4335937,0.6679687 0.4453125,1.125 0.011719,0.5742187 -0.2226563,1.3242187 -0.5039063,1.7109375 -0.3867187,0.53906246 -1.0546875,0.90234371 -1.6289062,0.90234371 -0.75,0 -1.125,-0.5859375 -1.125,-1.28906251 0,-0.09375 0,-0.2460937 0.046875,-0.4335937 l 0.6328125,-2.5195313 c 0.2226562,-0.8554687 0.9375,-2.4492187 2.1328125,-2.4492187 0.5742187,0 0.9257812,0.3164062 0.9257812,0.9140625 z m 0,0"
       style="fill:#000000;fill-opacity:1;fill-rule:nonzero;stroke:none"
       aria-label="β"
       transform="matrix(1.3333333,0,0,1.3333333,354.13067,360.46667)" />
    <path
       id="path18"
       d="m 0.44479688,1.2181328 c -0.0820313,0.3398438 -0.09375,0.4101563 -0.5390625,0.4101563 -0.1171875,0 -0.22265625,0 -0.22265625,0.1875 0,0.082031 0.046875,0.1171875 0.12890625,0.1171875 0.26953125,0 0.55078125,-0.035156 0.83203125,-0.035156 0.328125,0 0.66796877,0.035156 0.98437497,0.035156 0.058594,0 0.1875,0 0.1875,-0.1992188 0,-0.1054687 -0.1054687,-0.1054687 -0.2460937,-0.1054687 -0.4921875,0 -0.4921875,-0.070312 -0.4921875,-0.1640625 0,-0.1171875 0.421875,-1.74609379 0.4804687,-1.99218754 0.140625,0.29296875 0.4101563,0.6328125 0.9257813,0.6328125 1.1484375,0 2.4023437,-1.45312496 2.4023437,-2.91796876 0,-0.9375 -0.5742187,-1.59375 -1.3359375,-1.59375 -0.4921875,0 -0.9726562,0.3632813 -1.3007812,0.75 -0.09375,-0.5390625 -0.5273438,-0.75 -0.890625,-0.75 -0.45703127,0 -0.65625002,0.3867188 -0.73828127,0.5742188 -0.1875,0.3398437 -0.31640625,0.9375 -0.31640625,0.9609375 0,0.1054687 0.10546875,0.1054687 0.12890625,0.1054687 0.09375,0 0.10546875,-0.011719 0.1640625,-0.234375 0.1640625,-0.703125 0.36328125,-1.1835937 0.72656247,-1.1835937 0.1757813,0 0.3046875,0.082031 0.3046875,0.4570312 0,0.234375 -0.023437,0.3398438 -0.070312,0.5039063 z M 2.2026094,-3.1060859 c 0.070312,-0.2695313 0.3398437,-0.5507813 0.515625,-0.703125 0.3515625,-0.3046875 0.6328125,-0.375 0.8085937,-0.375 0.3984375,0 0.6328125,0.3515625 0.6328125,0.9375 0,0.5859375 -0.328125,1.734375 -0.5039062,2.109375 -0.3398438,0.70312496 -0.8203125,1.03124996 -1.1835938,1.03124996 -0.65625,0 -0.7851562,-0.83203125 -0.7851562,-0.890625 0,-0.0234375 0,-0.0351563 0.023437,-0.16406246 z m 0,0"
       style="fill:#000000;fill-opacity:1;fill-rule:nonzero;stroke:none"
       aria-label="p"
       transform="matrix(1.3333333,0,0,1.3333333,449.696,308.09067)" />
    <path
       id="path19"
       d="m 3.2931484,2.3900078 c 0,-0.035156 0,-0.046875 -0.1640625,-0.2226562 -1.2421875,-1.25390629 -1.5703125,-3.12890629 -1.5703125,-4.6640625 0,-1.7226563 0.3867188,-3.4570313 1.6054688,-4.7109375 0.1289062,-0.1171875 0.1289062,-0.1289063 0.1289062,-0.1640625 0,-0.070312 -0.035156,-0.1054688 -0.09375,-0.1054688 -0.1054687,0 -0.9960937,0.6796875 -1.5820312,1.9453125 -0.515625,1.1015625 -0.63281251,2.203125 -0.63281251,3.0351563 0,0.7851562 0.11718751,1.99218746 0.65625001,3.11718746 0.5976562,1.21875004 1.453125,1.87500004 1.5585937,1.87500004 0.058594,0 0.09375,-0.035156 0.09375,-0.1054688 z m 0,0"
       style="fill:#000000;fill-opacity:1;fill-rule:nonzero;stroke:none"
       aria-label="("
       transform="matrix(1.3333333,0,0,1.3333333,456.37867,308.09067)" />
    <path
       id="path20"
       d="m 3.3292813,-3.0123359 c 0.058594,-0.2578125 0.2929687,-1.171875 0.984375,-1.171875 0.046875,0 0.2929687,0 0.5039062,0.1289062 -0.28125,0.046875 -0.4804687,0.3046875 -0.4804687,0.5390625 0,0.1640625 0.1054687,0.3515625 0.375,0.3515625 0.2226562,0 0.5390625,-0.1875 0.5390625,-0.5859375 0,-0.515625 -0.5859375,-0.65625 -0.9257813,-0.65625 -0.5742187,0 -0.9257812,0.5273438 -1.0429687,0.7617188 -0.2578125,-0.65625 -0.7851563,-0.7617188 -1.078125,-0.7617188 -1.0429688,0 -1.6054688,1.2890625 -1.6054688,1.5351563 0,0.1054687 0.10546875,0.1054687 0.1171875,0.1054687 0.0820313,0 0.1171875,-0.023437 0.12890625,-0.1171875 C 1.18475,-3.9381172 1.841,-4.1842109 2.1808438,-4.1842109 c 0.1875,0 0.5390625,0.09375 0.5390625,0.6679687 0,0.3046875 -0.1640625,0.9726563 -0.5390625,2.3671875 -0.1523438,0.62109376 -0.5039063,1.04296876 -0.9492188,1.04296876 -0.058594,0 -0.28125,0 -0.4921875,-0.12890625 0.24609375,-0.0585938 0.46875,-0.26953125 0.46875,-0.5390625 0,-0.26953121 -0.22265625,-0.35156251 -0.375,-0.35156251 -0.29296875,0 -0.5390625,0.25781251 -0.5390625,0.57421876 0,0.45703125 0.4921875,0.65625 0.9375,0.65625 0.65625,0 1.0078125,-0.69140625 1.0429688,-0.75 0.1171875,0.36328125 0.4804687,0.75 1.078125,0.75 1.0195312,0 1.59375,-1.27734376 1.59375,-1.53515626 0,-0.09375 -0.09375,-0.09375 -0.1289063,-0.09375 -0.082031,0 -0.1054687,0.035156 -0.1289062,0.1054688 -0.328125,1.06640621 -0.9960938,1.31249996 -1.3242188,1.31249996 -0.3867187,0 -0.5390625,-0.328125 -0.5390625,-0.65625 0,-0.22265625 0.058594,-0.44531246 0.1640625,-0.87890626 z m 4.3916015,2.99999996 c 0,-0.65625 -0.2578125,-1.04296876 -0.6445312,-1.04296876 -0.328125,0 -0.5273438,0.24609376 -0.5273438,0.52734376 0,0.26953125 0.1992188,0.5273437525 0.5273438,0.5273437525 0.1171875,0 0.2460937,-0.0351562525 0.3515625,-0.1289062525 0.023437,-0.0234375 0.035156,-0.0351563 0.046875,-0.0351563 0.011719,0 0.023437,0.0117188 0.023437,0.15234375 0,0.73828125 -0.3515625,1.33593749 -0.6796875,1.66406249 -0.1054688,0.1054687 -0.1054688,0.1289062 -0.1054688,0.1640625 0,0.070312 0.046875,0.1054687 0.09375,0.1054687 0.1171875,0 0.9140625,-0.7617187 0.914063,-1.93359364 z M 14.954281,-3.7974922 c 0.04687,-0.140625 0.04687,-0.1523437 0.04687,-0.2226562 0,-0.1875 -0.140625,-0.2695313 -0.292968,-0.2695313 -0.105469,0 -0.257813,0.058594 -0.351563,0.1992188 -0.02344,0.058594 -0.09375,0.3632812 -0.140625,0.5390625 -0.07031,0.2578125 -0.140625,0.5273437 -0.199219,0.796875 l -0.445312,1.79296871 c -0.03516,0.15234375 -0.46875,0.85546875 -1.125,0.85546875 -0.503906,0 -0.621094,-0.4453125 -0.621094,-0.80859375 0,-0.45703121 0.175781,-1.07812501 0.515625,-1.95703121 0.152344,-0.4101563 0.199219,-0.515625 0.199219,-0.7148438 0,-0.4453125 -0.328125,-0.8203125 -0.820313,-0.8203125 -0.949218,0 -1.3125,1.453125 -1.3125,1.5351563 0,0.1054687 0.09375,0.1054687 0.117188,0.1054687 0.09375,0 0.105469,-0.023437 0.152344,-0.1875 0.269531,-0.9375 0.667968,-1.2304687 1.007812,-1.2304687 0.08203,0 0.257813,0 0.257813,0.3164062 0,0.2460938 -0.105469,0.515625 -0.175782,0.703125 -0.398437,1.0546875 -0.574218,1.6171875 -0.574218,2.0859375 0,0.89062501 0.621093,1.18359376 1.21875,1.18359376 0.386718,0 0.726562,-0.1640625 0.996093,-0.4453125 -0.128906,0.515625 -0.246093,1.0078125 -0.644531,1.53515624 -0.257812,0.3398438 -0.632812,0.6328125 -1.089844,0.6328125 -0.140625,0 -0.597656,-0.035156 -0.761718,-0.421875 0.164062,0 0.292968,0 0.433593,-0.1171875 0.09375,-0.09375 0.199219,-0.2226562 0.199219,-0.41015624 0,-0.31640625 -0.269531,-0.3515625 -0.375,-0.3515625 -0.222656,0 -0.550781,0.1640625 -0.550781,0.64453124 0,0.5039063 0.433594,0.8671875 1.054687,0.8671875 1.019532,0 2.050782,-0.9023437 2.332032,-2.02734374 z m 0,0"
       style="fill:#000000;fill-opacity:1;fill-rule:nonzero;stroke:none"
       aria-label="x,y"
       transform="matrix(1.3333333,0,0,1.3333333,461.54533,308.09067)" />
    <path
       id="path21"
       d="m 2.88425,-2.4967109 c 0,-0.7734375 -0.1171875,-1.9804688 -0.65625,-3.1054688 -0.5976562,-1.21875 -1.46484375,-1.875 -1.55859375,-1.875 -0.0585938,0 -0.10546875,0.046875 -0.10546875,0.1054688 0,0.035156 0,0.046875 0.19921875,0.234375 0.97265625,0.984375 1.53515625,2.5664062 1.53515625,4.640625 0,1.71093746 -0.3632812,3.45703121 -1.59375,4.7226562 -0.140625,0.1171875 -0.140625,0.1289063 -0.140625,0.1640625 0,0.058594 0.046875,0.1054688 0.10546875,0.1054688 0.09375,0 0.99609375,-0.6796875 1.58203125,-1.94531254 C 2.7553438,-0.55139844 2.88425,-1.6529609 2.88425,-2.4967109 Z m 0,0"
       style="fill:#000000;fill-opacity:1;fill-rule:nonzero;stroke:none"
       aria-label=")"
       transform="matrix(1.3333333,0,0,1.3333333,482.02933,308.09067)" />
    <path
       id="path22"
       d="m 0.44450781,1.2199453 c -0.0820313,0.3398438 -0.09375,0.4101563 -0.5390625,0.4101563 -0.1171875,0 -0.22265625,0 -0.22265625,0.1875 0,0.082031 0.046875,0.1171875 0.12890625,0.1171875 0.26953125,0 0.55078125,-0.035156 0.83203125,-0.035156 0.328125,0 0.66796874,0.035156 0.98437504,0.035156 0.058594,0 0.1875,0 0.1875,-0.1992188 0,-0.1054687 -0.1054688,-0.1054687 -0.2460938,-0.1054687 -0.4921875,0 -0.4921875,-0.070312 -0.4921875,-0.1640625 0,-0.1171875 0.421875,-1.74609379 0.4804688,-1.99218754 0.140625,0.29296875 0.4101562,0.6328125 0.9257812,0.6328125 1.1484375,0 2.4023438,-1.45312496 2.4023438,-2.91796876 0,-0.9375 -0.5742188,-1.59375 -1.3359375,-1.59375 -0.4921875,0 -0.9726563,0.3632813 -1.3007813,0.75 -0.09375,-0.5390625 -0.5273437,-0.75 -0.890625,-0.75 -0.45703124,0 -0.65624999,0.3867188 -0.73828124,0.5742188 -0.1875,0.3398437 -0.31640625,0.9375 -0.31640625,0.9609375 0,0.1054687 0.10546875,0.1054687 0.12890625,0.1054687 0.09375,0 0.10546875,-0.011719 0.1640625,-0.234375 0.1640625,-0.703125 0.36328125,-1.1835937 0.72656254,-1.1835937 0.1757812,0 0.3046875,0.082031 0.3046875,0.4570312 0,0.234375 -0.023437,0.3398438 -0.070312,0.5039063 z M 2.2023203,-3.1042734 c 0.070312,-0.2695313 0.3398438,-0.5507813 0.515625,-0.703125 0.3515625,-0.3046875 0.6328125,-0.375 0.8085938,-0.375 0.3984375,0 0.6328125,0.3515625 0.6328125,0.9375 0,0.5859375 -0.328125,1.734375 -0.5039063,2.109375 -0.3398437,0.70312496 -0.8203125,1.03124996 -1.1835937,1.03124996 -0.65625,0 -0.7851563,-0.83203125 -0.7851563,-0.890625 0,-0.0234375 0,-0.0351563 0.023437,-0.16406246 z m 0,0"
       style="fill:#000000;fill-opacity:1;fill-rule:nonzero;stroke:none"
       aria-label="p"
       transform="matrix(1.3333333,0,0,1.3333333,374.93467,238.932)" />
    <path
       id="path23"
       d="m 2.0262344,-3.2920078 c 0.046875,-0.1171875 0.058594,-0.1757813 0.058594,-0.2226563 0,-0.2109375 -0.1992187,-0.3867187 -0.4101562,-0.3867187 -0.2695313,0 -0.3515625,0.2226562 -0.3867188,0.328125 l -0.91406247,3.02343749 c -0.0117188,0.0117188 -0.0351563,0.10546875 -0.0351563,0.1171875 0,0.0820313 0.2109375,0.15234375 0.26953125,0.15234375 0.046875,0 0.0585938,-0.0234375 0.10546875,-0.12890625 z m 0,0"
       style="fill:#000000;fill-opacity:1;fill-rule:nonzero;stroke:none"
       aria-label="0"
       transform="matrix(1.3333333,0,0,1.3333333,381.61867,234.112)" />
    <path
       id="path24"
       d="m 3.2917812,2.3918203 c 0,-0.035156 0,-0.046875 -0.1640625,-0.2226562 -1.2421875,-1.25390629 -1.5703125,-3.12890629 -1.5703125,-4.6640625 0,-1.7226563 0.3867188,-3.4570313 1.6054688,-4.7109375 0.1289062,-0.1171875 0.1289062,-0.1289063 0.1289062,-0.1640625 0,-0.070312 -0.035156,-0.1054688 -0.09375,-0.1054688 -0.1054687,0 -0.9960937,0.6796875 -1.5820312,1.9453125 -0.515625,1.1015625 -0.6328125,2.203125 -0.6328125,3.0351563 0,0.7851562 0.1171875,1.99218746 0.65625,3.11718746 0.5976562,1.21875004 1.453125,1.87500004 1.5585937,1.87500004 0.058594,0 0.09375,-0.035156 0.09375,-0.1054688 z m 0,0"
       style="fill:#000000;fill-opacity:1;fill-rule:nonzero;stroke:none"
       aria-label="("
       transform="matrix(1.3333333,0,0,1.3333333,385.34533,238.932)" />
    <path
       id="path25"
       d="m 3.3289141,-3.0105234 c 0.058594,-0.2578125 0.2929687,-1.171875 0.984375,-1.171875 0.046875,0 0.2929687,0 0.5039062,0.1289062 -0.28125,0.046875 -0.4804687,0.3046875 -0.4804687,0.5390625 0,0.1640625 0.1054687,0.3515625 0.375,0.3515625 0.2226562,0 0.5390625,-0.1875 0.5390625,-0.5859375 0,-0.515625 -0.5859375,-0.65625 -0.9257813,-0.65625 -0.5742187,0 -0.9257812,0.5273438 -1.0429687,0.7617188 -0.2578125,-0.65625 -0.7851563,-0.7617188 -1.078125,-0.7617188 -1.0429688,0 -1.60546879,1.2890625 -1.60546879,1.5351563 0,0.1054687 0.10546875,0.1054687 0.1171875,0.1054687 0.0820313,0 0.1171875,-0.023437 0.12890625,-0.1171875 0.33984374,-1.0546875 0.99609374,-1.3007812 1.33593754,-1.3007812 0.1875,0 0.5390625,0.09375 0.5390625,0.6679687 0,0.3046875 -0.1640625,0.9726563 -0.5390625,2.3671875 -0.1523438,0.62109376 -0.5039063,1.04296876 -0.9492188,1.04296876 -0.058594,0 -0.28124999,0 -0.49218749,-0.12890625 0.24609375,-0.0585938 0.46874999,-0.26953125 0.46874999,-0.5390625 0,-0.26953121 -0.22265624,-0.35156251 -0.37499999,-0.35156251 -0.29296875,0 -0.5390625,0.25781251 -0.5390625,0.57421876 0,0.45703125 0.4921875,0.65625 0.93749999,0.65625 0.65625,0 1.0078125,-0.69140625 1.0429688,-0.75 0.1171875,0.36328125 0.4804687,0.75 1.078125,0.75 1.0195312,0 1.59375,-1.27734376 1.59375,-1.53515626 0,-0.09375 -0.09375,-0.09375 -0.1289063,-0.09375 -0.082031,0 -0.1054687,0.035156 -0.1289062,0.1054688 -0.328125,1.06640621 -0.9960938,1.31249996 -1.3242188,1.31249996 -0.3867187,0 -0.5390625,-0.328125 -0.5390625,-0.65625 0,-0.22265625 0.058594,-0.44531246 0.1640625,-0.87890626 z m 0,0"
       style="fill:#000000;fill-opacity:1;fill-rule:nonzero;stroke:none"
       aria-label="x"
       transform="matrix(1.3333333,0,0,1.3333333,390.51067,238.932)" />
    <path
       id="path26"
       d="m 2.0265156,-3.2920078 c 0.046875,-0.1171875 0.058594,-0.1757813 0.058594,-0.2226563 0,-0.2109375 -0.1992188,-0.3867187 -0.4101563,-0.3867187 -0.2695312,0 -0.3515625,0.2226562 -0.3867187,0.328125 l -0.91406253,3.02343749 c -0.0117188,0.0117188 -0.0351563,0.10546875 -0.0351563,0.1171875 0,0.0820313 0.2109375,0.15234375 0.26953125,0.15234375 0.046875,0 0.0585938,-0.0234375 0.10546875,-0.12890625 z m 0,0"
       style="fill:#000000;fill-opacity:1;fill-rule:nonzero;stroke:none"
       aria-label="0"
       transform="matrix(1.3333333,0,0,1.3333333,398.10267,234.112)" />
    <path
       id="path27"
       d="m 2.0264375,-0.01052344 c 0,-0.65625 -0.2578125,-1.04296876 -0.6445313,-1.04296876 -0.328125,0 -0.5273437,0.24609376 -0.5273437,0.52734376 0,0.26953125 0.1992187,0.52734375 0.5273437,0.52734375 0.1171875,0 0.2460938,-0.03515625 0.3515625,-0.12890625 0.023437,-0.0234375 0.035156,-0.0351563 0.046875,-0.0351563 0.011719,0 0.023437,0.0117188 0.023437,0.15234375 0,0.73828125 -0.3515625,1.33593749 -0.6796875,1.66406249 C 1.018625,1.7590078 1.018625,1.7824453 1.018625,1.8176016 c 0,0.070312 0.046875,0.1054687 0.09375,0.1054687 0.1171875,0 0.9140625,-0.7617187 0.9140625,-1.93359374 z M 9.2598359,-3.7956797 c 0.046875,-0.140625 0.046875,-0.1523437 0.046875,-0.2226562 0,-0.1875 -0.140625,-0.2695313 -0.2929687,-0.2695313 -0.1054688,0 -0.2578125,0.058594 -0.3515625,0.1992188 -0.023437,0.058594 -0.09375,0.3632812 -0.140625,0.5390625 -0.070312,0.2578125 -0.140625,0.5273437 -0.1992188,0.796875 l -0.4453125,1.79296871 c -0.035156,0.15234375 -0.46875,0.85546875 -1.125,0.85546875 -0.5039062,0 -0.6210937,-0.4453125 -0.6210937,-0.80859375 0,-0.45703121 0.1757812,-1.07812501 0.515625,-1.95703121 0.1523437,-0.4101563 0.1992187,-0.515625 0.1992187,-0.7148438 0,-0.4453125 -0.328125,-0.8203125 -0.8203125,-0.8203125 -0.9492187,0 -1.3125,1.453125 -1.3125,1.5351563 0,0.1054687 0.09375,0.1054687 0.1171875,0.1054687 0.09375,0 0.1054688,-0.023437 0.1523438,-0.1875 0.2695312,-0.9375 0.6679687,-1.2304687 1.0078125,-1.2304687 0.082031,0 0.2578125,0 0.2578125,0.3164062 0,0.2460938 -0.1054688,0.515625 -0.1757813,0.703125 -0.3984375,1.0546875 -0.5742187,1.6171875 -0.5742187,2.0859375 0,0.89062501 0.6210937,1.18359376 1.21875,1.18359376 0.3867187,0 0.7265625,-0.1640625 0.9960937,-0.4453125 -0.1289062,0.515625 -0.2460937,1.0078125 -0.6445312,1.53515624 -0.2578125,0.3398438 -0.6328125,0.6328125 -1.0898438,0.6328125 -0.140625,0 -0.5976562,-0.035156 -0.7617187,-0.421875 0.1640625,0 0.2929687,0 0.4335937,-0.1171875 0.09375,-0.09375 0.1992188,-0.2226562 0.1992188,-0.41015624 0,-0.31640625 -0.2695313,-0.3515625 -0.375,-0.3515625 -0.2226563,0 -0.5507813,0.1640625 -0.5507813,0.64453124 0,0.5039063 0.4335938,0.8671875 1.0546875,0.8671875 1.0195313,0 2.0507813,-0.9023437 2.3320313,-2.02734374 z m 0,0"
       style="fill:#000000;fill-opacity:1;fill-rule:nonzero;stroke:none"
       aria-label=",y"
       transform="matrix(1.3333333,0,0,1.3333333,401.82933,238.932)" />
    <path
       id="path28"
       d="m 2.0273359,-3.2920078 c 0.046875,-0.1171875 0.058594,-0.1757813 0.058594,-0.2226563 0,-0.2109375 -0.1992188,-0.3867187 -0.4101563,-0.3867187 -0.2695312,0 -0.3515625,0.2226562 -0.3867187,0.328125 l -0.91406251,3.02343749 c -0.0117188,0.0117188 -0.0351563,0.10546875 -0.0351563,0.1171875 0,0.0820313 0.2109375,0.15234375 0.26953125,0.15234375 0.046875,0 0.0585938,-0.0234375 0.10546875,-0.12890625 z m 0,0"
       style="fill:#000000;fill-opacity:1;fill-rule:nonzero;stroke:none"
       aria-label="0"
       transform="matrix(1.3333333,0,0,1.3333333,414.72267,234.112)" />
    <path
       id="path29"
       d="m 2.8827266,-2.4948984 c 0,-0.7734375 -0.1171875,-1.9804688 -0.65625,-3.1054688 -0.5976563,-1.21875 -1.46484379,-1.875 -1.55859379,-1.875 -0.0585938,0 -0.10546875,0.046875 -0.10546875,0.1054688 0,0.035156 0,0.046875 0.19921875,0.234375 0.97265629,0.984375 1.53515629,2.5664062 1.53515629,4.640625 0,1.71093746 -0.3632813,3.45703121 -1.59375004,4.7226562 -0.140625,0.1171875 -0.140625,0.1289063 -0.140625,0.1640625 0,0.058594 0.046875,0.1054688 0.10546875,0.1054688 0.09375,0 0.99609379,-0.6796875 1.58203129,-1.94531254 0.5039062,-1.1015625 0.6328125,-2.20312496 0.6328125,-3.04687496 z m 0,0"
       style="fill:#000000;fill-opacity:1;fill-rule:nonzero;stroke:none"
       aria-label=")"
       transform="matrix(1.3333333,0,0,1.3333333,418.44933,238.932)" />
  </g>
</svg>
