<svg xmlns="http://www.w3.org/2000/svg" width="414.391" height="416.576"><path d="M0 0h170.08M0 28.347h170.08M0 56.694h170.08M0 85.04h170.08M0 113.387h170.08M0 141.734h170.08M0 170.071h170.08M0 0v170.08M28.347 0v170.08M56.694 0v170.08M85.04 0v170.08M113.387 0v170.08M141.734 0v170.08M170.071 0v170.08" style="fill:none;stroke:gray;stroke-width:.19925;stroke-linecap:butt;stroke-linejoin:miter;stroke-miterlimit:10;stroke-dasharray:none;stroke-opacity:1" transform="matrix(2 0 0 -2 56.694 359.882)"/><path d="M-28.347 0h197.97" style="fill:none;stroke:#000;stroke-width:.3985;stroke-linecap:butt;stroke-linejoin:miter;stroke-miterlimit:10;stroke-dasharray:none;stroke-opacity:1" transform="matrix(2 0 0 -2 56.694 359.882)"/><path d="M-1.196 1.594C-1.096.996 0 .1.3 0 0-.1-1.096-.996-1.196-1.594" style="fill:none;stroke:#000;stroke-width:.31879;stroke-linecap:round;stroke-linejoin:round;stroke-miterlimit:10;stroke-dasharray:none;stroke-opacity:1" transform="matrix(2 0 0 -2 395.939 359.882)"/><path d="M3.329-3.008c.055-.258.289-1.172.984-1.172.047 0 .29 0 .5.125a.57.57 0 0 0-.476.54c0 .156.11.35.375.35.218 0 .539-.179.539-.577 0-.524-.586-.664-.93-.664-.578 0-.922.53-1.047.758-.242-.657-.781-.758-1.07-.758-1.04 0-1.61 1.289-1.61 1.539 0 .101.102.101.126.101.078 0 .109-.023.125-.11.343-1.062 1-1.304 1.335-1.304.188 0 .54.086.54.664 0 .305-.172.977-.54 2.368-.156.617-.507 1.039-.945 1.039-.062 0-.289 0-.5-.133.25-.047.469-.258.469-.531 0-.274-.219-.352-.367-.352-.297 0-.547.258-.547.578 0 .461.5.656.937.656.657 0 1.016-.695 1.047-.757.117.367.477.757 1.07.757 1.032 0 1.594-1.28 1.594-1.53 0-.102-.086-.102-.117-.102-.086 0-.11.039-.125.109C4.36-.352 3.688-.11 3.368-.11c-.39 0-.547-.32-.547-.657 0-.218.055-.437.164-.875zm0 0" aria-label="x" style="fill:#000;fill-opacity:1;fill-rule:nonzero;stroke:none" transform="matrix(2 0 0 2 403.89 364.172)"/><path d="M0-28.347v197.97" style="fill:none;stroke:#000;stroke-width:.3985;stroke-linecap:butt;stroke-linejoin:miter;stroke-miterlimit:10;stroke-dasharray:none;stroke-opacity:1" transform="matrix(2 0 0 -2 56.694 359.882)"/><path d="M-1.196 1.594C-1.096.996 0 .1.3 0 0-.1-1.096-.996-1.196-1.594" style="fill:none;stroke:#000;stroke-width:.31879;stroke-linecap:round;stroke-linejoin:round;stroke-miterlimit:10;stroke-dasharray:none;stroke-opacity:1" transform="matrix(0 -2 -2 0 56.694 20.637)"/><path d="M4.843-3.797c.039-.14.039-.156.039-.226 0-.18-.14-.274-.29-.274a.45.45 0 0 0-.35.211c-.016.055-.102.36-.141.54-.07.257-.141.53-.196.796L3.452-.953c-.039.149-.469.844-1.125.844-.508 0-.617-.438-.617-.805 0-.46.172-1.078.508-1.953.164-.406.203-.516.203-.719 0-.445-.32-.82-.82-.82-.946 0-1.313 1.445-1.313 1.54 0 .1.102.1.117.1.102 0 .11-.023.164-.18.266-.937.664-1.233 1-1.233.086 0 .25 0 .25.312 0 .25-.093.508-.164.703-.398 1.055-.578 1.617-.578 2.086 0 .89.625 1.188 1.211 1.188.39 0 .727-.172 1.008-.446-.133.516-.25 1-.648 1.532-.258.336-.633.625-1.094.625-.14 0-.586-.032-.758-.414.156 0 .289 0 .43-.125A.52.52 0 0 0 1.42.875c0-.304-.266-.343-.367-.343-.227 0-.555.156-.555.64 0 .5.438.867 1.055.867 1.023 0 2.054-.906 2.328-2.03zm0 0" aria-label="y" style="fill:#000;fill-opacity:1;fill-rule:nonzero;stroke:none" transform="matrix(2 0 0 2 51.452 8.812)"/><path d="m0 0 122.746 70.867M0 0l70.867 122.746" style="fill:none;stroke:#000;stroke-width:.79701;stroke-linecap:butt;stroke-linejoin:miter;stroke-miterlimit:10;stroke-dasharray:none;stroke-opacity:1" transform="matrix(2 0 0 -2 56.694 359.882)"/><path d="M123.742 70.867a.996.996 0 1 1-1.993 0 .996.996 0 0 1 1.993 0M71.863 122.746a.996.996 0 1 1-1.992 0 .996.996 0 0 1 1.992 0" style="fill:#000;fill-opacity:1;fill-rule:nonzero;stroke:none" transform="matrix(2 0 0 -2 56.694 359.882)"/><path d="M28.347 0c0 4.975-1.31 9.865-3.444 13.56" style="fill:none;stroke:#000;stroke-width:.79701;stroke-linecap:butt;stroke-linejoin:miter;stroke-miterlimit:10;stroke-dasharray:none;stroke-opacity:1" transform="matrix(2 0 0 -2 56.694 359.882)"/><path d="M-1.554 2.072C-1.424 1.295 0 .13.389 0 0-.13-1.425-1.295-1.554-2.072" style="fill:none;stroke:#000;stroke-width:.6376;stroke-linecap:round;stroke-linejoin:round;stroke-miterlimit:10;stroke-dasharray:none;stroke-opacity:1" transform="matrix(-1 -1.73202 -1.73202 1 106.5 332.76)"/><path d="M4.75-2.352c0-1.562-.921-2.054-1.663-2.054-1.36 0-2.68 1.43-2.68 2.836 0 .922.601 1.68 1.617 1.68.625 0 1.344-.227 2.102-.837.125.532.453.836.906.836.523 0 .836-.546.836-.703 0-.07-.063-.101-.117-.101-.07 0-.102.031-.133.101-.18.485-.54.485-.555.485-.312 0-.312-.774-.312-1.016 0-.21 0-.227.101-.352.938-1.171 1.149-2.328 1.149-2.335 0-.024-.016-.102-.125-.102-.102 0-.102.031-.149.21-.18.626-.508 1.384-.976 1.97zM4.088-.984C3.212-.22 2.438-.11 2.04-.11c-.594 0-.89-.446-.89-1.086 0-.485.257-1.563.577-2.07.461-.727 1-.915 1.352-.915.984 0 .984 1.305.984 2.078 0 .368 0 .946.024 1.118m0 0" aria-label="α" style="fill:#000;fill-opacity:1;fill-rule:nonzero;stroke:none" transform="matrix(2 0 0 2 118.316 347.164)"/><path d="M36.824 21.26c-3.731 6.462-9.102 11.833-14.951 15.21" style="fill:none;stroke:#000;stroke-width:.79701;stroke-linecap:butt;stroke-linejoin:miter;stroke-miterlimit:10;stroke-dasharray:none;stroke-opacity:1" transform="matrix(2 0 0 -2 56.694 359.882)"/><path d="M-1.554 2.072C-1.424 1.295 0 .13.389 0 0-.13-1.425-1.295-1.554-2.072" style="fill:none;stroke:#000;stroke-width:.6376;stroke-linecap:round;stroke-linejoin:round;stroke-miterlimit:10;stroke-dasharray:none;stroke-opacity:1" transform="scale(-1.99995 1.99995)rotate(-29.999 242.622 165.452)"/><path d="M5.727-5.664c0-.75-.547-1.367-1.352-1.367-.578 0-.86.156-1.21.414-.548.398-1.095 1.367-1.282 2.125L.297 1.836c-.008.039.039.093.125.093.078 0 .11-.015.117-.046l.695-2.75C1.422-.266 1.86.1 2.586.1c.734 0 1.476-.351 1.93-.789.476-.46.796-1.093.796-1.836 0-.71-.375-1.234-.734-1.484.578-.328 1.149-.945 1.149-1.656m-1.79 1.648c-.132.055-.242.07-.484.07-.133 0-.336.008-.437-.039.023-.101.382-.078.492-.078.21 0 .297 0 .43.047m1.235-1.883c0 .696-.383 1.414-.899 1.727-.265-.102-.468-.125-.765-.125-.211 0-.766-.008-.766.32-.015.281.508.25.688.25.367 0 .515-.008.812-.125.383.352.43.664.438 1.125.023.578-.22 1.32-.5 1.711-.383.54-1.055.899-1.618.899-.757 0-1.14-.579-1.14-1.29 0-.101 0-.25.055-.437l.632-2.516c.22-.859.938-2.445 2.133-2.445.578 0 .93.313.93.906m0 0" aria-label="β" style="fill:#000;fill-opacity:1;fill-rule:nonzero;stroke:none" transform="matrix(2 0 0 2 130.708 284.688)"/><path d="M.446 1.22c-.078.335-.094.406-.531.406-.125 0-.235 0-.235.187 0 .078.055.117.133.117.266 0 .555-.023.836-.023.328 0 .664.023.985.023.046 0 .18 0 .18-.195 0-.11-.102-.11-.243-.11-.492 0-.492-.07-.492-.164 0-.117.414-1.742.484-1.992.133.29.407.64.914.64 1.157 0 2.407-1.452 2.407-2.921 0-.93-.57-1.594-1.329-1.594-.5 0-.976.36-1.304.75-.102-.539-.524-.75-.899-.75-.453 0-.64.39-.734.57-.18.337-.305.938-.305.97 0 .1.094.1.117.1.102 0 .11-.015.165-.233.171-.704.375-1.18.734-1.18.164 0 .305.078.305.453 0 .227-.032.344-.07.508zM2.204-3.11c.07-.265.336-.547.516-.695.351-.313.64-.375.804-.375.399 0 .64.344.64.93 0 .593-.327 1.734-.507 2.117C3.321-.437 2.837-.11 2.47-.11c-.657 0-.79-.828-.79-.883 0-.023 0-.047.032-.164zm0 0" aria-label="p" style="fill:#000;fill-opacity:1;fill-rule:nonzero;stroke:none" transform="matrix(2 0 0 2 274.058 206.124)"/><path d="M3.297 2.391c0-.031 0-.047-.172-.219C1.883.915 1.563-.968 1.563-2.492c0-1.734.383-3.46 1.602-4.71.132-.118.132-.141.132-.165 0-.07-.039-.101-.101-.101-.094 0-.992.672-1.578 1.937C1.11-4.429.985-3.328.985-2.49c0 .78.11 1.984.656 3.109.602 1.226 1.461 1.875 1.555 1.875.062 0 .101-.032.101-.102m0 0" aria-label="(" style="fill:#000;fill-opacity:1;fill-rule:nonzero;stroke:none" transform="matrix(2 0 0 2 284.082 206.124)"/><path d="M3.328-3.007c.054-.258.289-1.172.984-1.172.047 0 .29 0 .5.125a.57.57 0 0 0-.477.539c0 .156.11.351.375.351.22 0 .54-.18.54-.578 0-.523-.586-.664-.93-.664-.578 0-.922.532-1.047.758-.242-.656-.781-.758-1.07-.758-1.04 0-1.61 1.29-1.61 1.54 0 .1.102.1.125.1.078 0 .11-.023.125-.108.344-1.063 1-1.305 1.336-1.305.188 0 .54.086.54.664 0 .305-.173.976-.54 2.367-.156.617-.508 1.04-.945 1.04-.063 0-.29 0-.5-.134.25-.047.469-.257.469-.53 0-.274-.22-.352-.368-.352-.296 0-.546.257-.546.578 0 .46.5.656.937.656.656 0 1.016-.695 1.047-.758.117.367.477.758 1.07.758 1.032 0 1.594-1.281 1.594-1.531 0-.102-.086-.102-.117-.102-.086 0-.11.04-.125.11C4.359-.352 3.687-.11 3.367-.11c-.39 0-.547-.32-.547-.656 0-.219.055-.438.164-.875zm4.388 3c0-.657-.25-1.047-.64-1.047a.51.51 0 0 0-.524.523c0 .274.196.532.524.532.125 0 .25-.04.351-.133.032-.016.04-.024.047-.024.008 0 .024.008.024.149 0 .734-.352 1.336-.68 1.664-.11.11-.11.125-.11.156 0 .07.047.11.102.11.11 0 .906-.766.906-1.93m7.243-3.79c.039-.14.039-.156.039-.226 0-.18-.141-.273-.29-.273a.45.45 0 0 0-.351.21c-.016.055-.102.36-.14.54-.071.257-.141.53-.196.797l-.453 1.796c-.04.149-.469.844-1.125.844-.508 0-.617-.437-.617-.805 0-.46.172-1.078.508-1.953.164-.406.203-.515.203-.718 0-.446-.32-.82-.82-.82-.946 0-1.313 1.445-1.313 1.538 0 .102.101.102.117.102.102 0 .11-.024.164-.18.266-.937.664-1.234 1-1.234.086 0 .25 0 .25.312 0 .25-.094.508-.164.703-.398 1.055-.578 1.618-.578 2.086 0 .891.625 1.188 1.21 1.188.391 0 .727-.172 1.009-.445-.133.515-.25 1-.649 1.53-.258.337-.633.626-1.094.626-.14 0-.585-.031-.757-.414.156 0 .289 0 .43-.125a.52.52 0 0 0 .195-.406c0-.305-.266-.344-.368-.344-.226 0-.554.156-.554.64 0 .5.437.868 1.054.868 1.024 0 2.055-.907 2.329-2.032zm0 0" aria-label="x,y" style="fill:#000;fill-opacity:1;fill-rule:nonzero;stroke:none" transform="matrix(2 0 0 2 291.83 206.124)"/><path d="M2.876-2.492c0-.773-.11-1.976-.656-3.11C1.626-6.82.766-7.467.665-7.467c-.055 0-.094.039-.094.101 0 .024 0 .047.188.227.976.984 1.546 2.57 1.546 4.648C2.305-.789 1.93.97.696 2.22c-.125.125-.125.14-.125.172 0 .063.04.102.094.102.101 0 1-.68 1.586-1.946.508-1.093.625-2.203.625-3.039m0 0" aria-label=")" style="fill:#000;fill-opacity:1;fill-rule:nonzero;stroke:none" transform="matrix(2 0 0 2 322.558 206.124)"/><path d="M.445 1.22c-.078.335-.094.405-.531.405-.125 0-.235 0-.235.188 0 .078.055.117.133.117.266 0 .555-.023.836-.023.328 0 .664.023.984.023.047 0 .18 0 .18-.195 0-.11-.102-.11-.242-.11-.492 0-.492-.07-.492-.164 0-.117.414-1.742.484-1.992.133.29.406.64.914.64 1.156 0 2.406-1.452 2.406-2.921 0-.93-.57-1.594-1.328-1.594-.5 0-.976.36-1.304.75-.102-.539-.524-.75-.899-.75-.453 0-.64.39-.734.57-.18.336-.305.938-.305.97 0 .1.094.1.117.1.102 0 .11-.015.164-.234.172-.703.375-1.18.735-1.18.164 0 .304.079.304.454 0 .226-.03.344-.07.508zM2.203-3.11c.07-.266.336-.547.515-.695.352-.313.64-.375.805-.375.398 0 .64.343.64.93 0 .593-.328 1.734-.507 2.117C3.32-.437 2.836-.11 2.468-.11c-.656 0-.789-.828-.789-.883 0-.023 0-.047.031-.164zm0 0" aria-label="p" style="fill:#000;fill-opacity:1;fill-rule:nonzero;stroke:none" transform="matrix(2 0 0 2 161.916 102.386)"/><path d="M2.023-3.289a.5.5 0 0 0 .062-.226c0-.22-.195-.383-.414-.383-.266 0-.344.21-.383.328L.366-.555a1 1 0 0 0-.03.118c0 .078.218.148.273.148.046 0 .054-.008.101-.117zm0 0" aria-label="0" style="fill:#000;fill-opacity:1;fill-rule:nonzero;stroke:none" transform="matrix(2 0 0 2 171.94 95.156)"/><path d="M3.296 2.391c0-.031 0-.047-.172-.219C1.882.914 1.562-.968 1.562-2.492c0-1.734.382-3.46 1.601-4.71.133-.118.133-.141.133-.165 0-.07-.039-.101-.102-.101-.093 0-.992.671-1.578 1.937C1.11-4.429.984-3.328.984-2.49c0 .78.109 1.984.656 3.109.601 1.226 1.46 1.875 1.554 1.875.063 0 .102-.032.102-.102m0 0" aria-label="(" style="fill:#000;fill-opacity:1;fill-rule:nonzero;stroke:none" transform="matrix(2 0 0 2 177.53 102.386)"/><path d="M3.327-3.007c.055-.258.29-1.172.985-1.172.047 0 .289 0 .5.125a.57.57 0 0 0-.477.539c0 .156.11.351.375.351.219 0 .54-.18.54-.578 0-.523-.587-.664-.93-.664-.579 0-.922.531-1.047.758-.243-.656-.782-.758-1.07-.758-1.04 0-1.61 1.29-1.61 1.54 0 .1.101.1.125.1.078 0 .11-.023.125-.109.344-1.062 1-1.304 1.336-1.304.187 0 .539.086.539.664 0 .304-.172.976-.54 2.367-.155.617-.507 1.039-.944 1.039-.063 0-.29 0-.5-.133.25-.047.468-.258.468-.531 0-.274-.218-.352-.367-.352-.297 0-.547.258-.547.578 0 .461.5.657.938.657.656 0 1.015-.696 1.047-.758.117.367.476.758 1.07.758 1.031 0 1.594-1.282 1.594-1.532 0-.101-.086-.101-.118-.101-.085 0-.109.039-.125.11C4.36-.352 3.687-.11 3.366-.11c-.39 0-.547-.32-.547-.656 0-.219.055-.438.165-.875zm0 0" aria-label="x" style="fill:#000;fill-opacity:1;fill-rule:nonzero;stroke:none" transform="matrix(2 0 0 2 185.28 102.386)"/><path d="M2.024-3.289a.5.5 0 0 0 .062-.226c0-.22-.195-.383-.414-.383-.265 0-.343.21-.382.328L.368-.555a1 1 0 0 0-.032.118c0 .078.22.148.274.148.047 0 .055-.008.101-.117zm0 0" aria-label="0" style="fill:#000;fill-opacity:1;fill-rule:nonzero;stroke:none" transform="matrix(2 0 0 2 196.668 95.156)"/><path d="M2.024-.007c0-.657-.25-1.047-.64-1.047a.51.51 0 0 0-.524.523c0 .274.195.531.523.531.125 0 .25-.039.352-.132.031-.016.039-.024.047-.024.007 0 .023.008.023.149 0 .734-.351 1.335-.68 1.664-.109.109-.109.125-.109.156 0 .07.047.11.102.11.109 0 .906-.766.906-1.93m7.242-3.79c.04-.14.04-.156.04-.226 0-.18-.142-.274-.29-.274a.45.45 0 0 0-.352.211c-.015.055-.101.36-.14.54-.07.257-.14.53-.195.796L7.875-.953c-.039.149-.468.844-1.125.844-.507 0-.617-.438-.617-.805 0-.46.172-1.078.508-1.953.164-.406.203-.515.203-.719 0-.445-.32-.82-.82-.82-.945 0-1.313 1.445-1.313 1.54 0 .1.102.1.118.1.101 0 .109-.023.164-.179.265-.937.664-1.234 1-1.234.086 0 .25 0 .25.312 0 .25-.094.508-.164.703C5.68-2.109 5.5-1.547 5.5-1.078 5.5-.188 6.125.11 6.711.11c.39 0 .727-.172 1.008-.446-.133.516-.25 1-.648 1.532-.258.336-.633.625-1.094.625-.14 0-.586-.032-.758-.414.156 0 .29 0 .43-.125a.52.52 0 0 0 .195-.407c0-.304-.265-.343-.367-.343-.227 0-.555.156-.555.64 0 .5.438.867 1.055.867C7 2.04 8.032 1.133 8.305.01zm0 0" aria-label=",y" style="fill:#000;fill-opacity:1;fill-rule:nonzero;stroke:none" transform="matrix(2 0 0 2 202.258 102.386)"/><path d="M2.024-3.289a.5.5 0 0 0 .062-.226c0-.22-.195-.383-.414-.383-.265 0-.344.21-.383.328L.367-.555a1 1 0 0 0-.03.118c0 .078.218.148.273.148.047 0 .054-.008.101-.117zm0 0" aria-label="0" style="fill:#000;fill-opacity:1;fill-rule:nonzero;stroke:none" transform="matrix(2 0 0 2 221.598 95.156)"/><path d="M2.875-2.492c0-.773-.11-1.976-.656-3.11C1.625-6.82.766-7.467.664-7.467c-.054 0-.093.039-.093.101 0 .024 0 .047.187.227.977.984 1.547 2.57 1.547 4.648C2.305-.789 1.93.97.695 2.22c-.124.125-.124.14-.124.172 0 .062.039.102.093.102.102 0 1-.68 1.586-1.946.508-1.094.625-2.203.625-3.039m0 0" aria-label=")" style="fill:#000;fill-opacity:1;fill-rule:nonzero;stroke:none" transform="matrix(2 0 0 2 227.188 102.386)"/><path d="M0 0c-.2 3.336 1.823 6.805 6.137 9.295l44.118 25.471c4.314 2.49 6.338 5.96 6.137 9.295 2.789-1.84 6.805-1.823 11.119.668l44.118 25.47c4.314 2.491 8.33 2.51 11.118.668" style="fill:none;stroke:#000;stroke-width:.79701;stroke-linecap:butt;stroke-linejoin:miter;stroke-miterlimit:10;stroke-dasharray:2.98883,2.98883;stroke-dashoffset:0;stroke-opacity:1" transform="matrix(2 0 0 -2 56.694 359.882)"/><path d="M.875-.586c-.032.148-.086.375-.086.43 0 .18.14.265.289.265a.405.405 0 0 0 .367-.28c.015-.04.36-1.392.398-1.571.078-.328.258-1.024.32-1.297.04-.125.313-.594.555-.813.078-.07.367-.328.797-.328.258 0 .406.117.422.117-.305.047-.523.29-.523.547 0 .157.109.352.382.352.266 0 .547-.234.547-.594 0-.344-.32-.648-.828-.648-.648 0-1.086.492-1.273.773a.9.9 0 0 0-.907-.773c-.46 0-.648.39-.742.57-.172.336-.304.938-.304.969 0 .101.101.101.117.101.101 0 .11-.015.172-.234.172-.703.367-1.18.726-1.18.172 0 .313.078.313.453 0 .211-.032.32-.164.836zm0 0" aria-label="r" style="fill:#000;fill-opacity:1;fill-rule:nonzero;stroke:none" transform="matrix(2 0 0 2 174.666 257.668)"/></svg>