<?xml version="1.0" encoding="UTF-8" standalone="no"?>
<!-- Created with Inkscape (http://www.inkscape.org/) -->

<svg
   version="1.1"
   id="svg1"
   width="414.39117"
   height="416.57559"
   viewBox="0 0 414.39117 416.57559"
   xmlns="http://www.w3.org/2000/svg"
   xmlns:svg="http://www.w3.org/2000/svg">
  <defs
     id="defs1" />
  <g
     id="g1"
     transform="translate(-196.73773,-311.80469)">
    <path
       id="path1"
       d="M 0,0 H 170.08086 M 0,28.3468 H 170.08086 M 0,56.69362 H 170.08086 M 0,85.04042 H 170.08086 M 0,113.38724 H 170.08086 M 0,141.73404 H 170.08086 M 0,170.07089 H 170.08086 M 0,0 V 170.08086 M 28.3468,0 V 170.08086 M 56.69362,0 V 170.08086 M 85.04042,0 V 170.08086 M 113.38724,0 V 170.08086 M 141.73404,0 V 170.08086 M 170.07089,0 v 170.08086"
       style="fill:none;stroke:#808080;stroke-width:0.19925;stroke-linecap:butt;stroke-linejoin:miter;stroke-miterlimit:10;stroke-dasharray:none;stroke-opacity:1"
       transform="matrix(2,0,0,-2,253.43133,671.68667)" />
    <path
       id="path2"
       d="M -28.3468,0 H 169.62257"
       style="fill:none;stroke:#000000;stroke-width:0.3985;stroke-linecap:butt;stroke-linejoin:miter;stroke-miterlimit:10;stroke-dasharray:none;stroke-opacity:1"
       transform="matrix(2,0,0,-2,253.43133,671.68667)" />
    <path
       id="path3"
       d="M -1.19551,1.59401 C -1.09587,0.99626 0,0.09961 0.29886,0 0,-0.09961 -1.09587,-0.99626 -1.19551,-1.59401"
       style="fill:none;stroke:#000000;stroke-width:0.31879;stroke-linecap:round;stroke-linejoin:round;stroke-miterlimit:10;stroke-dasharray:none;stroke-opacity:1"
       transform="matrix(2,0,0,-2,592.67647,671.68667)" />
    <path
       id="path4"
       d="m 3.3289115,-3.0078646 c 0.054687,-0.2578125 0.2890625,-1.171875 0.984375,-1.171875 0.046875,0 0.2890625,0 0.5,0.125 -0.28125,0.046875 -0.4765625,0.296875 -0.4765625,0.5390625 0,0.15625 0.109375,0.3515625 0.375,0.3515625 0.21875,0 0.5390625,-0.1796875 0.5390625,-0.578125 0,-0.5234375 -0.5859375,-0.6640625 -0.9296875,-0.6640625 -0.578125,0 -0.921875,0.53125 -1.046875,0.7578125 -0.2421875,-0.65625 -0.78125,-0.7578125 -1.0703125,-0.7578125 -1.0390625,0 -1.60937504,1.2890625 -1.60937504,1.5390625 0,0.1015625 0.1015625,0.1015625 0.125,0.1015625 0.078125,0 0.109375,-0.023437 0.125,-0.109375 0.34375004,-1.0625 1.00000004,-1.3046875 1.33593754,-1.3046875 0.1875,0 0.5390625,0.085937 0.5390625,0.6640625 0,0.3046875 -0.171875,0.9765625 -0.5390625,2.3671875 -0.15625,0.61718752 -0.5078125,1.03906252 -0.9453125,1.03906252 -0.0625,0 -0.28906254,0 -0.50000004,-0.1328125 0.25,-0.046875 0.46875004,-0.2578125 0.46875004,-0.53125 0,-0.27343752 -0.21875004,-0.35156252 -0.36718754,-0.35156252 -0.296875,0 -0.546875,0.25781252 -0.546875,0.57812502 0,0.4609375 0.5,0.65625 0.93750004,0.65625 0.65625,0 1.015625,-0.6953125 1.046875,-0.7578125 0.1171875,0.3671875 0.4765625,0.7578125 1.0703125,0.7578125 1.03125,0 1.59375,-1.28125002 1.59375,-1.53125002 0,-0.1015625 -0.085937,-0.1015625 -0.1171875,-0.1015625 -0.085937,0 -0.109375,0.039063 -0.125,0.109375 -0.3359375,1.06250002 -1.0078125,1.30468752 -1.328125,1.30468752 -0.390625,0 -0.546875,-0.3203125 -0.546875,-0.65625 0,-0.21875 0.054687,-0.43750002 0.1640625,-0.87500002 z m 0,0"
       style="fill:#000000;fill-opacity:1;fill-rule:nonzero;stroke:none"
       aria-label="x"
       transform="matrix(2,0,0,2,600.62733,675.97667)" />
    <path
       id="path5"
       d="M 0,-28.3468 V 169.62257"
       style="fill:none;stroke:#000000;stroke-width:0.3985;stroke-linecap:butt;stroke-linejoin:miter;stroke-miterlimit:10;stroke-dasharray:none;stroke-opacity:1"
       transform="matrix(2,0,0,-2,253.43133,671.68667)" />
    <path
       id="path6"
       d="M -1.19551,1.59401 C -1.09587,0.99626 0,0.09961 0.29886,0 0,-0.09961 -1.09587,-0.99626 -1.19551,-1.59401"
       style="fill:none;stroke:#000000;stroke-width:0.31879;stroke-linecap:round;stroke-linejoin:round;stroke-miterlimit:10;stroke-dasharray:none;stroke-opacity:1"
       transform="matrix(0,-2,-2,0,253.43133,332.44153)" />
    <path
       id="path7"
       d="m 4.8428333,-3.7966146 c 0.039063,-0.140625 0.039063,-0.15625 0.039063,-0.2265625 0,-0.1796875 -0.140625,-0.2734375 -0.2890625,-0.2734375 -0.1015625,0 -0.2578125,0.0625 -0.3515625,0.2109375 -0.015625,0.054687 -0.1015625,0.359375 -0.140625,0.5390625 -0.070312,0.2578125 -0.140625,0.53125 -0.1953125,0.796875 l -0.453125,1.79687502 c -0.039063,0.1484375 -0.46875,0.84375 -1.125,0.84375 -0.5078125,0 -0.6171875,-0.4375 -0.6171875,-0.8046875 0,-0.46093752 0.171875,-1.07812502 0.5078125,-1.95312502 0.1640625,-0.40625 0.203125,-0.515625 0.203125,-0.71875 0,-0.4453125 -0.3203125,-0.8203125 -0.8203125,-0.8203125 -0.94531247,0 -1.31249997,1.4453125 -1.31249997,1.5390625 0,0.1015625 0.1015625,0.1015625 0.1171875,0.1015625 0.1015625,0 0.109375,-0.023437 0.1640625,-0.1796875 0.265625,-0.9375 0.66406247,-1.234375 0.99999997,-1.234375 0.085937,0 0.25,0 0.25,0.3125 0,0.25 -0.09375,0.5078125 -0.1640625,0.703125 -0.3984375,1.0546875 -0.578125,1.6171875 -0.578125,2.0859375 0,0.89062502 0.625,1.18750002 1.2109375,1.18750002 0.390625,0 0.7265625,-0.171875 1.0078125,-0.4453125 -0.1328125,0.515625 -0.25,1 -0.6484375,1.53124998 -0.2578125,0.3359375 -0.6328125,0.625 -1.09375,0.625 -0.140625,0 -0.58593747,-0.03125 -0.75781247,-0.4140625 0.15625,0 0.28906247,0 0.42968747,-0.125 0.1015625,-0.085937 0.1953125,-0.21875 0.1953125,-0.40624998 0,-0.3046875 -0.265625,-0.34375 -0.3671875,-0.34375 -0.22656247,0 -0.55468747,0.15625 -0.55468747,0.64062498 0,0.5 0.4375,0.8671875 1.05468747,0.8671875 1.0234375,0 2.0546875,-0.90625 2.328125,-2.03124998 z m 0,0"
       style="fill:#000000;fill-opacity:1;fill-rule:nonzero;stroke:none"
       aria-label="y"
       transform="matrix(2,0,0,2,248.18933,320.61667)" />
    <path
       id="path8"
       d="M 0,0 122.74562,70.867"
       style="fill:none;stroke:#000000;stroke-width:0.79701;stroke-linecap:butt;stroke-linejoin:miter;stroke-miterlimit:10;stroke-dasharray:none;stroke-opacity:1"
       transform="matrix(2,0,0,-2,253.43133,671.68667)" />
    <path
       id="path9"
       d="M 0,0 70.867,122.74562"
       style="fill:none;stroke:#000000;stroke-width:0.79701;stroke-linecap:butt;stroke-linejoin:miter;stroke-miterlimit:10;stroke-dasharray:none;stroke-opacity:1"
       transform="matrix(2,0,0,-2,253.43133,671.68667)" />
    <path
       id="path10"
       d="m 123.7419,70.867 c 0,0.55025 -0.44605,0.99628 -0.99628,0.99628 -0.55025,0 -0.99628,-0.44603 -0.99628,-0.99628 0,-0.55023 0.44603,-0.99627 0.99628,-0.99627 0.55023,0 0.99628,0.44604 0.99628,0.99627 z"
       style="fill:#000000;fill-opacity:1;fill-rule:nonzero;stroke:none"
       transform="matrix(2,0,0,-2,253.43133,671.68667)" />
    <path
       id="path11"
       d="m 71.86328,122.74562 c 0,0.55023 -0.44603,0.99628 -0.99628,0.99628 -0.55023,0 -0.99627,-0.44605 -0.99627,-0.99628 0,-0.55025 0.44604,-0.99628 0.99627,-0.99628 0.55025,0 0.99628,0.44603 0.99628,0.99628 z"
       style="fill:#000000;fill-opacity:1;fill-rule:nonzero;stroke:none"
       transform="matrix(2,0,0,-2,253.43133,671.68667)" />
    <path
       id="path12"
       d="m 28.3468,0 c 0,4.97461 -1.3104,9.86523 -3.44401,13.5608"
       style="fill:none;stroke:#000000;stroke-width:0.79701;stroke-linecap:butt;stroke-linejoin:miter;stroke-miterlimit:10;stroke-dasharray:none;stroke-opacity:1"
       transform="matrix(2,0,0,-2,253.43133,671.68667)" />
    <path
       id="path13"
       d="M -1.55415,2.0722 C -1.42464,1.29512 0,0.1295 0.38852,0 0,-0.1295 -1.42464,-1.29512 -1.55415,-2.0722"
       style="fill:none;stroke:#000000;stroke-width:0.6376;stroke-linecap:round;stroke-linejoin:round;stroke-miterlimit:10;stroke-dasharray:none;stroke-opacity:1"
       transform="matrix(-1,-1.73202,-1.73202,1,303.23693,644.56509)" />
    <path
       id="path14"
       d="m 4.7506771,-2.3515208 c 0,-1.5625 -0.921875,-2.0546875 -1.6640625,-2.0546875 -1.359375,0 -2.67968752,1.4296875 -2.67968752,2.8359375 0,0.92187497 0.60156252,1.67968747 1.61718752,1.67968747 0.625,0 1.34375,-0.2265625 2.1015625,-0.8359375 0.125,0.53125 0.453125,0.8359375 0.90625,0.8359375 0.5234375,0 0.8359375,-0.546875 0.8359375,-0.703125 0,-0.0703125 -0.0625,-0.1015625 -0.1171875,-0.1015625 -0.070312,0 -0.1015625,0.03125 -0.1328125,0.1015625 -0.1796875,0.484375 -0.5390625,0.484375 -0.5546875,0.484375 -0.3125,0 -0.3125,-0.7734375 -0.3125,-1.01562497 0,-0.2109375 0,-0.2265625 0.1015625,-0.3515625 0.9375,-1.171875 1.1484375,-2.328125 1.1484375,-2.3359375 0,-0.023437 -0.015625,-0.1015625 -0.125,-0.1015625 -0.1015625,0 -0.1015625,0.03125 -0.1484375,0.2109375 -0.1796875,0.625 -0.5078125,1.3828125 -0.9765625,1.96875 z m -0.6640625,1.36718747 c -0.875,0.765625 -1.6484375,0.875 -2.046875,0.875 -0.59375,0 -0.890625,-0.4453125 -0.890625,-1.08593747 0,-0.484375 0.2578125,-1.5625 0.578125,-2.0703125 0.4609375,-0.7265625 1,-0.9140625 1.3515625,-0.9140625 0.984375,0 0.984375,1.3046875 0.984375,2.078125 0,0.3671875 0,0.9453125 0.023437,1.11718747 z m 0,0"
       style="fill:#000000;fill-opacity:1;fill-rule:nonzero;stroke:none"
       aria-label="α"
       transform="matrix(2,0,0,2,315.05333,658.96867)" />
    <path
       id="path15"
       d="m 36.82367,21.2601 c -3.73096,6.46222 -9.10137,11.83263 -14.951,15.20993"
       style="fill:none;stroke:#000000;stroke-width:0.79701;stroke-linecap:butt;stroke-linejoin:miter;stroke-miterlimit:10;stroke-dasharray:none;stroke-opacity:1"
       transform="matrix(2,0,0,-2,253.43133,671.68667)" />
    <path
       id="path16"
       d="M -1.55415,2.0722 C -1.42464,1.29512 0,0.1295 0.38852,0 0,-0.1295 -1.42464,-1.29512 -1.55415,-2.0722"
       style="fill:none;stroke:#000000;stroke-width:0.6376;stroke-linecap:round;stroke-linejoin:round;stroke-miterlimit:10;stroke-dasharray:none;stroke-opacity:1"
       transform="matrix(-1.73202,-0.99996,-0.99996,1.73202,297.17669,598.74663)" />
    <path
       id="path17"
       d="m 5.7265521,-5.6643021 c 0,-0.75 -0.546875,-1.3671875 -1.3515625,-1.3671875 -0.578125,0 -0.859375,0.15625 -1.2109375,0.4140625 -0.546875,0.3984375 -1.09375,1.3671875 -1.28125,2.125 l -1.58593752,6.328125 c -0.007813,0.039063 0.0390625,0.09375 0.125,0.09375 0.078125,0 0.109375,-0.015625 0.1171875,-0.046875 L 1.2343646,-0.86742708 c 0.1875,0.6015625 0.625,0.96875 1.3515625,0.96875 0.734375,0 1.4765625,-0.3515625 1.9296875,-0.7890625 0.4765625,-0.46093752 0.796875,-1.09375002 0.796875,-1.83593752 0,-0.7109375 -0.375,-1.234375 -0.734375,-1.484375 0.578125,-0.328125 1.1484375,-0.9453125 1.1484375,-1.65625 z m -1.7890625,1.6484375 c -0.1328125,0.054687 -0.2421875,0.070312 -0.484375,0.070312 -0.1328125,0 -0.3359375,0.00781 -0.4375,-0.039063 0.023437,-0.1015625 0.3828125,-0.078125 0.4921875,-0.078125 0.2109375,0 0.296875,0 0.4296875,0.046875 z m 1.234375,-1.8828125 c 0,0.6953125 -0.3828125,1.4140625 -0.8984375,1.7265625 -0.265625,-0.1015625 -0.46875,-0.125 -0.765625,-0.125 -0.2109375,0 -0.765625,-0.00781 -0.765625,0.3203125 -0.015625,0.28125 0.5078125,0.25 0.6875,0.25 0.3671875,0 0.515625,-0.00781 0.8125,-0.125 0.3828125,0.3515625 0.4296875,0.6640625 0.4375,1.125 0.023437,0.578125 -0.21875,1.3203125 -0.5,1.7109375 -0.3828125,0.53906252 -1.0546875,0.89843752 -1.6171875,0.89843752 -0.7578125,0 -1.140625,-0.578125 -1.140625,-1.28906252 0,-0.1015625 0,-0.25 0.054687,-0.4375 l 0.6328125,-2.515625 c 0.21875,-0.859375 0.9375,-2.4453125 2.1328125,-2.4453125 0.578125,0 0.9296875,0.3125 0.929688,0.90625 z m 0,0"
       style="fill:#000000;fill-opacity:1;fill-rule:nonzero;stroke:none"
       aria-label="β"
       transform="matrix(2,0,0,2,327.44533,596.49267)" />
    <path
       id="path18"
       d="m 0.44608333,1.2192604 c -0.078125,0.3359375 -0.09375,0.40625 -0.53125,0.40625 -0.125,0 -0.234375,0 -0.234375,0.1875 0,0.078125 0.0546875,0.1171875 0.1328125,0.1171875 0.265625,0 0.5546875,-0.023437 0.8359375,-0.023437 0.328125,0 0.66406247,0.023437 0.98437497,0.023437 0.046875,0 0.1796875,0 0.1796875,-0.1953125 0,-0.109375 -0.1015625,-0.109375 -0.2421875,-0.109375 -0.4921875,0 -0.4921875,-0.070312 -0.4921875,-0.1640625 0,-0.1171875 0.4140625,-1.74218748 0.484375,-1.99218748 0.1328125,0.2890625 0.40625,0.640625 0.9140625,0.640625 1.15625,0 2.40625,-1.45312502 2.40625,-2.92187502 0,-0.9296875 -0.5703125,-1.59375 -1.328125,-1.59375 -0.5,0 -0.9765625,0.359375 -1.3046875,0.75 -0.1015625,-0.5390625 -0.5234375,-0.75 -0.8984375,-0.75 -0.45312497,0 -0.64062497,0.390625 -0.73437497,0.5703125 -0.1796875,0.3359375 -0.3046875,0.9375 -0.3046875,0.96875 0,0.1015625 0.09375,0.1015625 0.1171875,0.1015625 0.1015625,0 0.109375,-0.015625 0.1640625,-0.234375 0.171875,-0.703125 0.375,-1.1796875 0.73437497,-1.1796875 0.1640625,0 0.3046875,0.078125 0.3046875,0.453125 0,0.2265625 -0.03125,0.34375 -0.070312,0.5078125 z m 1.75781247,-4.328125 c 0.070312,-0.265625 0.3359375,-0.546875 0.515625,-0.6953125 0.3515625,-0.3125 0.640625,-0.375 0.8046875,-0.375 0.3984375,0 0.640625,0.34375 0.640625,0.9296875 0,0.59375 -0.328125,1.734375 -0.5078125,2.1171875 -0.3359375,0.69531252 -0.8203125,1.02343752 -1.1875,1.02343752 -0.65625,0 -0.7890625,-0.828125 -0.7890625,-0.8828125 0,-0.0234375 0,-0.046875 0.03125,-0.16406252 z m 0,0"
       style="fill:#000000;fill-opacity:1;fill-rule:nonzero;stroke:none"
       aria-label="p"
       transform="matrix(2,0,0,2,470.79533,517.92867)" />
    <path
       id="path19"
       d="m 3.2973646,2.3911354 c 0,-0.03125 0,-0.046875 -0.171875,-0.21875 -1.2421875,-1.25781248 -1.5625,-3.14062498 -1.5625,-4.6640625 0,-1.734375 0.3828125,-3.4609375 1.6015625,-4.7109375 0.1328125,-0.1171875 0.1328125,-0.140625 0.1328125,-0.1640625 0,-0.070312 -0.039063,-0.1015625 -0.1015625,-0.1015625 -0.09375,0 -0.9921875,0.671875 -1.578125,1.9375 -0.5078125,1.1015625 -0.63281252,2.203125 -0.63281252,3.0390625 0,0.78125 0.10937502,1.98437502 0.65625002,3.10937502 0.6015625,1.22656248 1.4609375,1.87499998 1.5546875,1.87499998 0.0625,0 0.1015625,-0.03125 0.1015625,-0.1015625 z m 0,0"
       style="fill:#000000;fill-opacity:1;fill-rule:nonzero;stroke:none"
       aria-label="("
       transform="matrix(2,0,0,2,480.81933,517.92867)" />
    <path
       id="path20"
       d="m 3.3276615,-3.0073021 c 0.054687,-0.2578125 0.2890625,-1.171875 0.984375,-1.171875 0.046875,0 0.2890625,0 0.5,0.125 -0.28125,0.046875 -0.4765625,0.296875 -0.4765625,0.5390625 0,0.15625 0.109375,0.3515625 0.375,0.3515625 0.21875,0 0.5390625,-0.1796875 0.5390625,-0.578125 0,-0.5234375 -0.5859375,-0.6640625 -0.9296875,-0.6640625 -0.578125,0 -0.921875,0.53125 -1.046875,0.7578125 -0.2421875,-0.65625 -0.78125,-0.7578125 -1.0703125,-0.7578125 -1.0390625,0 -1.60937504,1.2890625 -1.60937504,1.5390625 0,0.1015625 0.1015625,0.1015625 0.125,0.1015625 0.078125,0 0.109375,-0.023437 0.125,-0.109375 0.34375004,-1.0625 1.00000004,-1.3046875 1.33593754,-1.3046875 0.1875,0 0.5390625,0.085937 0.5390625,0.6640625 0,0.3046875 -0.171875,0.9765625 -0.5390625,2.3671875 -0.15625,0.61718752 -0.5078125,1.03906252 -0.9453125,1.03906252 -0.0625,0 -0.28906254,0 -0.50000004,-0.1328125 0.25,-0.046875 0.46875004,-0.2578125 0.46875004,-0.53125 0,-0.27343752 -0.21875004,-0.35156252 -0.36718754,-0.35156252 -0.296875,0 -0.546875,0.25781252 -0.546875,0.57812502 0,0.4609375 0.5,0.65625 0.93750004,0.65625 0.65625,0 1.015625,-0.6953125 1.046875,-0.7578125 0.1171875,0.3671875 0.4765625,0.7578125 1.0703125,0.7578125 1.03125,0 1.59375,-1.28125002 1.59375,-1.53125002 0,-0.1015625 -0.085937,-0.1015625 -0.1171875,-0.1015625 -0.085937,0 -0.109375,0.039063 -0.125,0.109375 -0.3359375,1.06250002 -1.0078125,1.30468752 -1.328125,1.30468752 -0.390625,0 -0.546875,-0.3203125 -0.546875,-0.65625 0,-0.21875 0.054687,-0.43750002 0.1640625,-0.87500002 z m 4.3886718,3.00000002 c 0,-0.65625 -0.25,-1.04687502 -0.640625,-1.04687502 -0.328125,0 -0.5234375,0.25000002 -0.5234375,0.52343752 0,0.2734375 0.1953125,0.53124999667 0.5234375,0.53124999667 0.125,0 0.25,-0.0390624967 0.3515625,-0.13281249667 0.03125,-0.015625 0.039063,-0.0234375 0.046875,-0.0234375 0.00781,0 0.023437,0.007813 0.023437,0.1484375 0,0.734375 -0.3515625,1.33593748 -0.6796875,1.66406248 -0.109375,0.109375 -0.109375,0.125 -0.109375,0.15625 0,0.070312 0.046875,0.109375 0.1015625,0.109375 0.109375,0 0.90625,-0.765625 0.9062505,-1.92968748 z M 14.958521,-3.7963646 c 0.03906,-0.140625 0.03906,-0.15625 0.03906,-0.2265625 0,-0.1796875 -0.140625,-0.2734375 -0.289062,-0.2734375 -0.101563,0 -0.257813,0.0625 -0.351563,0.2109375 -0.01563,0.054687 -0.101562,0.359375 -0.140625,0.5390625 -0.07031,0.2578125 -0.140625,0.53125 -0.195312,0.796875 l -0.453125,1.79687502 c -0.03906,0.1484375 -0.46875,0.84375 -1.125,0.84375 -0.507813,0 -0.617188,-0.4375 -0.617188,-0.8046875 0,-0.46093752 0.171875,-1.07812502 0.507813,-1.95312502 0.164062,-0.40625 0.203125,-0.515625 0.203125,-0.71875 0,-0.4453125 -0.320313,-0.8203125 -0.820313,-0.8203125 -0.945312,0 -1.3125,1.4453125 -1.3125,1.5390625 0,0.1015625 0.101563,0.1015625 0.117188,0.1015625 0.101562,0 0.109375,-0.023437 0.164062,-0.1796875 0.265625,-0.9375 0.664063,-1.234375 1,-1.234375 0.08594,0 0.25,0 0.25,0.3125 0,0.25 -0.09375,0.5078125 -0.164062,0.703125 -0.398438,1.0546875 -0.578125,1.6171875 -0.578125,2.0859375 0,0.89062502 0.625,1.18750002 1.210937,1.18750002 0.390625,0 0.726563,-0.171875 1.007813,-0.4453125 -0.132813,0.515625 -0.25,1 -0.648438,1.53124998 -0.257812,0.3359375 -0.632812,0.625 -1.09375,0.625 -0.140625,0 -0.585937,-0.03125 -0.757812,-0.4140625 0.15625,0 0.289062,0 0.429687,-0.125 0.101563,-0.085937 0.195313,-0.21875 0.195313,-0.40624998 0,-0.3046875 -0.265625,-0.34375 -0.367188,-0.34375 -0.226562,0 -0.554687,0.15625 -0.554687,0.64062498 0,0.5 0.4375,0.8671875 1.054687,0.8671875 1.023438,0 2.054688,-0.90625 2.328125,-2.03124998 z m 0,0"
       style="fill:#000000;fill-opacity:1;fill-rule:nonzero;stroke:none"
       aria-label="x,y"
       transform="matrix(2,0,0,2,488.56733,517.92867)" />
    <path
       id="path21"
       d="m 2.8757708,-2.4916771 c 0,-0.7734375 -0.109375,-1.9765625 -0.65625,-3.109375 -0.59375,-1.21875 -1.45312497,-1.8671875 -1.55468747,-1.8671875 -0.0546875,0 -0.09375,0.039063 -0.09375,0.1015625 0,0.023437 0,0.046875 0.1875,0.2265625 0.97656247,0.984375 1.54687497,2.5703125 1.54687497,4.6484375 0,1.70312502 -0.375,3.46093752 -1.60937497,4.7109375 -0.125,0.125 -0.125,0.140625 -0.125,0.171875 0,0.0625 0.0390625,0.1015625 0.09375,0.1015625 0.1015625,0 0.99999997,-0.6796875 1.58593747,-1.94531248 0.5078125,-1.09375 0.625,-2.20312502 0.625,-3.03906252 z m 0,0"
       style="fill:#000000;fill-opacity:1;fill-rule:nonzero;stroke:none"
       aria-label=")"
       transform="matrix(2,0,0,2,519.29533,517.92867)" />
    <path
       id="path22"
       d="m 0.44481771,1.2191198 c -0.078125,0.3359375 -0.09375,0.40625 -0.53125,0.40625 -0.125,0 -0.234375,0 -0.234375,0.1875 0,0.078125 0.0546875,0.1171875 0.1328125,0.1171875 0.265625,0 0.5546875,-0.023437 0.8359375,-0.023437 0.328125,0 0.66406249,0.023437 0.98437499,0.023437 0.046875,0 0.1796875,0 0.1796875,-0.1953125 0,-0.109375 -0.1015625,-0.109375 -0.2421875,-0.109375 -0.4921875,0 -0.4921875,-0.070312 -0.4921875,-0.1640625 0,-0.1171875 0.4140625,-1.74218751 0.484375,-1.99218751 0.1328125,0.2890625 0.40625,0.640625 0.9140625,0.640625 1.15625,0 2.40625,-1.45312499 2.40625,-2.92187499 0,-0.9296875 -0.5703125,-1.59375 -1.328125,-1.59375 -0.5,0 -0.9765625,0.359375 -1.3046875,0.75 -0.1015625,-0.5390625 -0.5234375,-0.75 -0.8984375,-0.75 -0.45312499,0 -0.64062499,0.390625 -0.73437499,0.5703125 -0.1796875,0.3359375 -0.3046875,0.9375 -0.3046875,0.96875 0,0.1015625 0.09375,0.1015625 0.1171875,0.1015625 0.1015625,0 0.109375,-0.015625 0.1640625,-0.234375 0.171875,-0.703125 0.375,-1.1796875 0.73437499,-1.1796875 0.1640625,0 0.3046875,0.078125 0.3046875,0.453125 0,0.2265625 -0.03125,0.34375 -0.070312,0.5078125 z m 1.75781249,-4.328125 c 0.070312,-0.265625 0.3359375,-0.546875 0.515625,-0.6953125 0.3515625,-0.3125 0.640625,-0.375 0.8046875,-0.375 0.3984375,0 0.640625,0.34375 0.640625,0.9296875 0,0.59375 -0.328125,1.734375 -0.5078125,2.1171875 -0.3359375,0.69531249 -0.8203125,1.02343749 -1.1875,1.02343749 -0.65625,0 -0.7890625,-0.828125 -0.7890625,-0.8828125 0,-0.0234375 0,-0.046875 0.03125,-0.16406249 z m 0,0"
       style="fill:#000000;fill-opacity:1;fill-rule:nonzero;stroke:none"
       aria-label="p"
       transform="matrix(2,0,0,2,358.65333,414.19067)" />
    <path
       id="path23"
       d="m 2.0226615,-3.2889271 c 0.054687,-0.125 0.0625,-0.1796875 0.0625,-0.2265625 0,-0.21875 -0.1953125,-0.3828125 -0.4140625,-0.3828125 -0.265625,0 -0.34375,0.2109375 -0.3828125,0.328125 l -0.92187504,3.01562502 c -0.007813,0.015625 -0.03125,0.109375 -0.03125,0.1171875 0,0.078125 0.21875,0.1484375 0.2734375,0.1484375 0.046875,0 0.0546875,-0.007813 0.1015625,-0.1171875 z m 0,0"
       style="fill:#000000;fill-opacity:1;fill-rule:nonzero;stroke:none"
       aria-label="0"
       transform="matrix(2,0,0,2,368.67733,406.96067)" />
    <path
       id="path24"
       d="m 3.2960208,2.3909948 c 0,-0.03125 0,-0.046875 -0.171875,-0.21875 -1.2421875,-1.25781251 -1.5625,-3.14062501 -1.5625,-4.6640625 0,-1.734375 0.3828125,-3.4609375 1.6015625,-4.7109375 0.1328125,-0.1171875 0.1328125,-0.140625 0.1328125,-0.1640625 0,-0.070312 -0.039063,-0.1015625 -0.1015625,-0.1015625 -0.09375,0 -0.9921875,0.671875 -1.578125,1.9375 -0.5078125,1.1015625 -0.63281247,2.203125 -0.63281247,3.0390625 0,0.78125 0.10937497,1.98437499 0.65624997,3.10937499 0.6015625,1.22656251 1.4609375,1.87500001 1.5546875,1.87500001 0.0625,0 0.1015625,-0.03125 0.1015625,-0.1015625 z m 0,0"
       style="fill:#000000;fill-opacity:1;fill-rule:nonzero;stroke:none"
       aria-label="("
       transform="matrix(2,0,0,2,374.26733,414.19067)" />
    <path
       id="path25"
       d="m 3.3272708,-3.0074427 c 0.054687,-0.2578125 0.2890625,-1.171875 0.984375,-1.171875 0.046875,0 0.2890625,0 0.5,0.125 -0.28125,0.046875 -0.4765625,0.296875 -0.4765625,0.5390625 0,0.15625 0.109375,0.3515625 0.375,0.3515625 0.21875,0 0.5390625,-0.1796875 0.5390625,-0.578125 0,-0.5234375 -0.5859375,-0.6640625 -0.9296875,-0.6640625 -0.578125,0 -0.921875,0.53125 -1.046875,0.7578125 -0.2421875,-0.65625 -0.78125,-0.7578125 -1.0703125,-0.7578125 -1.0390625,0 -1.60937497,1.2890625 -1.60937497,1.5390625 0,0.1015625 0.1015625,0.1015625 0.125,0.1015625 0.078125,0 0.109375,-0.023437 0.125,-0.109375 0.34374997,-1.0625 0.99999997,-1.3046875 1.33593747,-1.3046875 0.1875,0 0.5390625,0.085937 0.5390625,0.6640625 0,0.3046875 -0.171875,0.9765625 -0.5390625,2.3671875 -0.15625,0.61718749 -0.5078125,1.03906249 -0.9453125,1.03906249 -0.0625,0 -0.28906247,0 -0.49999997,-0.1328125 0.25,-0.046875 0.46874997,-0.2578125 0.46874997,-0.53125 0,-0.27343749 -0.21874997,-0.35156249 -0.36718747,-0.35156249 -0.296875,0 -0.546875,0.25781249 -0.546875,0.57812499 0,0.4609375 0.5,0.65625 0.93749997,0.65625 0.65625,0 1.015625,-0.6953125 1.046875,-0.7578125 0.1171875,0.3671875 0.4765625,0.7578125 1.0703125,0.7578125 1.03125,0 1.59375,-1.28124999 1.59375,-1.53124999 0,-0.1015625 -0.085937,-0.1015625 -0.1171875,-0.1015625 -0.085937,0 -0.109375,0.039063 -0.125,0.109375 -0.3359375,1.06249999 -1.0078125,1.30468749 -1.328125,1.30468749 -0.390625,0 -0.546875,-0.3203125 -0.546875,-0.65625 0,-0.21875 0.054687,-0.43749999 0.1640625,-0.87499999 z m 0,0"
       style="fill:#000000;fill-opacity:1;fill-rule:nonzero;stroke:none"
       aria-label="x"
       transform="matrix(2,0,0,2,382.01733,414.19067)" />
    <path
       id="path26"
       d="m 2.0238958,-3.2889271 c 0.054687,-0.125 0.0625,-0.1796875 0.0625,-0.2265625 0,-0.21875 -0.1953125,-0.3828125 -0.4140625,-0.3828125 -0.265625,0 -0.34375,0.2109375 -0.3828125,0.328125 l -0.92187497,3.01562502 c -0.007813,0.015625 -0.03125,0.109375 -0.03125,0.1171875 0,0.078125 0.21875,0.1484375 0.2734375,0.1484375 0.046875,0 0.0546875,-0.007813 0.1015625,-0.1171875 z m 0,0"
       style="fill:#000000;fill-opacity:1;fill-rule:nonzero;stroke:none"
       aria-label="0"
       transform="matrix(2,0,0,2,393.40533,406.96067)" />
    <path
       id="path27"
       d="m 2.0238177,-0.00744271 c 0,-0.65625 -0.25,-1.04687499 -0.640625,-1.04687499 -0.328125,0 -0.52343749,0.24999999 -0.52343749,0.52343749 0,0.2734375 0.19531249,0.53125000167 0.52343749,0.53125000167 0.125,0 0.25,-0.0390625017 0.3515625,-0.13281250167 0.03125,-0.015625 0.039063,-0.0234375 0.046875,-0.0234375 0.00781,0 0.023437,0.007813 0.023437,0.1484375 0,0.734375 -0.3515625,1.33593751 -0.6796875,1.66406251 -0.109375,0.109375 -0.109375,0.125 -0.109375,0.15625 0,0.070312 0.046875,0.109375 0.1015625,0.109375 0.109375,0 0.90625,-0.765625 0.9062505,-1.92968751 z M 9.2660052,-3.7965052 c 0.039063,-0.140625 0.039063,-0.15625 0.039063,-0.2265625 0,-0.1796875 -0.140625,-0.2734375 -0.2890625,-0.2734375 -0.1015625,0 -0.2578125,0.0625 -0.3515625,0.2109375 -0.015625,0.054687 -0.1015625,0.359375 -0.140625,0.5390625 -0.070312,0.2578125 -0.140625,0.53125 -0.1953125,0.796875 l -0.453125,1.79687499 c -0.039063,0.1484375 -0.46875,0.84375 -1.125,0.84375 -0.5078125,0 -0.6171875,-0.4375 -0.6171875,-0.8046875 0,-0.46093749 0.171875,-1.07812499 0.5078125,-1.95312499 0.1640625,-0.40625 0.203125,-0.515625 0.203125,-0.71875 0,-0.4453125 -0.3203125,-0.8203125 -0.8203125,-0.8203125 -0.9453125,0 -1.3125,1.4453125 -1.3125,1.5390625 0,0.1015625 0.1015625,0.1015625 0.1171875,0.1015625 0.1015625,0 0.109375,-0.023437 0.1640625,-0.1796875 0.265625,-0.9375 0.6640625,-1.234375 1,-1.234375 0.085937,0 0.25,0 0.25,0.3125 0,0.25 -0.09375,0.5078125 -0.1640625,0.703125 -0.3984375,1.0546875 -0.578125,1.6171875 -0.578125,2.0859375 0,0.89062499 0.625,1.18749999 1.2109375,1.18749999 0.390625,0 0.7265625,-0.171875 1.0078125,-0.4453125 -0.1328125,0.515625 -0.25,1 -0.6484375,1.53125001 -0.2578125,0.3359375 -0.6328125,0.625 -1.09375,0.625 -0.140625,0 -0.5859375,-0.03125 -0.7578125,-0.4140625 0.15625,0 0.2890625,0 0.4296875,-0.125 0.1015625,-0.085937 0.1953125,-0.21875 0.1953125,-0.40625001 0,-0.3046875 -0.265625,-0.34375 -0.3671875,-0.34375 -0.2265625,0 -0.5546875,0.15625 -0.5546875,0.64062501 0,0.5 0.4375,0.8671875 1.0546875,0.8671875 1.0234375,0 2.0546875,-0.90625 2.328125,-2.03125001 z m 0,0"
       style="fill:#000000;fill-opacity:1;fill-rule:nonzero;stroke:none"
       aria-label=",y"
       transform="matrix(2,0,0,2,398.99533,414.19067)" />
    <path
       id="path28"
       d="m 2.0237396,-3.2889271 c 0.054687,-0.125 0.0625,-0.1796875 0.0625,-0.2265625 0,-0.21875 -0.1953125,-0.3828125 -0.4140625,-0.3828125 -0.265625,0 -0.34375,0.2109375 -0.3828125,0.328125 l -0.92187502,3.01562502 c -0.007813,0.015625 -0.03125,0.109375 -0.03125,0.1171875 0,0.078125 0.21875,0.1484375 0.2734375,0.1484375 0.046875,0 0.0546875,-0.007813 0.1015625,-0.1171875 z m 0,0"
       style="fill:#000000;fill-opacity:1;fill-rule:nonzero;stroke:none"
       aria-label="0"
       transform="matrix(2,0,0,2,418.33533,406.96067)" />
    <path
       id="path29"
       d="m 2.875224,-2.4918177 c 0,-0.7734375 -0.109375,-1.9765625 -0.65625,-3.109375 -0.59375,-1.21875 -1.45312504,-1.8671875 -1.55468754,-1.8671875 -0.0546875,0 -0.09375,0.039063 -0.09375,0.1015625 0,0.023437 0,0.046875 0.1875,0.2265625 0.97656254,0.984375 1.54687504,2.5703125 1.54687504,4.6484375 0,1.70312499 -0.375,3.46093749 -1.60937504,4.7109375 -0.125,0.125 -0.125,0.140625 -0.125,0.171875 0,0.0625 0.0390625,0.1015625 0.09375,0.1015625 0.1015625,0 1.00000004,-0.6796875 1.58593754,-1.94531251 0.5078125,-1.09375 0.625,-2.20312499 0.625,-3.03906249 z m 0,0"
       style="fill:#000000;fill-opacity:1;fill-rule:nonzero;stroke:none"
       aria-label=")"
       transform="matrix(2,0,0,2,423.92533,414.19067)" />
    <path
       id="path30"
       d="m 0,0 c -0.20023,3.33553 1.82332,6.80455 6.13725,9.29517 l 44.11797,25.47111 c 4.31395,2.49062 6.33752,5.95962 6.13727,9.29517 2.78851,-1.84125 6.80456,-1.82332 11.1185,0.66729 l 44.11798,25.47113 c 4.31395,2.49062 8.33,2.50852 11.1185,0.66729"
       style="fill:none;stroke:#000000;stroke-width:0.79701;stroke-linecap:butt;stroke-linejoin:miter;stroke-miterlimit:10;stroke-dasharray:2.98883, 2.98883;stroke-dashoffset:0;stroke-opacity:1"
       transform="matrix(2,0,0,-2,253.43133,671.68667)" />
    <path
       id="path31"
       d="m 0.87450521,-0.58594271 c -0.03125,0.1484375 -0.0859375,0.375 -0.0859375,0.4296875 0,0.1796875 0.140625,0.265625 0.28906249,0.265625 0.1171875,0 0.296875,-0.078125 0.3671875,-0.28125 0.015625,-0.0390625 0.359375,-1.39062499 0.3984375,-1.57031249 0.078125,-0.328125 0.2578125,-1.0234375 0.3203125,-1.296875 0.039063,-0.125 0.3125,-0.59375 0.5546875,-0.8125 0.078125,-0.070312 0.3671875,-0.328125 0.796875,-0.328125 0.2578125,0 0.40625,0.1171875 0.421875,0.1171875 -0.3046875,0.046875 -0.5234375,0.2890625 -0.5234375,0.546875 0,0.15625 0.109375,0.3515625 0.3828125,0.3515625 0.265625,0 0.546875,-0.234375 0.546875,-0.59375 0,-0.34375 -0.3203125,-0.6484375 -0.828125,-0.6484375 -0.6484375,0 -1.0859375,0.4921875 -1.2734375,0.7734375 -0.078125,-0.453125 -0.4375,-0.7734375 -0.90625,-0.7734375 -0.46093749,0 -0.64843749,0.390625 -0.74218749,0.5703125 -0.171875,0.3359375 -0.3046875,0.9375 -0.3046875,0.96875 0,0.1015625 0.1015625,0.1015625 0.1171875,0.1015625 0.1015625,0 0.109375,-0.015625 0.171875,-0.234375 0.171875,-0.703125 0.3671875,-1.1796875 0.72656249,-1.1796875 0.171875,0 0.3125,0.078125 0.3125,0.453125 0,0.2109375 -0.03125,0.3203125 -0.1640625,0.8359375 z m 0,0"
       style="fill:#000000;fill-opacity:1;fill-rule:nonzero;stroke:none"
       aria-label="r"
       transform="matrix(2,0,0,2,371.40333,569.47267)" />
  </g>
</svg>
