<svg xmlns="http://www.w3.org/2000/svg" width="540.829" height="542.288"><path d="M-170.08-170.08h340.16m-340.16 28.346h340.16m-340.16 28.347h340.16M-170.08-85.04h340.16m-340.16 28.346h340.16m-340.16 28.347h340.16M-170.08 0h340.16m-340.16 28.347h340.16m-340.16 28.347h340.16M-170.08 85.04h340.16m-340.16 28.347h340.16m-340.16 28.347h340.16m-340.16 28.337h340.16m-340.16-340.152v340.162m28.346-340.162v340.162m28.347-340.162v340.162m28.347-340.162v340.162m28.346-340.162v340.162m28.347-340.162v340.162M0-170.081v340.162m28.347-340.162v340.162m28.347-340.162v340.162M85.04-170.081v340.162m28.347-340.162v340.162m28.347-340.162v340.162m28.337-340.162v340.162" style="fill:none;stroke:gray;stroke-width:.19925;stroke-linecap:butt;stroke-linejoin:miter;stroke-miterlimit:10;stroke-dasharray:none;stroke-opacity:1" transform="matrix(1.33333 0 0 -1.33333 264.57 277.717)"/><path d="M0 85.04-73.647-42.52H73.647z" style="fill:none;stroke:#000;stroke-width:.3985;stroke-linecap:butt;stroke-linejoin:miter;stroke-miterlimit:10;stroke-dasharray:2.98883,2.98883;stroke-dashoffset:0;stroke-opacity:1" transform="matrix(1.33333 0 0 -1.33333 264.57 277.717)"/><path d="M0 170.08-147.295-85.04h294.59z" style="fill:none;stroke:#000;stroke-width:.3985;stroke-linecap:butt;stroke-linejoin:miter;stroke-miterlimit:10;stroke-dasharray:2.98883,2.98883;stroke-dashoffset:0;stroke-opacity:1" transform="matrix(1.33333 0 0 -1.33333 264.57 277.717)"/><path d="M73.647-42.52V0M73.647-42.52H0M147.295-85.04V0M147.295-85.04H0" style="fill:none;stroke:#000;stroke-width:.79701;stroke-linecap:butt;stroke-linejoin:miter;stroke-miterlimit:10;stroke-dasharray:2.98883,2.98883;stroke-dashoffset:0;stroke-opacity:1" transform="matrix(1.33333 0 0 -1.33333 264.57 277.717)"/><path d="m0 0 147.295-85.04" style="fill:none;stroke:#000;stroke-width:.79701;stroke-linecap:butt;stroke-linejoin:miter;stroke-miterlimit:10;stroke-dasharray:none;stroke-opacity:1" transform="matrix(1.33333 0 0 -1.33333 264.57 277.717)"/><path d="m0 0 73.647-42.52" style="fill:none;stroke:#000;stroke-width:.79701;stroke-linecap:butt;stroke-linejoin:miter;stroke-miterlimit:10;stroke-dasharray:2.98883,2.98883;stroke-dashoffset:0;stroke-opacity:1" transform="matrix(1.33333 0 0 -1.33333 264.57 277.717)"/><path d="M-198.428 0H197.97" style="fill:none;stroke:#000;stroke-width:.3985;stroke-linecap:butt;stroke-linejoin:miter;stroke-miterlimit:10;stroke-dasharray:none;stroke-opacity:1" transform="matrix(1.33333 0 0 -1.33333 264.57 277.717)"/><path d="M-1.196 1.594C-1.096.996 0 .1.3 0 0-.1-1.096-.996-1.196-1.594" style="fill:none;stroke:#000;stroke-width:.31879;stroke-linecap:round;stroke-linejoin:round;stroke-miterlimit:10;stroke-dasharray:none;stroke-opacity:1" transform="matrix(1.33333 0 0 -1.33333 528.53 277.717)"/><path d="M3.327-3.013c.059-.258.293-1.172.984-1.172.047 0 .293 0 .504.129-.28.047-.48.305-.48.539 0 .164.105.352.375.352.223 0 .539-.188.539-.586 0-.516-.586-.657-.926-.657-.574 0-.926.528-1.043.762-.258-.656-.785-.762-1.078-.762-1.043 0-1.605 1.29-1.605 1.535 0 .106.105.106.117.106.082 0 .117-.023.129-.117.34-1.055.996-1.301 1.336-1.301.187 0 .539.094.539.668 0 .305-.164.973-.54 2.367-.152.621-.503 1.043-.949 1.043-.058 0-.28 0-.492-.129.246-.058.469-.27.469-.539 0-.27-.223-.351-.375-.351-.293 0-.54.257-.54.574 0 .457.493.656.938.656.657 0 1.008-.691 1.043-.75.118.363.48.75 1.078.75 1.02 0 1.594-1.277 1.594-1.535 0-.094-.094-.094-.129-.094-.082 0-.105.035-.129.106C4.358-.353 3.69-.107 3.362-.107c-.387 0-.539-.328-.539-.656 0-.223.059-.445.164-.879zm0 0" aria-label="x" style="fill:#000;fill-opacity:1;fill-rule:nonzero;stroke:none" transform="matrix(1.33333 0 0 1.33333 533.83 280.576)"/><path d="M0-198.428V197.97" style="fill:none;stroke:#000;stroke-width:.3985;stroke-linecap:butt;stroke-linejoin:miter;stroke-miterlimit:10;stroke-dasharray:none;stroke-opacity:1" transform="matrix(1.33333 0 0 -1.33333 264.57 277.717)"/><path d="M-1.196 1.594C-1.096.996 0 .1.3 0 0-.1-1.096-.996-1.196-1.594" style="fill:none;stroke:#000;stroke-width:.31879;stroke-linecap:round;stroke-linejoin:round;stroke-miterlimit:10;stroke-dasharray:none;stroke-opacity:1" transform="matrix(0 -1.33333 -1.33333 0 264.57 13.758)"/><path d="M4.84-3.796c.046-.14.046-.152.046-.222 0-.188-.14-.27-.293-.27a.44.44 0 0 0-.351.2c-.024.058-.094.363-.141.538-.07.258-.14.528-.2.797L3.458-.96c-.036.153-.47.856-1.125.856-.504 0-.622-.446-.622-.809 0-.457.176-1.078.516-1.957.152-.41.2-.516.2-.715a.8.8 0 0 0-.821-.82C.655-4.405.292-2.952.292-2.87c0 .106.094.106.118.106.093 0 .105-.024.152-.188.27-.937.668-1.23 1.008-1.23.082 0 .258 0 .258.316 0 .246-.106.516-.176.703-.399 1.055-.574 1.617-.574 2.086 0 .89.62 1.184 1.218 1.184.387 0 .727-.164.996-.446-.128.516-.246 1.008-.644 1.535-.258.34-.633.633-1.09.633-.14 0-.598-.035-.762-.422.164 0 .293 0 .434-.117.094-.094.2-.222.2-.41 0-.316-.27-.351-.376-.351-.222 0-.55.164-.55.644 0 .504.433.867 1.054.867 1.02 0 2.05-.902 2.332-2.027zm0 0" aria-label="y" style="fill:#000;fill-opacity:1;fill-rule:nonzero;stroke:none" transform="matrix(1.33333 0 0 1.33333 261.076 5.873)"/><path d="M0 0c1.494 2.989 4.981 4.981 9.963 4.981H26.86c4.981 0 8.468 1.993 9.963 4.982 1.494-2.99 4.981-4.982 9.962-4.982h16.899c4.981 0 8.468-1.992 9.962-4.981" style="fill:none;stroke:#000;stroke-width:.79701;stroke-linecap:butt;stroke-linejoin:miter;stroke-miterlimit:10;stroke-dasharray:none;stroke-opacity:1" transform="matrix(1.33333 0 0 -1.33333 264.57 277.717)"/><path d="M3.328-3.01c.059-.258.293-1.172.985-1.172.047 0 .293 0 .504.129-.282.047-.48.304-.48.539 0 .164.105.351.374.351.223 0 .54-.187.54-.586 0-.515-.587-.656-.927-.656-.574 0-.925.527-1.043.762-.257-.656-.785-.762-1.078-.762C1.16-4.405.598-3.115.598-2.87c0 .106.105.106.117.106.082 0 .117-.024.129-.117.34-1.055.996-1.301 1.336-1.301.187 0 .539.093.539.668 0 .304-.164.972-.54 2.367-.152.621-.503 1.043-.948 1.043-.059 0-.282 0-.493-.129.247-.059.47-.27.47-.54 0-.269-.223-.35-.376-.35-.293 0-.539.257-.539.574 0 .457.492.656.938.656.656 0 1.007-.692 1.043-.75.117.363.48.75 1.078.75 1.02 0 1.593-1.278 1.593-1.535 0-.094-.093-.094-.128-.094-.082 0-.106.035-.13.105C4.36-.35 3.693-.104 3.364-.104c-.386 0-.539-.328-.539-.656 0-.223.059-.446.164-.88zm0 0" aria-label="x" style="fill:#000;fill-opacity:1;fill-rule:nonzero;stroke:none" transform="matrix(1.33333 0 0 1.33333 309.872 259.475)"/><path d="M0 0c1.494-2.989 4.981-4.981 9.963-4.981h53.722c4.981 0 8.468-1.993 9.962-4.982 1.495 2.99 4.982 4.982 9.963 4.982h53.722c4.981 0 8.468 1.992 9.963 4.981" style="fill:none;stroke:#000;stroke-width:.79701;stroke-linecap:butt;stroke-linejoin:miter;stroke-miterlimit:10;stroke-dasharray:none;stroke-opacity:1" transform="matrix(1.33333 0 0 -1.33333 264.57 277.717)"/><path d="M6.422-6.926c0-.024-.012-.094-.106-.094-.046 0-.058.011-.175.14l-.48.575c-.259-.47-.774-.715-1.43-.715-1.266 0-2.461 1.136-2.461 2.343 0 .81.527 1.266 1.043 1.418l1.066.282c.363.082.914.234.914 1.054 0 .891-.82 1.829-1.793 1.829-.645 0-1.746-.211-1.746-1.454 0-.234.047-.48.059-.539.011-.035.023-.047.023-.07 0-.094-.07-.105-.117-.105-.059 0-.07.011-.106.035C1.078-2.18.516.093.516.116c0 .06.047.106.117.106C.68.222.69.21.809.07L1.3-.505c.422.586 1.101.727 1.676.727 1.359 0 2.53-1.324 2.53-2.566 0-.68-.339-1.02-.491-1.16-.223-.235-.375-.27-1.266-.505-.21-.058-.574-.152-.656-.175a.92.92 0 0 1-.61-.903c0-.808.797-1.652 1.735-1.652.832 0 1.441.422 1.441 1.535 0 .317-.047.504-.047.563 0 .011 0 .093.13.093.093 0 .105-.023.14-.199zm0 0" aria-label="S" style="fill:#000;fill-opacity:1;fill-rule:nonzero;stroke:none" transform="matrix(1.33333 0 0 1.33333 343.434 305.036)"/><path d="M1.736-.739c-.07.235-.293.61-.657.61-.023 0-.222 0-.375-.094A.42.42 0 0 0 1.01-.61c0-.152-.117-.258-.281-.258-.188 0-.387.164-.387.434 0 .34.387.504.727.504.316 0 .61-.2.785-.492.164.363.55.492.82.492.809 0 1.23-.867 1.23-1.067 0-.093-.093-.093-.105-.093-.105 0-.105.035-.14.117-.141.48-.563.844-.95.844-.28 0-.421-.188-.421-.446 0-.187.164-.82.363-1.594.129-.539.445-.714.68-.714.011 0 .222 0 .374.105a.404.404 0 0 0-.304.375c0 .152.117.258.281.258a.405.405 0 0 0 .387-.422c0-.387-.446-.504-.727-.504-.351 0-.633.223-.785.492-.117-.293-.445-.492-.832-.492-.785 0-1.23.856-1.23 1.067 0 .082.105.082.117.082.093 0 .105-.024.14-.118.176-.539.61-.843.95-.843.234 0 .421.129.421.468 0 .13-.082.48-.152.715zm0 0" aria-label="x" style="fill:#000;fill-opacity:1;fill-rule:nonzero;stroke:none" transform="matrix(1.33333 0 0 1.33333 351.58 307.028)"/><path d="m3.879-2.766-1.992-1.98c-.13-.13-.141-.141-.223-.141-.106 0-.2.082-.2.199 0 .07.024.082.13.199l1.992 1.992L1.594-.493c-.106.117-.13.129-.13.2 0 .116.094.199.2.199.082 0 .094-.012.223-.141l1.98-1.98L5.93-.154a.27.27 0 0 0 .152.059.19.19 0 0 0 .2-.2c0-.011 0-.058-.036-.105-.012-.024-1.594-1.582-2.098-2.098l1.828-1.816c.047-.059.2-.188.247-.246.011-.024.058-.059.058-.13a.19.19 0 0 0-.2-.198c-.081 0-.128.035-.233.14zm0 0" aria-label="×" style="fill:#000;fill-opacity:1;fill-rule:nonzero;stroke:none" transform="matrix(1.33333 0 0 1.33333 361.22 305.036)"/><path d="M3.329-3.012c.058-.258.293-1.172.984-1.172.047 0 .293 0 .504.129-.281.046-.48.304-.48.539 0 .164.105.351.375.351.222 0 .539-.187.539-.586 0-.515-.586-.656-.926-.656-.574 0-.926.527-1.043.762-.258-.656-.785-.762-1.078-.762-1.043 0-1.606 1.29-1.606 1.535 0 .106.106.106.118.106.082 0 .117-.024.129-.118.34-1.054.996-1.3 1.335-1.3.188 0 .54.093.54.668 0 .304-.165.972-.54 2.367-.152.62-.503 1.043-.949 1.043-.058 0-.281 0-.492-.13.246-.058.469-.269.469-.538 0-.27-.223-.352-.375-.352-.293 0-.54.258-.54.574 0 .458.493.657.938.657.656 0 1.008-.692 1.043-.75.117.363.48.75 1.078.75 1.02 0 1.594-1.278 1.594-1.535 0-.094-.094-.094-.129-.094-.082 0-.105.035-.129.105C4.36-.352 3.692-.106 3.364-.106c-.387 0-.539-.328-.539-.656 0-.223.059-.446.164-.88zm0 0" aria-label="x" style="fill:#000;fill-opacity:1;fill-rule:nonzero;stroke:none" transform="matrix(1.33333 0 0 1.33333 374.504 305.036)"/><path d="M0 0c-2.989-1.494-4.981-4.981-4.981-9.963v-1.334c0-4.982-1.993-8.469-4.982-9.963 2.99-1.494 4.982-4.981 4.982-9.963v-1.334c0-4.982 1.992-8.469 4.981-9.963" style="fill:none;stroke:#000;stroke-width:.79701;stroke-linecap:butt;stroke-linejoin:miter;stroke-miterlimit:10;stroke-dasharray:none;stroke-opacity:1" transform="matrix(1.33333 0 0 -1.33333 264.57 277.717)"/><path d="M4.839-3.796c.046-.141.046-.153.046-.223 0-.188-.14-.27-.292-.27a.44.44 0 0 0-.352.2c-.023.058-.094.363-.14.539-.071.258-.141.527-.2.797L3.456-.96c-.035.152-.469.855-1.125.855-.504 0-.621-.445-.621-.809 0-.457.175-1.078.515-1.957.153-.41.2-.515.2-.714a.8.8 0 0 0-.82-.82c-.95 0-1.313 1.452-1.313 1.534 0 .106.093.106.117.106.094 0 .105-.024.152-.188.27-.937.668-1.23 1.008-1.23.082 0 .258 0 .258.316 0 .246-.106.516-.176.703-.398 1.055-.574 1.618-.574 2.086 0 .891.621 1.184 1.219 1.184.386 0 .726-.164.996-.445-.13.515-.246 1.007-.645 1.535-.258.34-.633.633-1.09.633-.14 0-.597-.036-.761-.422.164 0 .293 0 .433-.117.094-.094.2-.223.2-.41 0-.317-.27-.352-.376-.352-.222 0-.55.164-.55.644 0 .504.433.868 1.054.868 1.02 0 2.051-.903 2.332-2.028zm0 0" aria-label="y" style="fill:#000;fill-opacity:1;fill-rule:nonzero;stroke:none" transform="matrix(1.33333 0 0 1.33333 239.338 307.632)"/><path d="M0 0c2.989-1.494 4.981-4.981 4.981-9.963v-22.594c0-4.982 1.993-8.469 4.982-9.963-2.99-1.495-4.982-4.982-4.982-9.963v-22.595c0-4.981-1.992-8.468-4.981-9.962" style="fill:none;stroke:#000;stroke-width:.79701;stroke-linecap:butt;stroke-linejoin:miter;stroke-miterlimit:10;stroke-dasharray:none;stroke-opacity:1" transform="matrix(1.33333 0 0 -1.33333 264.57 277.717)"/><path d="M6.423-6.927c0-.023-.012-.093-.105-.093-.047 0-.059.011-.176.14l-.48.574c-.258-.468-.774-.714-1.43-.714-1.266 0-2.461 1.136-2.461 2.343 0 .809.527 1.266 1.043 1.418l1.066.282c.363.082.914.234.914 1.054 0 .89-.82 1.828-1.793 1.828-.644 0-1.746-.21-1.746-1.453 0-.234.047-.48.059-.539.011-.035.023-.047.023-.07 0-.094-.07-.106-.117-.106-.059 0-.07.012-.106.036C1.08-2.181.517.093.517.116c0 .059.047.106.117.106C.681.222.693.21.81.069l.492-.574c.422.586 1.102.727 1.676.727 1.36 0 2.531-1.324 2.531-2.567 0-.68-.34-1.02-.492-1.16-.223-.234-.375-.27-1.266-.504-.21-.058-.574-.152-.656-.176a.92.92 0 0 1-.61-.902c0-.808.797-1.652 1.735-1.652.832 0 1.441.422 1.441 1.535 0 .316-.047.504-.047.562 0 .012 0 .094.13.094.093 0 .105-.023.14-.199zm0 0" aria-label="S" style="fill:#000;fill-opacity:1;fill-rule:nonzero;stroke:none" transform="matrix(1.33333 0 0 1.33333 282.812 337.048)"/><path d="M3.88-2.626c.023-.105.023-.117.023-.152a.215.215 0 0 0-.223-.223.35.35 0 0 0-.293.164c-.023.035-.07.258-.105.399l-.152.586a52 52 0 0 1-.282 1.125s-.304.597-.855.597c-.469 0-.469-.445-.469-.574 0-.375.152-.82.363-1.36.082-.222.118-.304.118-.421 0-.328-.282-.586-.657-.586-.703 0-1.02.95-1.02 1.066 0 .082.094.082.118.082.094 0 .105-.035.129-.105.176-.586.469-.856.75-.856q.176 0 .176.246c0 .165-.059.317-.094.41-.34.844-.41 1.102-.41 1.407 0 .117 0 .445.27.68.222.175.515.21.702.21.282 0 .528-.105.762-.316-.094.387-.176.68-.469 1.031-.187.211-.457.446-.832.446-.047 0-.375 0-.527-.235.375-.035.375-.375.375-.386 0-.223-.2-.258-.27-.258C.833.35.61.49.61.808c0 .351.328.61.832.61.703 0 1.559-.54 1.77-1.407zm0 0" aria-label="y" style="fill:#000;fill-opacity:1;fill-rule:nonzero;stroke:none" transform="matrix(1.33333 0 0 1.33333 290.957 339.04)"/><path d="m3.878-2.767-1.992-1.98c-.129-.129-.14-.14-.222-.14-.106 0-.2.081-.2.199 0 .07.024.082.13.199l1.991 1.992L1.593-.493c-.105.117-.129.129-.129.2 0 .116.094.198.2.198.082 0 .093-.011.222-.14l1.98-1.98L5.93-.154a.27.27 0 0 0 .153.058.19.19 0 0 0 .199-.199c0-.012 0-.058-.035-.105-.012-.024-1.594-1.582-2.098-2.098l1.828-1.816c.047-.059.2-.188.246-.247.012-.023.059-.058.059-.128a.19.19 0 0 0-.2-.2c-.081 0-.128.036-.234.141zm0 0" aria-label="×" style="fill:#000;fill-opacity:1;fill-rule:nonzero;stroke:none" transform="matrix(1.33333 0 0 1.33333 300.294 337.048)"/><path d="M4.84-3.798c.047-.14.047-.152.047-.222 0-.188-.14-.27-.293-.27a.44.44 0 0 0-.351.2c-.024.058-.094.363-.141.538-.07.258-.14.528-.2.797L3.458-.962c-.035.152-.468.856-1.125.856-.503 0-.62-.446-.62-.809 0-.457.175-1.078.515-1.957.152-.41.2-.516.2-.715a.8.8 0 0 0-.821-.82c-.95 0-1.313 1.453-1.313 1.535 0 .105.094.105.118.105.093 0 .105-.023.152-.187.27-.938.668-1.23 1.008-1.23.082 0 .258 0 .258.316 0 .246-.106.516-.176.703-.399 1.055-.574 1.617-.574 2.086 0 .89.62 1.184 1.218 1.184.387 0 .727-.165.996-.446-.129.516-.246 1.008-.644 1.535-.258.34-.633.633-1.09.633-.14 0-.598-.035-.762-.422.164 0 .293 0 .434-.117.094-.094.2-.223.2-.41 0-.316-.27-.352-.376-.352-.223 0-.55.164-.55.645 0 .504.433.867 1.054.867 1.02 0 2.05-.902 2.332-2.027zm0 0" aria-label="y" style="fill:#000;fill-opacity:1;fill-rule:nonzero;stroke:none" transform="matrix(1.33333 0 0 1.33333 313.578 337.048)"/></svg>